<svg xmlns="http://www.w3.org/2000/svg" xmlns:xlink="http://www.w3.org/1999/xlink" width="127" height="127" viewBox="0 0 127 127"><defs><linearGradient id="a" x1="1.171" y1="0.129" x2="0" y2="0.864" gradientUnits="objectBoundingBox"><stop offset="0" stop-color="#ff6f00"/><stop offset="1" stop-color="#f20000"/></linearGradient></defs><g transform="translate(-375 -3489)"><circle cx="63.5" cy="63.5" r="63.5" transform="translate(375 3489)" fill="url(#a)"/><g transform="translate(402 3528)"><g transform="translate(0 0)"><path d="M66.053,56.039H6a6.011,6.011,0,0,1-6-6V14A6.011,6.011,0,0,1,6,8H66.053a6.011,6.011,0,0,1,6,6V50.034A6.011,6.011,0,0,1,66.053,56.039ZM6,11a3.005,3.005,0,0,0-3,3V50.034a3.005,3.005,0,0,0,3,3H66.053a3.005,3.005,0,0,0,3-3V14a3.005,3.005,0,0,0-3-3Z" transform="translate(0 -8)" fill="#fff" opacity="0.58"/><g transform="translate(9.007 12.01)"><path d="M33.022,35.8,6.686,18.762a1.5,1.5,0,0,1,1.63-2.522L33.022,32.227,57.727,16.24a1.5,1.5,0,1,1,1.63,2.522Z" transform="translate(-6 -16)" fill="#fff"/></g><g transform="translate(7.505 27.021)"><path d="M6.5,38.01a1.5,1.5,0,0,1-.835-2.75l13.511-9.007a1.5,1.5,0,0,1,1.666,2.5L7.335,37.758A1.507,1.507,0,0,1,6.5,38.01Z" transform="translate(-4.999 -25.999)" fill="#fff"/></g><g transform="translate(48.038 27.021)"><path d="M47.011,38.01a1.507,1.507,0,0,1-.832-.252L32.668,28.751a1.5,1.5,0,1,1,1.666-2.5L47.846,35.26a1.5,1.5,0,0,1-.835,2.75Z" transform="translate(-31.999 -25.999)" fill="#fff"/></g></g></g></g></svg>