<svg xmlns="http://www.w3.org/2000/svg" xmlns:xlink="http://www.w3.org/1999/xlink" width="127" height="127" viewBox="0 0 127 127"><defs><linearGradient id="a" x1="1.294" x2="0" y2="0.864" gradientUnits="objectBoundingBox"><stop offset="0" stop-color="#31ff00"/><stop offset="1" stop-color="#0cb800"/></linearGradient></defs><g transform="translate(-375 -3231)"><path d="M63.5,0A63.5,63.5,0,1,1,0,63.5,63.5,63.5,0,0,1,63.5,0Z" transform="translate(375 3231)" fill="url(#a)"/><g transform="translate(403.752 3255.752)" style="isolation:isolate"><g transform="translate(0 0)"><path d="M2.15,72.248a1.043,1.043,0,0,1-.8-.345.915.915,0,0,1-.23-1.149L6.287,55.126A34.967,34.967,0,0,1,1,36.624,35.6,35.6,0,1,1,18.123,67.077L2.495,72.133A.422.422,0,0,1,2.15,72.248Zm16.088-7.584a.878.878,0,0,1,.575.23A33.8,33.8,0,1,0,8.47,54.436a.922.922,0,0,1,.115.919c0,.115-.115.23-.23.345L3.988,69.26l13.9-4.6Z" transform="translate(-0.996 -1)" fill="#fff" opacity="0.61"/><g transform="translate(15.614 18.042)"><path d="M43.791,51.864c-3.1,0-7.01-1.034-11.492-3.1A32.781,32.781,0,0,1,17.705,35.776a19.071,19.071,0,0,1-3.1-8.963,11.2,11.2,0,0,1,4.482-9.423,3.208,3.208,0,0,1,2.068-.689h2.068a3.292,3.292,0,0,1,2.988,1.954l3.1,7.584a3.41,3.41,0,0,1-.575,3.447l-1.954,2.183a1.057,1.057,0,0,0-.115,1.149c.115.115.23.46.689,1.034a22.609,22.609,0,0,0,8.849,6.895c.575.23.919.345,1.149.46a.927.927,0,0,0,1.034-.345L40,38.649a3.2,3.2,0,0,1,3.218-1.379l8.159,1.264a3.345,3.345,0,0,1,2.643,2.413l.46,2.068a2.918,2.918,0,0,1-.23,2.183h0c-2.758,5.976-7.929,6.665-8.159,6.665A15.322,15.322,0,0,0,43.791,51.864ZM21.153,19a.878.878,0,0,0-.575.23A8.978,8.978,0,0,0,16.9,26.7a17.3,17.3,0,0,0,2.758,7.929,30.8,30.8,0,0,0,13.56,12.066c5.171,2.413,9.423,3.333,12.526,2.758a8.97,8.97,0,0,0,6.435-5.4.513.513,0,0,0,0-.575l-.345-2.069a.86.86,0,0,0-.8-.69l-8.159-1.264a1.045,1.045,0,0,0-.919.46l-1.609,2.413a3.339,3.339,0,0,1-3.562,1.379,9.09,9.09,0,0,1-1.494-.575,25.586,25.586,0,0,1-9.768-7.7c-.46-.575-.69-.919-.919-1.264a3.3,3.3,0,0,1,.46-3.792l1.954-2.183a1.1,1.1,0,0,0,.23-1.034l-3.1-7.584A.91.91,0,0,0,23.221,19ZM53.329,44.51Z" transform="translate(-14.583 -16.7)" fill="#fff"/></g></g></g></g></svg>