<svg xmlns="http://www.w3.org/2000/svg" viewBox="0 0 306 58.92"><defs><style>.cls-1,.cls-2,.cls-3{fill:#39f;}.cls-1{opacity:0.07;}.cls-2{opacity:0.12;}.cls-4{fill:#fff;}</style></defs><g id="Layer_2" data-name="Layer 2"><g id="Layer_1-2" data-name="Layer 1"><path class="cls-1" d="M30,0H274.1a11.47,11.47,0,0,1,11.47,11.47v.77a31.95,31.95,0,0,1-31.95,31.95H6a6,6,0,0,1-6-6V30A30,30,0,0,1,30,0Z"/><path class="cls-2" d="M50.39,14.73H294.53A11.47,11.47,0,0,1,306,26.2V27a31.95,31.95,0,0,1-31.95,31.95H26.39a6,6,0,0,1-6-6V44.68a30,30,0,0,1,30-30Z"/><path class="cls-3" d="M41.36,6.65H285.5A11.47,11.47,0,0,1,297,18.12v.77A31.95,31.95,0,0,1,265,50.84H17.36a6,6,0,0,1-6-6V36.61a30,30,0,0,1,30-30Z"/><path class="cls-4" d="M124.42,31.06v1.62h-.26A3.85,3.85,0,0,1,123,32.5a3.44,3.44,0,0,1-1-.54l-.11-.09-.1-.1a3.62,3.62,0,0,1-2.65.91H109.3a3.35,3.35,0,0,1-1.15-.2,3,3,0,0,1-1-.6,2.6,2.6,0,0,1-.34-.38,3,3,0,0,1-.32-.53,3.67,3.67,0,0,1-.32-1.55,5.52,5.52,0,0,1,.09-1c.06-.35.13-.68.2-1s.14-.58.21-.8.1-.36.12-.42l1.56.5q-.06.18-.15.51c-.06.22-.13.46-.19.71s-.11.51-.15.77a4.49,4.49,0,0,0-.07.67,1.77,1.77,0,0,0,.19.9,1.47,1.47,0,0,0,.42.49,1.34,1.34,0,0,0,.5.21l.38,0h9.73a3,3,0,0,0,1-.13,1.53,1.53,0,0,0,.57-.33,1,1,0,0,0,.26-.44,2.38,2.38,0,0,0,.05-.45v-3h1.63v3a1.2,1.2,0,0,0,.22.77,1.35,1.35,0,0,0,.48.42,1.76,1.76,0,0,0,.54.17l.36,0Zm-11.14,4.76,1.47-1.49,1.5,1.51-1.49,1.48Z"/><path class="cls-4" d="M124,31.06h.29a5,5,0,0,0,1.24-.12,1.5,1.5,0,0,0,.69-.36,1,1,0,0,0,.25-.46,2.86,2.86,0,0,0,.08-.79v-9h1.63v9c0,.2,0,.4,0,.61a2.78,2.78,0,0,1-.11.63,2.85,2.85,0,0,1-.25.63,2.61,2.61,0,0,1-.44.58,3.43,3.43,0,0,1-.54.4,3.36,3.36,0,0,1-.66.28,4.06,4.06,0,0,1-.83.17,8.05,8.05,0,0,1-1,.06H124Z"/><path class="cls-4" d="M134.63,32.69a8.74,8.74,0,0,1-1.5-.12,3.55,3.55,0,0,1-1-.34,2.11,2.11,0,0,1-.66-.55,2.83,2.83,0,0,1-.38-.78,4.82,4.82,0,0,1-.18-1c0-.37,0-.78,0-1.23V20.36h1.63v8.31a10.28,10.28,0,0,0,.05,1.22,1.31,1.31,0,0,0,.25.72,1,1,0,0,0,.61.35,6.78,6.78,0,0,0,1.22.1Z"/><path class="cls-4" d="M134.27,32.69V31.06h3.83a7.16,7.16,0,0,0,1.56-.14,2.81,2.81,0,0,0,.92-.35,1.14,1.14,0,0,0,.45-.45,1.47,1.47,0,0,0,.14-.47h-1.31l-.5,0-.58-.06a4.34,4.34,0,0,1-.6-.14,3.33,3.33,0,0,1-.58-.26,2.83,2.83,0,0,1-.48-.34,2.45,2.45,0,0,1-.44-.51,3.28,3.28,0,0,1-.32-.73,3.6,3.6,0,0,1-.12-1,3.69,3.69,0,0,1,.24-1.33,3.08,3.08,0,0,1,.69-1.07,2.94,2.94,0,0,1,1-.68,3.22,3.22,0,0,1,1.24-.24,3,3,0,0,1,1.38.32,2.91,2.91,0,0,1,1.06.92,4.12,4.12,0,0,1,.69,1.54,8.73,8.73,0,0,1,.23,2.09v1.2a3.4,3.4,0,0,1-.34,1.52,2.76,2.76,0,0,1-1,1.08,6.17,6.17,0,0,1-3.32.73Zm3.47-11-1.36-1.38,1.35-1.4,1.39,1.4Zm1.7,3.22a2.09,2.09,0,0,0-.59.1,1.57,1.57,0,0,0-.53.31,1.48,1.48,0,0,0-.39.52,1.78,1.78,0,0,0-.15.76,1.65,1.65,0,0,0,.06.48,1.19,1.19,0,0,0,.15.32,1.26,1.26,0,0,0,.2.2l.2.13A1.75,1.75,0,0,0,139,28a4.4,4.4,0,0,0,.86.07h1.33a6.56,6.56,0,0,0-.18-1.5,3.22,3.22,0,0,0-.43-1A1.36,1.36,0,0,0,139.44,24.92Zm1.61-3.2-1.36-1.38,1.34-1.4,1.4,1.4Z"/><path class="cls-4" d="M164.09,31.09a1.52,1.52,0,0,0,.6-.11,1.38,1.38,0,0,0,.47-.31,1.52,1.52,0,0,0,.37-1.08v-.1c0-.08,0-.17,0-.29s0-.25,0-.4l-.06-.44c0-.15,0-.32-.07-.49s-.06-.36-.1-.56-.07-.43-.12-.68l1.58-.27c.05.25.1.48.14.69s.07.4.1.58c.06.36.11.7.14,1s.07.58.08.77v.17a3.82,3.82,0,0,1-.06.68,3.26,3.26,0,0,1-.18.63,2.33,2.33,0,0,1-.28.52,3,3,0,0,1-.3.37,2.84,2.84,0,0,1-1,.69,3.09,3.09,0,0,1-1.24.25H153.26a3.36,3.36,0,0,1-1.15-.22,2.8,2.8,0,0,1-1-.59,3.35,3.35,0,0,1-.35-.38,2.86,2.86,0,0,1-.31-.52,3.38,3.38,0,0,1-.23-.7,3.81,3.81,0,0,1-.09-.87,5.61,5.61,0,0,1,.09-.95c.06-.34.12-.67.19-1l.21-.8c.07-.23.11-.37.13-.42l1.55.49c0,.12-.08.29-.14.51s-.12.46-.18.72-.11.51-.16.76a4.47,4.47,0,0,0-.06.67,1.89,1.89,0,0,0,.18.9,1.34,1.34,0,0,0,.92.7,2.12,2.12,0,0,0,.38,0Zm-7.07-5-1.36-1.39,1.35-1.4,1.4,1.4Zm3.31,0L159,24.69l1.35-1.4,1.4,1.4Z"/><path class="cls-4" d="M173.08,32.69a8.52,8.52,0,0,1-1.49-.12,3.62,3.62,0,0,1-1-.34,2,2,0,0,1-.65-.55,2.59,2.59,0,0,1-.39-.78,4.82,4.82,0,0,1-.18-1c0-.37,0-.78,0-1.23V20.36H171v8.31c0,.5,0,.91.05,1.22a1.31,1.31,0,0,0,.25.72,1,1,0,0,0,.61.35,6.87,6.87,0,0,0,1.22.1Z"/><path class="cls-4" d="M184.45,29.24l-.44.29c-.25.17-.59.38-1,.63a1.1,1.1,0,0,0,.31.5,1.54,1.54,0,0,0,.44.26,1.72,1.72,0,0,0,.44.12l.3,0h1.81v1.63h-1.81a3.79,3.79,0,0,1-1.18-.18,3.19,3.19,0,0,1-1-.55,2.9,2.9,0,0,1-.76-1c-.44.22-.92.43-1.43.64a15.31,15.31,0,0,1-1.57.56,13.26,13.26,0,0,1-1.68.4,9.88,9.88,0,0,1-1.71.15h-2.43V31.06h2.43a8.79,8.79,0,0,0,2-.23,14.58,14.58,0,0,0,1.91-.57c.61-.23,1.18-.48,1.72-.74s1-.52,1.41-.76l-1.68-.66L179,27.54c-.46-.17-.86-.3-1.19-.4a5.73,5.73,0,0,0-.66-.19l-.31,0a.66.66,0,0,0-.31.16,1.22,1.22,0,0,0-.3.4,3.52,3.52,0,0,0-.28.76l-1.58-.41c.44-1.71,1.38-2.56,2.8-2.56h.14l.25.05a3.38,3.38,0,0,1,.44.12l.7.23,1,.37,1.47.57,3.06,1.13Z"/><path class="cls-4" d="M191.05,25.22a3.21,3.21,0,0,1,1.34.26,3.06,3.06,0,0,1,1,.68,3,3,0,0,1,.62,1,3.22,3.22,0,0,1,.22,1.15,4.47,4.47,0,0,1-.24,1.51,3.5,3.5,0,0,1-.72,1.2c.44,0,.91,0,1.41,0h1v1.63h-1a14.24,14.24,0,0,1-3.69-.41,12.33,12.33,0,0,1-1.75.31,21.31,21.31,0,0,1-2.24.1h-1V31.06h1c.62,0,1.18,0,1.68,0a3.58,3.58,0,0,1-.76-1.21,4.22,4.22,0,0,1-.25-1.5,2.86,2.86,0,0,1,.26-1.19,3.18,3.18,0,0,1,.73-1,3.33,3.33,0,0,1,1.08-.67A3.6,3.6,0,0,1,191.05,25.22ZM191,30.57a3.27,3.27,0,0,0,.7-.35,2.51,2.51,0,0,0,.54-.48,2.39,2.39,0,0,0,.34-.63,2.55,2.55,0,0,0,.12-.81,1.16,1.16,0,0,0-.14-.52,1.74,1.74,0,0,0-.36-.46,2,2,0,0,0-.52-.34,1.47,1.47,0,0,0-.62-.13,2,2,0,0,0-.69.12,2.2,2.2,0,0,0-.59.31,1.46,1.46,0,0,0-.4.46,1.15,1.15,0,0,0-.15.56v.11a2.06,2.06,0,0,0,.12.7,2,2,0,0,0,.35.61,2.49,2.49,0,0,0,.57.49A3.82,3.82,0,0,0,191,30.57Zm-1.46-9L191,20.1l1.51,1.5L191,23.08Z"/><path class="cls-4" d="M195.33,32.69V31.06h1.5a3.12,3.12,0,0,0,1-.12,1.55,1.55,0,0,0,.56-.31.93.93,0,0,0,.25-.41,1.72,1.72,0,0,0,.06-.44V26.86h1.62v2.85a1.26,1.26,0,0,0,.2.75,1.36,1.36,0,0,0,.47.4l.2-.33.2-.34c.23-.37.46-.75.71-1.13s.5-.76.77-1.12a12.4,12.4,0,0,1,.85-1,6.22,6.22,0,0,1,.95-.84,4.34,4.34,0,0,1,1.06-.57,3.35,3.35,0,0,1,1.19-.21,3.58,3.58,0,0,1,1.24.23,3,3,0,0,1,1.09.71,3.52,3.52,0,0,1,.76,1.22,4.9,4.9,0,0,1,.29,1.77,3.74,3.74,0,0,1-.32,1.62,3,3,0,0,1-.81,1.08,3.08,3.08,0,0,1-1.13.6,4.34,4.34,0,0,1-1.22.18h-4.94a3.79,3.79,0,0,1-1.18-.18,3.33,3.33,0,0,1-1-.54l-.19-.17a2.84,2.84,0,0,1-1.1.66,5.14,5.14,0,0,1-1.5.23Zm11.45-1.63a2.35,2.35,0,0,0,.77-.12,1.53,1.53,0,0,0,1-.93,2.17,2.17,0,0,0,.13-.8,2.74,2.74,0,0,0-.47-1.71,1.57,1.57,0,0,0-1.3-.6,2,2,0,0,0-1.17.39,5.85,5.85,0,0,0-1.09,1,13,13,0,0,0-1,1.34c-.31.49-.61,1-.89,1.44Z"/></g></g></svg>