<svg xmlns="http://www.w3.org/2000/svg" viewBox="0 0 461.34 105.39"><defs><style>.cls-1,.cls-2,.cls-3,.cls-4{fill:#fff;}.cls-1{opacity:0.05;}.cls-2{opacity:0.2;}.cls-3{opacity:0.35;}</style></defs><g id="Layer_2" data-name="Layer 2"><g id="Layer_1-2" data-name="Layer 1"><path class="cls-1" d="M105.72.18C71.34-2,40,15.75,35.92,35.09,32.61,50.73,48.18,70.51,65.76,80.62c43.24,24.86,80.82-19,143.16,2,22.46,7.57,21.41,14.56,44.51,19.73,36.79,8.23,71-2.43,87.52-7.59,21.36-6.66,32.1-13.65,64.75-21.75,12.43-3.09,19.86-.44,23.27-5.06C458.81,27.5,417.51-3.74,388,2.21,322.74,15.36,248.38,9.29,105.72.18Z"/><circle class="cls-2" cx="6.07" cy="67.46" r="6.07"/><circle class="cls-2" cx="457.3" cy="26.49" r="4.05"/><rect class="cls-3" x="418.85" y="84.59" width="28.83" height="2.67" rx="1.33"/><rect class="cls-3" x="219.54" y="67.46" width="43.5" height="2.6" rx="1.3"/><path class="cls-4" d="M88.64,53.07A9.26,9.26,0,0,1,87,53a4.15,4.15,0,0,1-1.11-.35A2.06,2.06,0,0,1,85.2,52a2.7,2.7,0,0,1-.42-.83,5.5,5.5,0,0,1-.19-1.08c0-.41,0-.85,0-1.34V40.14h2v8.63c0,.5,0,.91,0,1.21a1.39,1.39,0,0,0,.26.72,1,1,0,0,0,.64.33,7.08,7.08,0,0,0,1.18.08Z"/><path class="cls-4" d="M96.84,43.25q.73,1,1.41,1.86c.19.25.38.51.58.76s.38.51.57.74l.5.66c.16.2.29.36.39.5a3.21,3.21,0,0,1,.46.81,4,4,0,0,1,.25.9,5.63,5.63,0,0,1,0,.58c0,.11,0,.27,0,.48a2.94,2.94,0,0,1-.15.7,3.21,3.21,0,0,1-.5.95,3.39,3.39,0,0,1-.81.74,3.78,3.78,0,0,1-1.1.48,4.8,4.8,0,0,1-1.35.17,6.68,6.68,0,0,1-1.31-.13A5.25,5.25,0,0,1,94.41,53l-.34-.16-.29-.13-.25-.13a14.86,14.86,0,0,1-4.23.51h-1v-2h2a8.65,8.65,0,0,0,.88-.05,4.25,4.25,0,0,1-.84-1.21A3.38,3.38,0,0,1,90,48.36a2.92,2.92,0,0,1,.28-1.3A3,3,0,0,1,91,46a3.62,3.62,0,0,1,1.13-.66,4.18,4.18,0,0,1,1.39-.23,3.42,3.42,0,0,1,1,.15,3.59,3.59,0,0,1,.86.41,3.31,3.31,0,0,1,.69.6,4.23,4.23,0,0,1,.5.72,3.46,3.46,0,0,1,.3.75,2.66,2.66,0,0,1,.1.72,3.57,3.57,0,0,1-.35,1.62,4.26,4.26,0,0,1-1,1.29,5.71,5.71,0,0,0,.69.19,2.92,2.92,0,0,0,.71.08,3.27,3.27,0,0,0,.61,0,2.05,2.05,0,0,0,.61-.18,1.64,1.64,0,0,0,.52-.35,1.36,1.36,0,0,0,.34-.57,1.06,1.06,0,0,0,0-.31,2.05,2.05,0,0,0-.22-.81,7.65,7.65,0,0,0-.77-1.28q-.55-.78-1.32-1.71l-1.62-2Zm-5,5.11a1.9,1.9,0,0,0,.45,1.25,4.56,4.56,0,0,0,1.34,1,3.58,3.58,0,0,0,.59-.36,3.24,3.24,0,0,0,.49-.49,2.32,2.32,0,0,0,.34-.59,1.72,1.72,0,0,0,.13-.66,1.37,1.37,0,0,0-.17-.72,1.84,1.84,0,0,0-.43-.52A1.61,1.61,0,0,0,94,47a1.48,1.48,0,0,0-.51-.1,1.69,1.69,0,0,0-.64.12,2.08,2.08,0,0,0-.54.32,1.54,1.54,0,0,0-.37.47A1.19,1.19,0,0,0,91.84,48.36Z"/><path class="cls-4" d="M116.11,56a7,7,0,0,0,1.48-.14,2.69,2.69,0,0,0,1-.46,1.91,1.91,0,0,0,.59-.82,3.34,3.34,0,0,0,.19-1.21L117.8,53l-.71-.19-.75-.2-.72-.2-.66-.17a5.45,5.45,0,0,1-.41-1.73c0-.14,0-.27,0-.41a5.28,5.28,0,0,1,.17-1.33,4.82,4.82,0,0,1,1.71-2.53,5.24,5.24,0,0,1,1.51-.77,6.08,6.08,0,0,1,1.91-.28,6.33,6.33,0,0,1,.86.06,7.56,7.56,0,0,1,.92.19l-.49,1.89a5.7,5.7,0,0,0-.7-.16,4.48,4.48,0,0,0-.64,0,3.87,3.87,0,0,0-1.37.24,3.15,3.15,0,0,0-1.08.68,2.84,2.84,0,0,0-.68,1.07,3,3,0,0,0-.18,1.05c0,.12,0,.24,0,.36l.73.19.74.2.81.2,1,.24a2,2,0,0,1,1.17.68,1.89,1.89,0,0,1,.36,1.19,7.12,7.12,0,0,1-.28,2.12,3.44,3.44,0,0,1-.89,1.5,4,4,0,0,1-1.6.91,8.33,8.33,0,0,1-2.39.3h-1.9a5.65,5.65,0,0,1-1.37-.16,5.32,5.32,0,0,1-1.24-.48,4.8,4.8,0,0,1-1-.75,5.84,5.84,0,0,1-.85-1,6.15,6.15,0,0,1-.87-3.29,9.33,9.33,0,0,1,.35-2.44,16.85,16.85,0,0,1,1.07-2.76L112,48a15.65,15.65,0,0,0-.9,2.33,7.59,7.59,0,0,0-.29,2,4.16,4.16,0,0,0,.59,2.28,3,3,0,0,0,1.17,1.1,3.63,3.63,0,0,0,1.65.37Z"/><path class="cls-4" d="M129.24,52.65a6.39,6.39,0,0,1-.44,2.17,4.62,4.62,0,0,1-1.09,1.65A4.57,4.57,0,0,1,126,57.52a6.13,6.13,0,0,1-2.21.37h-1.24v-2h1.24a5.79,5.79,0,0,0,1.54-.19,2.64,2.64,0,0,0,1.08-.6,2.41,2.41,0,0,0,.62-1.07,5.31,5.31,0,0,0,.21-1.6V46.88h2Zm-1.67-9.38-1.44,1.46-1.43-1.44,1.43-1.45Zm1.86-2.56-1.34,1.34-1.33-1.32,1.34-1.35Zm2,2.53L130,44.67l-1.48-1.42L130,41.8Z"/><path class="cls-4" d="M133.53,55.93a10.87,10.87,0,0,0,2.28-.2,3.3,3.3,0,0,0,1.4-.62,4.08,4.08,0,0,0,.36-.36,2.13,2.13,0,0,0,.26-.44,3,3,0,0,0,.16-.55,4.46,4.46,0,0,0,.07-.69h-1.52a5.05,5.05,0,0,1-1.32-.18,3.37,3.37,0,0,1-1.21-.61,3.31,3.31,0,0,1-.89-1.14,4,4,0,0,1-.34-1.75,5.29,5.29,0,0,1,.1-1.1,5.49,5.49,0,0,1,.26-.86,3.75,3.75,0,0,1,.75-1.14,3.59,3.59,0,0,1,1.17-.8,3.53,3.53,0,0,1,1.42-.28,3.59,3.59,0,0,1,1.24.21,3,3,0,0,1,1,.61,3.7,3.7,0,0,1,.93,1.47,6.2,6.2,0,0,1,.32,2.13v1.48h1.64v2H140a5,5,0,0,1-.41,2.09,4,4,0,0,1-1.17,1.48,4.36,4.36,0,0,1-.88.55,5.59,5.59,0,0,1-1.09.39,8.22,8.22,0,0,1-1.32.23,15.61,15.61,0,0,1-1.61.08Zm2.95-8.76a1.54,1.54,0,0,0-1.28.57,2.55,2.55,0,0,0-.46,1.65,2,2,0,0,0,.16.87,1.38,1.38,0,0,0,.48.54,1.87,1.87,0,0,0,.32.15l.34.1.29.05h1.73V49.63a5.13,5.13,0,0,0-.09-1.05,2.86,2.86,0,0,0-.23-.7,1.65,1.65,0,0,0-.32-.42,1.9,1.9,0,0,0-.35-.21,1.51,1.51,0,0,0-.33-.07Z"/><path class="cls-4" d="M141.31,51.11a6.79,6.79,0,0,0,1.36-.11,1.43,1.43,0,0,0,.72-.35.85.85,0,0,0,.24-.43,3.13,3.13,0,0,0,.08-.77V40.12h1.95v9.33q0,.31,0,.66a4.23,4.23,0,0,1-.12.68,3.82,3.82,0,0,1-.28.67,3,3,0,0,1-.47.63,3.33,3.33,0,0,1-1.35.74,7.58,7.58,0,0,1-2.1.24Z"/><path class="cls-4" d="M149.31,55.93a10.87,10.87,0,0,0,2.28-.2,3.3,3.3,0,0,0,1.4-.62,2.45,2.45,0,0,0,.36-.36,1.76,1.76,0,0,0,.26-.44,3,3,0,0,0,.16-.55,4.46,4.46,0,0,0,.07-.69h-1.52a5.11,5.11,0,0,1-1.32-.18,3.46,3.46,0,0,1-1.21-.61,3.31,3.31,0,0,1-.89-1.14,4,4,0,0,1-.34-1.75,5.29,5.29,0,0,1,.1-1.1,4.58,4.58,0,0,1,.27-.86,2.91,2.91,0,0,1,.35-.66,4.23,4.23,0,0,1,.39-.48,3.59,3.59,0,0,1,1.17-.8,3.53,3.53,0,0,1,1.42-.28,3.59,3.59,0,0,1,1.24.21,3,3,0,0,1,1,.61,3.84,3.84,0,0,1,.94,1.47,6.45,6.45,0,0,1,.32,2.13v1.48h1.64v2H155.8a5.28,5.28,0,0,1-.41,2.09,4,4,0,0,1-1.17,1.48,4.73,4.73,0,0,1-.89.55,5.36,5.36,0,0,1-1.09.39,8.22,8.22,0,0,1-1.32.23,15.61,15.61,0,0,1-1.61.08Zm2.95-8.76a1.54,1.54,0,0,0-1.28.57,2.55,2.55,0,0,0-.46,1.65,2.11,2.11,0,0,0,.16.87,1.38,1.38,0,0,0,.48.54,1.66,1.66,0,0,0,.33.15l.33.1.29.05h1.73V49.63a5.13,5.13,0,0,0-.09-1.05,2.86,2.86,0,0,0-.23-.7,1.45,1.45,0,0,0-.32-.42,1.62,1.62,0,0,0-.35-.21,1.51,1.51,0,0,0-.33-.07Z"/><path class="cls-4" d="M164.57,51.11v2h-.66a4.19,4.19,0,0,1-1.42-.22,2.49,2.49,0,0,1-1-.65,3.14,3.14,0,0,1-1.18.65,5,5,0,0,1-1.57.22h-1.64v-2h1.64a3.1,3.1,0,0,0,.95-.12,1.27,1.27,0,0,0,.53-.29.73.73,0,0,0,.23-.38,1.51,1.51,0,0,0,.06-.41v-3h2v3a1.13,1.13,0,0,0,.1.51,1.12,1.12,0,0,0,.23.35,1.14,1.14,0,0,0,.32.22,2.19,2.19,0,0,0,.33.12,1.17,1.17,0,0,0,.3.05h.86Zm-5.26-8.37,1.49-1.5,1.52,1.52-1.5,1.51Z"/><path class="cls-4" d="M175.71,53.07h-.27a5.57,5.57,0,0,1-1.37-.15,4.14,4.14,0,0,1-1-.44,4.29,4.29,0,0,1-.86-.68c-.26-.26-.53-.54-.81-.85a3.24,3.24,0,0,1-.31.48,4.68,4.68,0,0,1-.43.46,5,5,0,0,1-.51.4,4.71,4.71,0,0,1-.58.32,5.65,5.65,0,0,1-1.2.35,7.68,7.68,0,0,1-1.37.11h-2.77v-2h2.9A5.4,5.4,0,0,0,168,51a5.5,5.5,0,0,0,.8-.2,2.41,2.41,0,0,0,.62-.32,1.27,1.27,0,0,0,.4-.4.71.71,0,0,0,.07-.22,1.22,1.22,0,0,0,0-.26,1.68,1.68,0,0,0-.19-.68,7.11,7.11,0,0,0-.5-.9c-.21-.33-.45-.67-.72-1s-.54-.72-.83-1.08-.56-.7-.84-1l-.76-.88.35-1.68,8.07-3.72.81,1.8-7.07,3.25,3.46,4.63c.34.46.66.86.94,1.2a6.49,6.49,0,0,0,.84.88,3.48,3.48,0,0,0,.9.53,3,3,0,0,0,1.07.18h.27Z"/><path class="cls-4" d="M182,45.6s0,.14.07.3.08.35.13.58.1.49.15.77.1.57.14.85.09.56.12.83a6,6,0,0,1,0,.69,3.65,3.65,0,0,1-.3,1.54,3.09,3.09,0,0,1-.76,1.08,3.28,3.28,0,0,1-1.06.63,3.81,3.81,0,0,1-1.19.2h-4v-2h4a1.85,1.85,0,0,0,.35,0,1.07,1.07,0,0,0,.45-.18,1.3,1.3,0,0,0,.39-.44,1.74,1.74,0,0,0,.17-.83,3.29,3.29,0,0,0,0-.49c0-.2-.05-.41-.09-.64s-.07-.46-.12-.7-.1-.46-.14-.67l-.13-.57c0-.16-.08-.29-.1-.38Zm-3.8-1.89-1.41-1.43,1.39-1.46,1.45,1.46Zm3.61,0-1.42-1.44,1.4-1.45,1.45,1.45Z"/><path class="cls-4" d="M196,57.9a5.94,5.94,0,0,1-1.35-.16,5.61,5.61,0,0,1-1.22-.47,5.2,5.2,0,0,1-1-.76,4.6,4.6,0,0,1-.85-1,6.5,6.5,0,0,1-.65-1.45,5.94,5.94,0,0,1-.22-1.68,8.81,8.81,0,0,1,.35-2.43A18.19,18.19,0,0,1,192,47.23l1.77.84a14.65,14.65,0,0,0-.92,2.3,6.91,6.91,0,0,0-.31,2,3.94,3.94,0,0,0,.15,1.14,4.14,4.14,0,0,0,.44,1,3,3,0,0,0,1.17,1.08,3.39,3.39,0,0,0,1.64.38h1.86a5.91,5.91,0,0,0,1.61-.18,2.11,2.11,0,0,0,1-.54,1.77,1.77,0,0,0,.47-.86,4.6,4.6,0,0,0,.13-1.17v-6.3h2V49.8a1.25,1.25,0,0,0,.42,1,1.61,1.61,0,0,0,1.05.33h.62v2h-.62a6.56,6.56,0,0,1-.76,0,1.35,1.35,0,0,1-.71-.27v.42a4.53,4.53,0,0,1-1.29,3.57,5.64,5.64,0,0,1-3.85,1.15Zm0-11.7,1.48-1.5,1.53,1.52-1.51,1.51Z"/><path class="cls-4" d="M211.32,45.6s0,.14.07.3.08.35.13.58l.16.77c0,.29.09.57.14.85s.08.56.11.83a6.21,6.21,0,0,1,0,.69,3.65,3.65,0,0,1-.3,1.54,3.11,3.11,0,0,1-.77,1.08,3.17,3.17,0,0,1-1.06.63,3.75,3.75,0,0,1-1.18.2h-4v-2h4a1.77,1.77,0,0,0,.34,0,1.05,1.05,0,0,0,.46-.18,1.3,1.3,0,0,0,.39-.44,1.75,1.75,0,0,0,.16-.83c0-.13,0-.29,0-.49s-.06-.41-.09-.64-.08-.46-.13-.7-.09-.46-.14-.67-.09-.4-.13-.57-.07-.29-.1-.38Zm-4.51,12.2-1.42-1.43,1.4-1.46,1.45,1.46Zm3.42,0-1.42-1.44,1.4-1.45,1.45,1.45Z"/><path class="cls-4" d="M221.24,53.07h-.19a4.35,4.35,0,0,1-.74-.06,1.5,1.5,0,0,1-.71-.36,6.64,6.64,0,0,1-.45,2.17,4.73,4.73,0,0,1-1.08,1.65,4.57,4.57,0,0,1-1.67,1.05,6.19,6.19,0,0,1-2.22.37h-1.24v-2h1.24a5.86,5.86,0,0,0,1.55-.19,2.6,2.6,0,0,0,1.07-.6,2.52,2.52,0,0,0,.63-1.07,5.67,5.67,0,0,0,.2-1.6V46.88h2v2.81a1.27,1.27,0,0,0,.19.74,1.63,1.63,0,0,0,.44.43,1.54,1.54,0,0,0,.49.2l.33,0h.19Z"/><path class="cls-4" d="M227.57,45.6s0,.14.07.3.08.35.13.58.1.49.15.77l.15.85c0,.29.08.56.11.83a6,6,0,0,1,0,.69,3.65,3.65,0,0,1-.29,1.54,3.11,3.11,0,0,1-.77,1.08,3.17,3.17,0,0,1-1.06.63,3.81,3.81,0,0,1-1.19.2h-4v-2H225a1.77,1.77,0,0,0,.34,0,1.05,1.05,0,0,0,.46-.18,1.3,1.3,0,0,0,.39-.44,1.75,1.75,0,0,0,.16-.83c0-.13,0-.29,0-.49s-.06-.41-.09-.64-.08-.46-.13-.7-.09-.46-.14-.67-.09-.4-.13-.57-.07-.29-.1-.38Zm-3.79-1.89-1.42-1.43,1.39-1.46,1.45,1.46Zm3.6,0L226,42.29l1.4-1.45,1.46,1.45Z"/><path class="cls-4" d="M240.39,51.11v2h-.22a3.57,3.57,0,0,1-2.46-1,2.62,2.62,0,0,1-.72.58,4.67,4.67,0,0,1-1.63.5c-.22,0-.45.06-.68.08l-.73,0c-.36,0-.72,0-1.06-.05l-.56-.08L231.7,53c-.21-.06-.43-.12-.64-.2a4.15,4.15,0,0,1-.6-.29L229.6,52l1-1.7.85.48a2.69,2.69,0,0,0,.51.22,4.75,4.75,0,0,0,.62.14q.33.06.69.09c.23,0,.47,0,.71,0a10.06,10.06,0,0,0,1.16-.06,2.25,2.25,0,0,0,.82-.22.62.62,0,0,0,.33-.46v-.06a1.47,1.47,0,0,0-.27-.72l-1.28-2-.95-1.43-.57-.84-.14-.22h0l-.54-.82,1.64-1.08.55.82.21.33.58.88q.36.57.87,1.32l1.1,1.65.58.87a10.24,10.24,0,0,0,.68.88,4.71,4.71,0,0,0,.72.7,1.17,1.17,0,0,0,.71.28Z"/><path class="cls-4" d="M246.67,45.6s0,.14.07.3.08.35.13.58.1.49.15.77l.15.85c0,.29.08.56.11.83a6,6,0,0,1,0,.69,3.65,3.65,0,0,1-.29,1.54,3.11,3.11,0,0,1-.77,1.08,3.17,3.17,0,0,1-1.06.63,3.81,3.81,0,0,1-1.19.2h-4v-2h4.06a1.77,1.77,0,0,0,.34,0,1.05,1.05,0,0,0,.46-.18,1.3,1.3,0,0,0,.39-.44,1.75,1.75,0,0,0,.16-.83c0-.13,0-.29,0-.49s-.06-.41-.09-.64-.08-.46-.13-.7-.09-.46-.14-.67-.09-.4-.13-.57-.07-.29-.1-.38Zm-4.51,12.2-1.42-1.43,1.4-1.46,1.45,1.46Zm3.42,0-1.42-1.44,1.4-1.45L247,56.38Z"/><path class="cls-4" d="M259.49,51.11v2h-.22a3.57,3.57,0,0,1-2.46-1,2.62,2.62,0,0,1-.72.58,4.67,4.67,0,0,1-1.63.5c-.22,0-.45.06-.68.08l-.73,0c-.36,0-.72,0-1.06-.05l-.56-.08L250.8,53c-.21-.06-.43-.12-.64-.2a4.15,4.15,0,0,1-.6-.29L248.7,52l1-1.7.85.48A3,3,0,0,0,251,51a4.75,4.75,0,0,0,.62.14q.33.06.69.09c.23,0,.47,0,.71,0a10.06,10.06,0,0,0,1.16-.06A2.25,2.25,0,0,0,255,51a.62.62,0,0,0,.33-.46v-.06a1.47,1.47,0,0,0-.27-.72l-1.28-2-.95-1.43-.57-.84-.14-.22h0l-.54-.82,1.64-1.08.55.82.21.33.58.88q.36.57.87,1.32l1.1,1.65.58.87a10.24,10.24,0,0,0,.68.88,4.71,4.71,0,0,0,.72.7,1.17,1.17,0,0,0,.71.28Z"/><path class="cls-4" d="M271.44,49.54l-.48.31c-.28.18-.65.4-1.12.67s-1,.54-1.63.84a19.38,19.38,0,0,1-2,.83,15.55,15.55,0,0,1-2.23.63,10.77,10.77,0,0,1-2.32.25h-2.58v-2h2.58A9.8,9.8,0,0,0,263,51a12.16,12.16,0,0,0,1.34-.25c.45-.1.89-.22,1.33-.36s.85-.28,1.26-.44.78-.31,1.13-.48.67-.33,1-.49l-4.47-1.57a3.59,3.59,0,0,0-.72-.12,1.4,1.4,0,0,0-.56.11,1.13,1.13,0,0,0-.42.37,2.54,2.54,0,0,0-.32.64l-1.81-.55a5.11,5.11,0,0,1,.51-1.15,3.22,3.22,0,0,1,.8-.92,2.55,2.55,0,0,1,1.11-.49,1.84,1.84,0,0,1,.41,0,3.45,3.45,0,0,1,1,.18l.91.3.8.29.83.31,1,.38,1.32.5c.5.19,1.1.41,1.79.65Zm-7.59,6.61,1.49-1.51,1.52,1.53-1.5,1.5Z"/><path class="cls-4" d="M284.05,53.07a9.14,9.14,0,0,1-1.59-.11,4.23,4.23,0,0,1-1.12-.35,2.12,2.12,0,0,1-.72-.59,2.32,2.32,0,0,1-.42-.83,4.85,4.85,0,0,1-.19-1.08c0-.41-.05-.85-.05-1.34V40.14h2v8.63c0,.5,0,.91.05,1.21a1.31,1.31,0,0,0,.26.72,1,1,0,0,0,.63.33,7.16,7.16,0,0,0,1.18.08Z"/><path class="cls-4" d="M288.74,45.6a2.54,2.54,0,0,1,.08.3c0,.15.07.35.13.58s.1.49.15.77.1.57.14.85.08.56.11.83a6.21,6.21,0,0,1,0,.69,3.65,3.65,0,0,1-.3,1.54,3.09,3.09,0,0,1-.76,1.08,3.22,3.22,0,0,1-1.07.63,3.75,3.75,0,0,1-1.18.2h-2.42v-2h2.48a1.85,1.85,0,0,0,.35,0,1.07,1.07,0,0,0,.45-.18,1.3,1.3,0,0,0,.39-.44,1.74,1.74,0,0,0,.17-.83c0-.13,0-.29,0-.49s-.05-.41-.09-.64-.08-.46-.12-.7-.1-.46-.14-.67l-.13-.57c-.05-.16-.08-.29-.1-.38Zm-3.18,10.59,1.49-1.5,1.52,1.52-1.5,1.51Z"/><path class="cls-4" d="M300.73,53.07a4.47,4.47,0,0,1-1.53-.25,3.78,3.78,0,0,1-1.2-.71,3,3,0,0,1-.78-1.07,3.21,3.21,0,0,1-.28-1.36,4.52,4.52,0,0,1,.19-1.36,5.3,5.3,0,0,1,.53-1.16,7,7,0,0,1,.76-1c.29-.34.6-.67.91-1l-.56-.63,1.45-1.31.46.5.47.51c.43.45.84.9,1.25,1.35a13.07,13.07,0,0,1,1.09,1.34,7.25,7.25,0,0,1,.76,1.34,3.47,3.47,0,0,1,.28,1.31v.05a3.63,3.63,0,0,1-.3,1.41,3.54,3.54,0,0,1-.86,1.16,4,4,0,0,1-1.18.7A4.3,4.3,0,0,1,300.73,53.07Zm-.1-6.75c-.25.28-.48.54-.69.8a5.54,5.54,0,0,0-.54.79,3.91,3.91,0,0,0-.37.84,3.48,3.48,0,0,0-.13.93,1.19,1.19,0,0,0,.16.64,1.21,1.21,0,0,0,.4.44,1.66,1.66,0,0,0,.59.26,2.59,2.59,0,0,0,.68.09,1.94,1.94,0,0,0,1.35-.43,1.41,1.41,0,0,0,.48-1.12,2.28,2.28,0,0,0-.16-.84,4.54,4.54,0,0,0-.43-.81,6.38,6.38,0,0,0-.62-.8C301.12,46.84,300.88,46.58,300.63,46.32Z"/><path class="cls-4" d="M316.54,51.11v2h-.22a3.57,3.57,0,0,1-2.46-1,2.62,2.62,0,0,1-.72.58,4.67,4.67,0,0,1-1.63.5c-.22,0-.45.06-.68.08l-.73,0c-.36,0-.72,0-1.06-.05l-.56-.08-.63-.12c-.21-.06-.43-.12-.64-.2a4.15,4.15,0,0,1-.6-.29l-.86-.48,1-1.7.85.48a2.69,2.69,0,0,0,.51.22,4.75,4.75,0,0,0,.62.14q.33.06.69.09c.23,0,.47,0,.71,0a10.06,10.06,0,0,0,1.16-.06,2.25,2.25,0,0,0,.82-.22.62.62,0,0,0,.33-.46v-.06a1.47,1.47,0,0,0-.27-.72l-1.28-2-.95-1.43-.57-.84-.14-.22h0l-.54-.82,1.64-1.08.55.82.21.33.58.88q.36.57.87,1.32l1.1,1.65.58.87a10.24,10.24,0,0,0,.68.88,4.71,4.71,0,0,0,.72.7,1.17,1.17,0,0,0,.71.28Z"/><path class="cls-4" d="M323,53.06a4.51,4.51,0,0,1-1.48-.23,3.18,3.18,0,0,1-1.12-.68,3.33,3.33,0,0,1-1.09.7,3.61,3.61,0,0,1-1.24.22h-2v-2h2a1.85,1.85,0,0,0,.35,0,1.24,1.24,0,0,0,.45-.19,1.29,1.29,0,0,0,.39-.46,1.71,1.71,0,0,0,.17-.83V46.88h2v2.68a1.57,1.57,0,0,0,.38,1.17,1.69,1.69,0,0,0,1.23.37,1.85,1.85,0,0,0,.35,0,1.14,1.14,0,0,0,.45-.21,1.21,1.21,0,0,0,.39-.46,1.74,1.74,0,0,0,.17-.83V46.88h1.95v2.68a1.57,1.57,0,0,0,.39,1.18,1.75,1.75,0,0,0,1.25.38,2,2,0,0,0,.36,0,1.21,1.21,0,0,0,.44-.22,1.31,1.31,0,0,0,.38-.47,1.76,1.76,0,0,0,.16-.82,3.2,3.2,0,0,0,0-.49c0-.19-.05-.4-.08-.62S329,48,329,47.77s-.09-.45-.13-.65-.09-.4-.13-.56-.08-.28-.1-.36l1.86-.6s0,.14.07.29.09.35.14.57l.16.76c.06.27.11.55.16.83s.08.56.11.82a6.21,6.21,0,0,1,.05.69,3.85,3.85,0,0,1-.29,1.54,3.53,3.53,0,0,1-.76,1.1,2.94,2.94,0,0,1-1.05.65,3.47,3.47,0,0,1-1.18.22,4.35,4.35,0,0,1-1.49-.24,3.11,3.11,0,0,1-1.14-.69,3.15,3.15,0,0,1-1.09.69A3.52,3.52,0,0,1,323,53.06Zm2-10.15-1.43,1.46-1.44-1.44,1.44-1.45Zm1.87-2.56-1.35,1.34-1.33-1.32L325.51,39Zm2,2.53-1.42,1.43-1.48-1.41,1.46-1.46Z"/><path class="cls-4" d="M351.69,53.07a2.27,2.27,0,0,1,.48.72,1.73,1.73,0,0,1,.16.71,2.59,2.59,0,0,1-.44,1.46,3.79,3.79,0,0,1-1.21,1.1,6.13,6.13,0,0,1-1.77.71,8.88,8.88,0,0,1-2.16.25h-2.29a5.67,5.67,0,0,1-1.38-.16,5.08,5.08,0,0,1-1.23-.48,4.85,4.85,0,0,1-1.06-.75,5.37,5.37,0,0,1-.84-1,6.15,6.15,0,0,1-.87-3.29,9.35,9.35,0,0,1,.32-2.41,14.52,14.52,0,0,1,1-2.74l1.74.84c-.2.43-.37.83-.51,1.21a11.36,11.36,0,0,0-.35,1.09,8.28,8.28,0,0,0-.21,1,7.82,7.82,0,0,0-.06.95,4.25,4.25,0,0,0,.59,2.28,2.91,2.91,0,0,0,1.18,1.1,3.58,3.58,0,0,0,1.65.37h2.29a6.6,6.6,0,0,0,1.36-.14,5.15,5.15,0,0,0,1.11-.39,2.45,2.45,0,0,0,.77-.57,1.11,1.11,0,0,0,.31-.7,2.07,2.07,0,0,0-.69-.51,4.69,4.69,0,0,0-1-.34,9.62,9.62,0,0,0-1.14-.21c-.41,0-.82-.09-1.24-.11l.06-2h8.14v2Z"/><path class="cls-4" d="M364.49,49.54l-.47.31c-.28.18-.66.4-1.12.67s-1,.54-1.64.84a19.38,19.38,0,0,1-2,.83,15.55,15.55,0,0,1-2.23.63,10.68,10.68,0,0,1-2.31.25h-2.59v-2h2.59A9.8,9.8,0,0,0,356,51a12.61,12.61,0,0,0,1.34-.25q.66-.15,1.32-.36c.44-.14.86-.28,1.26-.44s.78-.31,1.14-.48.66-.33.95-.49l-4.48-1.57a3.59,3.59,0,0,0-.72-.12,1.35,1.35,0,0,0-.55.11,1.13,1.13,0,0,0-.42.37,2.92,2.92,0,0,0-.33.64l-1.81-.55a6.2,6.2,0,0,1,.51-1.15,3.38,3.38,0,0,1,.8-.92,2.66,2.66,0,0,1,1.11-.49,1.87,1.87,0,0,1,.42,0,3.5,3.5,0,0,1,1,.18l.91.3.8.29.83.31,1,.38,1.33.5c.5.19,1.09.41,1.78.65Z"/><path class="cls-4" d="M368.7,53.07h-2V40.14h2Z"/><path class="cls-4" d="M376.45,53.07h-.18a4.38,4.38,0,0,1-.75-.06,1.55,1.55,0,0,1-.71-.36,6.39,6.39,0,0,1-.44,2.17,4.62,4.62,0,0,1-1.09,1.65,4.57,4.57,0,0,1-1.67,1.05,6.13,6.13,0,0,1-2.21.37h-1.24v-2h1.24a5.79,5.79,0,0,0,1.54-.19,2.54,2.54,0,0,0,1.07-.6,2.33,2.33,0,0,0,.63-1.07,5.31,5.31,0,0,0,.21-1.6V46.88h2v2.81a1.27,1.27,0,0,0,.2.74,1.39,1.39,0,0,0,.44.43,1.54,1.54,0,0,0,.49.2l.33,0h.18Z"/><path class="cls-4" d="M376.08,53.07v-2h1.83L378,51l.15-.21.22-.33.34-.55V40.15h2v7a8,8,0,0,1,.77-.77,6,6,0,0,1,.85-.6,4.62,4.62,0,0,1,.94-.41,3.75,3.75,0,0,1,1-.14,3.91,3.91,0,0,1,1.34.24,3.33,3.33,0,0,1,1.17.76,3.87,3.87,0,0,1,.83,1.3,4.9,4.9,0,0,1,.32,1.88,4,4,0,0,1-.34,1.75,3.18,3.18,0,0,1-.89,1.13,3.24,3.24,0,0,1-1.22.6,5,5,0,0,1-1.31.18Zm8.18-5.89a2.25,2.25,0,0,0-1.15.35,6.17,6.17,0,0,0-1.13.92,11.18,11.18,0,0,0-1.06,1.26c-.33.47-.64.93-.92,1.4h4.36l.3-.05L385,51a2.41,2.41,0,0,0,.33-.15l.32-.24a1.5,1.5,0,0,0,.27-.29,1.28,1.28,0,0,0,.21-.38,1.45,1.45,0,0,0,.07-.49,2.83,2.83,0,0,0-.15-.95,2.14,2.14,0,0,0-.41-.69,1.68,1.68,0,0,0-.62-.44A1.9,1.9,0,0,0,384.26,47.18Z"/></g></g></svg>