<svg id="Layer_1" data-name="Layer 1" xmlns="http://www.w3.org/2000/svg" viewBox="0 0 15 15"><defs><style>.cls-1,.cls-3,.cls-4{fill:none;stroke-linecap:round;stroke-linejoin:round;}.cls-1{stroke:#7f7f7f;}.cls-1,.cls-4{stroke-width:0.65px;}.cls-2{fill:#bfbfbf;}.cls-3,.cls-4{stroke:#fff;}.cls-3{stroke-width:1.3px;}</style></defs><line class="cls-1" x1="1.79" y1="9.46" x2="1.79" y2="10.43"/><line class="cls-1" x1="2.77" y1="9.46" x2="2.77" y2="10.43"/><line class="cls-1" x1="3.75" y1="9.46" x2="3.75" y2="10.43"/><line class="cls-1" x1="4.73" y1="9.46" x2="4.73" y2="10.43"/><line class="cls-1" x1="10.27" y1="9.46" x2="10.27" y2="10.43"/><line class="cls-1" x1="11.25" y1="9.46" x2="11.25" y2="10.43"/><line class="cls-1" x1="12.23" y1="9.46" x2="12.23" y2="10.43"/><line class="cls-1" x1="13.21" y1="9.46" x2="13.21" y2="10.43"/><rect class="cls-2" y="5.22" width="15" height="4.57" rx="1.09"/><line class="cls-3" x1="2.61" y1="5.22" x2="2.61" y2="6.85"/><line class="cls-3" x1="4.89" y1="4.89" x2="4.89" y2="6.52"/><line class="cls-3" x1="7.5" y1="4.89" x2="7.5" y2="6.52"/><line class="cls-3" x1="10.11" y1="4.89" x2="10.11" y2="6.52"/><line class="cls-3" x1="12.39" y1="5.22" x2="12.39" y2="6.85"/><line class="cls-4" x1="3.42" y1="8.48" x2="11.58" y2="8.48"/></svg>