<svg id="Layer_1" data-name="Layer 1" xmlns="http://www.w3.org/2000/svg" viewBox="0 0 30 30"><defs><style>.cls-1{fill:#ffffff;}</style></defs><path class="cls-1" d="M15,7.82A7.18,7.18,0,1,0,22.18,15,7.17,7.17,0,0,0,15,7.82Zm0,11.85A4.67,4.67,0,1,1,19.67,15,4.68,4.68,0,0,1,15,19.67ZM24.15,7.53a1.68,1.68,0,1,1-1.67-1.68A1.67,1.67,0,0,1,24.15,7.53Zm4.75,1.7a8.23,8.23,0,0,0-2.26-5.87A8.29,8.29,0,0,0,20.78,1.1C18.46,1,11.54,1,9.22,1.1A8.32,8.32,0,0,0,3.36,3.35,8.29,8.29,0,0,0,1.1,9.22C1,11.53,1,18.46,1.1,20.77a8.23,8.23,0,0,0,2.26,5.87A8.31,8.31,0,0,0,9.22,28.9c2.32.13,9.24.13,11.56,0a8.25,8.25,0,0,0,5.86-2.26,8.32,8.32,0,0,0,2.26-5.87c.14-2.31.14-9.23,0-11.54Zm-3,14a4.75,4.75,0,0,1-2.66,2.67c-1.85.73-6.22.56-8.26.56s-6.41.16-8.25-.56a4.75,4.75,0,0,1-2.66-2.67C3.36,21.41,3.53,17,3.53,15s-.17-6.42.56-8.25A4.75,4.75,0,0,1,6.75,4.08C8.59,3.35,13,3.52,15,3.52s6.42-.16,8.26.56a4.78,4.78,0,0,1,2.66,2.67c.73,1.84.56,6.21.56,8.25S26.65,21.42,25.92,23.25Z"/></svg>