<svg id="Layer_1" data-name="Layer 1" xmlns="http://www.w3.org/2000/svg" viewBox="0 0 30 30"><defs><style>.cls-1{fill:#fff;}</style></defs><path class="cls-1" d="M26.6,4.29H3.4A2.68,2.68,0,0,0,.72,7V23A2.68,2.68,0,0,0,3.4,25.71H26.6A2.68,2.68,0,0,0,29.28,23V7A2.68,2.68,0,0,0,26.6,4.29ZM26.6,7V9.24c-1.25,1-3.24,2.61-7.5,5.94-.94.74-2.81,2.52-4.1,2.5s-3.16-1.76-4.1-2.5c-4.26-3.33-6.25-4.92-7.5-5.94V7ZM3.4,23V12.68c1.28,1,3.09,2.45,5.85,4.61,1.22,1,3.36,3.08,5.75,3.06s4.49-2.07,5.75-3.06c2.76-2.16,4.57-3.59,5.85-4.61V23Z"/></svg>