<svg id="Layer_1" data-name="Layer 1" xmlns="http://www.w3.org/2000/svg" viewBox="0 0 15 15"><defs><style>.cls-1{opacity:0.5;}.cls-2,.cls-3,.cls-4{fill:none;stroke:#000;stroke-linecap:round;stroke-linejoin:round;}.cls-2{stroke-width:0.81px;}.cls-3{stroke-width:0.69px;}.cls-4{stroke-width:0.54px;}</style></defs><g class="cls-1"><path class="cls-2" d="M10.83,14.09h0c-1.11.95-2,.46-3-.61l-.27-.27-4.4-4a2.77,2.77,0,0,1,.29-3.89h0a2.76,2.76,0,0,1,3.89.3l2.36,4.2a15.36,15.36,0,0,0,1.08,1.67C11.51,12.45,11.79,13.26,10.83,14.09Z"/><path class="cls-3" d="M10,.35h0a2.56,2.56,0,0,1,2.56,2.56V4.34a1.13,1.13,0,0,1-1.13,1.13H8.54A1.13,1.13,0,0,1,7.41,4.34V2.91A2.56,2.56,0,0,1,10,.35Z" transform="translate(5.41 -6.42) rotate(47.67)"/><polygon class="cls-4" points="8.18 6.58 6.19 4.59 7.21 3.83 8.94 5.56 8.18 6.58"/><line class="cls-3" x1="5.1" y1="7.35" x2="6.29" y2="8.54"/></g></svg>