<svg id="Layer_1" data-name="Layer 1" xmlns="http://www.w3.org/2000/svg" viewBox="0 0 512 512"><defs><style>.cls-1{fill:#efefef;}.cls-2{fill:#00c3ff;}.cls-3{fill:#00a4ff;}.cls-4{fill:#a4afc1;}</style></defs><path class="cls-1" d="M496.41,289.49c-53.79-82.36-48.07-166.78-74-206.47S319.22-25.12,136.65,94.14.51,343,29,386.67C162.56,591.08,591.69,435.36,496.41,289.49Z"/><circle class="cls-2" cx="213.33" cy="170.67" r="60.44"/><path class="cls-2" d="M152.89,280.89H273.78a56.9,56.9,0,0,1,56.89,56.89v49.78H96V337.78A56.89,56.89,0,0,1,152.89,280.89Z"/><path class="cls-3" d="M184.89,170.67a60.27,60.27,0,0,1,44.44-58,59.59,59.59,0,0,0-16-2.42,60.45,60.45,0,0,0,0,120.89,59.2,59.2,0,0,0,16-2.42A60.27,60.27,0,0,1,184.89,170.67Z"/><path class="cls-3" d="M184.89,280.89h-32A56.89,56.89,0,0,0,96,337.78v49.78h32V337.78A56.89,56.89,0,0,1,184.89,280.89Z"/><path class="cls-4" d="M313.64,55.54l10.05-10.06L343.8,65.59,333.75,75.65Z"/><path class="cls-4" d="M371.49,113.42l10.05-10,20.11,20.11-10,10Z"/><path class="cls-4" d="M311.15,123.46l20.11-20.11,10.06,10.06-20.11,20.11Z"/><path class="cls-4" d="M369,65.66l20.11-20.12L399.14,55.6,379,75.71Z"/><path d="M213.33,241.78a71.11,71.11,0,1,1,71.11-71.11A71.19,71.19,0,0,1,213.33,241.78Zm0-120.89a49.78,49.78,0,1,0,49.78,49.78A49.83,49.83,0,0,0,213.33,120.89Z"/><path d="M330.67,398.22H96a10.67,10.67,0,0,1-10.67-10.66V337.78a67.64,67.64,0,0,1,67.56-67.56H273.78a67.63,67.63,0,0,1,67.55,67.56v49.78A10.67,10.67,0,0,1,330.67,398.22Zm-224-21.33H320V337.78a46.27,46.27,0,0,0-46.22-46.22H152.89a46.27,46.27,0,0,0-46.22,46.22Z"/><path d="M318.79,209.78H419.15A10.26,10.26,0,0,1,429.42,220v.81a10.26,10.26,0,0,1-10.27,10.26H318.79a10.26,10.26,0,0,1-10.26-10.26V220A10.26,10.26,0,0,1,318.79,209.78Z"/><path d="M358.3,270.63V170.26A10.27,10.27,0,0,1,368.57,160h.8a10.27,10.27,0,0,1,10.27,10.26V270.63a10.27,10.27,0,0,1-10.27,10.26h-.8A10.27,10.27,0,0,1,358.3,270.63Z"/></svg>