<svg xmlns="http://www.w3.org/2000/svg" viewBox="0 0 467.5 177.51"><defs><style>.cls-1{fill:#39f;}</style></defs><g id="Layer_2" data-name="Layer 2"><g id="Layer_1-2" data-name="Layer 1"><path class="cls-1" d="M103.9,68.46q2.68,0,6.46-.34-2.64-.86-5.82-2.13l-3-1.35,6-21.37a30.86,30.86,0,0,0,6.19,2.29,27.42,27.42,0,0,0,7.2,1h17.84V73.05H134a36.71,36.71,0,0,1-1.32,8.3,21.77,21.77,0,0,1-3.31,6.73,18.58,18.58,0,0,1-5.71,5.14,29.32,29.32,0,0,1-8.63,3.17,56.58,56.58,0,0,1-12,1.13,27.53,27.53,0,0,1-11.51-2.28,21.17,21.17,0,0,1-8.18-6.37,28.62,28.62,0,0,1-4.77-9.62A43.38,43.38,0,0,1,77,67a52.65,52.65,0,0,1,3.48-19l.56-1.45H92.77l-.38,2.72a31,31,0,0,0-.34,4.33,17.63,17.63,0,0,0,3,10.62A10.17,10.17,0,0,0,103.9,68.46Z" transform="translate(-77.01 -0.02)"/><path class="cls-1" d="M138.78,46.58H144l-1.27-24.89L163.25,9.11v27.7L171.06,31a24,24,0,0,1,5.57-3,16.85,16.85,0,0,1,6.07-1.23,14.68,14.68,0,0,1,9.94,3.78,14.89,14.89,0,0,1,4.82,7.11,40.88,40.88,0,0,1,1.26,11.49V73.05H138.78q-4,0-4-9.14v-7Q134.78,46.58,138.78,46.58Zm32.58,0h13.25a7.18,7.18,0,0,0-2.08-2.49,5.5,5.5,0,0,0-3.35-.91C177.05,43.18,174.45,44.32,171.36,46.58Z" transform="translate(-77.01 -0.02)"/><path class="cls-1" d="M225.65,46.58H229V73.05H218.3q-6.33,0-10.05-3.57t-4.14-10.07L202,22.28,224.55,13V45.48A1,1,0,0,0,225.65,46.58Z" transform="translate(-77.01 -0.02)"/><path class="cls-1" d="M277.69,46.54h3.82V73.05h-4.33a9,9,0,0,1-6.63-2.76,9.06,9.06,0,0,1-7,2.76,9.68,9.68,0,0,1-7.22-2.76,10.55,10.55,0,0,1-14.23,0,9,9,0,0,1-6.63,2.76H229q-4,0-4-9.15V56.84q0-10.31,4-10.3h6a1.59,1.59,0,0,0,.95-.4,1.21,1.21,0,0,0,.4-1v-8h11.52v8.11a1.2,1.2,0,0,0,.38.91,1.33,1.33,0,0,0,1,.37,1.28,1.28,0,0,0,.93-.38,1.3,1.3,0,0,0,.38-1v-8H262.1v8.07a1.28,1.28,0,0,0,.38,1,1.3,1.3,0,0,0,.94.37,1.35,1.35,0,0,0,1-.36,1.39,1.39,0,0,0,.43-1V37.15h11.51v8.07a1.27,1.27,0,0,0,.38,1A1.38,1.38,0,0,0,277.69,46.54Z" transform="translate(-77.01 -0.02)"/><path class="cls-1" d="M281.51,73.05q-4,0-4-9.14v-7q0-10.28,4-10.28h3.06q-.17-3.13-.17-12.11A15.86,15.86,0,0,1,288,23.83q3.54-4.18,10-4.18A13.92,13.92,0,0,1,306,22.22a19.7,19.7,0,0,1,6,6.69,39.57,39.57,0,0,1,4.91,18.86l0,25.28ZM304.66,0l7.44,7.39-7.44,7.44-6.92-7-7,7-7.39-7.44L290.77,0l7,7Zm-5.6,38.15a2.13,2.13,0,0,0-1.34.4,1.33,1.33,0,0,0-.53,1.13c0,.57.62.85,1.87.85a17.16,17.16,0,0,0,2.59-.17C301,38.91,300.1,38.17,299.06,38.17Z" transform="translate(-77.01 -0.02)"/><path class="cls-1" d="M342.17,13.32l5.23,18.86-4.59,2.68V64.17l-19.62,8.88-3-50.77Z" transform="translate(-77.01 -0.02)"/><path class="cls-1" d="M385.72,75.47q-6.12,0-9.58-3.38t-3.47-9.32V44.07H382l.13,2.3a3,3,0,0,0,1.46,2.7,6.49,6.49,0,0,0,3.59,1,13.74,13.74,0,0,0,9.52-3.27l-5.19-18.9,15.81-9.43L413.07,43a8.51,8.51,0,0,0,.87,2.4c.44.81.95,1.21,1.51,1.21h3.32l-.13,26.47H410.4a6.92,6.92,0,0,1-4.51-1.79,13.44,13.44,0,0,1-3.35-4.2,21.46,21.46,0,0,1-7,6.35A20.67,20.67,0,0,1,385.72,75.47Z" transform="translate(-77.01 -0.02)"/><path class="cls-1" d="M418.77,73.05q-4,0-4-9.14v-7q0-10.28,4-10.28h10.62l-1.49-9.94,16.57-6.5V59.41q0,6.68-3.49,10.15t-10.15,3.49ZM437,77.8l7.44,7.4L437,92.63l-6.92-7-7,7-7.39-7.43,7.39-7.4,7,7Z" transform="translate(-77.01 -0.02)"/><path class="cls-1" d="M482.66,46.58h7.22V73.05H487.2a9,9,0,0,1-4.67-1.28q-3.31,19.59-19.2,26.72L442.94,77.21a50.06,50.06,0,0,0,7.37-2.66,52.37,52.37,0,0,0,7-3.82,28.51,28.51,0,0,0,5.92-5.08,17,17,0,0,0,3.57-6A74.27,74.27,0,0,0,462.05,49l13.26-17.12a39.51,39.51,0,0,1,5.94,13.59A1.35,1.35,0,0,0,482.66,46.58Z" transform="translate(-77.01 -0.02)"/><path class="cls-1" d="M517.62,46.58a19.67,19.67,0,0,1-4.5-1.78q-4.85-2.47-8.12-2.47a11.59,11.59,0,0,0-2.25.22l-.93,3.1-8.67-2.3L497.48,26a32.83,32.83,0,0,1,6.29-.72,29.79,29.79,0,0,1,12.4,2.37q4.64,2.09,7.42,3.23a54.73,54.73,0,0,0,7.11,2.28,31.54,31.54,0,0,0,7.86,1.12h6l-5.27,15a17.48,17.48,0,0,0-8.11,1.7q-3.15,5.24-6,10.56a31.1,31.1,0,0,1-3.18,5.32,15,15,0,0,1-4,3.46A16.45,16.45,0,0,1,512,72.45a52.59,52.59,0,0,1-8.73.6H489.88q-4,0-4-9.14v-7q0-10.28,4-10.28ZM500.37,11.45,507.76,4l7.39,7.43-7.39,7.39Z" transform="translate(-77.01 -0.02)"/><path d="M366.52,159.63a8.36,8.36,0,0,0,.38,2.69,3.85,3.85,0,0,0,1.33,1.88,3.65,3.65,0,0,0,2.34.73c1.87,0,3-.68,3.47-2a11.75,11.75,0,0,0-2.06-4.18l-.44-.59,5.24-6,.65,1.07a16.76,16.76,0,0,1,1.66,3.8.77.77,0,0,0,.73.33h2.74v9.43h-1.32a3.31,3.31,0,0,1-1.36-.28,8.89,8.89,0,0,1-9.46,9,10,10,0,0,1-4.09-.79,7.49,7.49,0,0,1-2.91-2.24,10.4,10.4,0,0,1-1.71-3.39,14.93,14.93,0,0,1-.58-4.31,19.07,19.07,0,0,1,1.24-6.9l.19-.52h4.18l-.13,1A10.21,10.21,0,0,0,366.52,159.63Zm.19-5.06,2.64-2.64,2.63,2.64-2.63,2.64Z" transform="translate(-77.01 -0.02)"/><path d="M382.56,166.71c-.95,0-1.42-1.08-1.42-3.25V161c0-2.44.47-3.67,1.42-3.67h.32a2.51,2.51,0,0,0,1-.2,2.35,2.35,0,0,0,.82-.64,6.31,6.31,0,0,0,.58-.81c.15-.24.33-.57.56-1s.57-1,.83-1.44a9.08,9.08,0,0,1,1-1.2,4.14,4.14,0,0,1,1.36-.92,4.37,4.37,0,0,1,1.68-.32,4.92,4.92,0,0,1,2.56.68,5.26,5.26,0,0,1,1.8,1.83,9.62,9.62,0,0,1,1,2.55,11.76,11.76,0,0,1,.36,2.93,6.48,6.48,0,0,1-.52,2.06l-2.86,7.37a13.58,13.58,0,0,1-3.65-1.06,9,9,0,0,1-2.77-1.87,3.73,3.73,0,0,1-1.06,1,2.46,2.46,0,0,1-1.37.43Zm9.37-8.68c-.23-1-.58-1.5-1-1.5a1.46,1.46,0,0,0-1,.28A7.24,7.24,0,0,0,391.93,158Z" transform="translate(-77.01 -0.02)"/><path d="M406.07,157.28h1.18v9.43h-3.8a4.94,4.94,0,0,1-3.58-1.27,5.23,5.23,0,0,1-1.48-3.58l-.77-13.23,8.05-3.3v11.56A.35.35,0,0,0,406.07,157.28Z" transform="translate(-77.01 -0.02)"/><path d="M428.89,166.71H407.25c-.95,0-1.42-1.08-1.42-3.26v-2.51c0-2.45.47-3.67,1.42-3.67h3.59l-.35-2.68,5.63-3.16v2.46l2.89-2.16a7.81,7.81,0,0,1,1.93-1,6.33,6.33,0,0,1,2.28-.47,5.26,5.26,0,0,1,3.51,1.36,5.33,5.33,0,0,1,1.72,2.54,14.5,14.5,0,0,1,.44,4.08Zm-5-9.44a2,2,0,0,0-1.92-1.2,5.05,5.05,0,0,0-2.8,1.2Zm-3.27-11.6,2.64-2.64,2.63,2.64-2.63,2.64Z" transform="translate(-77.01 -0.02)"/><path d="M444.94,159.63a8.64,8.64,0,0,0,.38,2.69,3.85,3.85,0,0,0,1.33,1.88,3.68,3.68,0,0,0,2.35.73c1.86,0,3-.68,3.46-2a11.75,11.75,0,0,0-2.06-4.18l-.44-.59,5.24-6,.65,1.07a18.17,18.17,0,0,1,1.76,4.09,16.13,16.13,0,0,1,.71,4.66v3.88a9.61,9.61,0,0,1-2.58,7,9.2,9.2,0,0,1-6.9,2.63,9.93,9.93,0,0,1-4.08-.79,7.6,7.6,0,0,1-2.92-2.24,10.4,10.4,0,0,1-1.71-3.39,14.93,14.93,0,0,1-.58-4.31,19.07,19.07,0,0,1,1.24-6.9l.2-.52h4.18l-.14,1A10.21,10.21,0,0,0,444.94,159.63Zm.2-5.06,2.63-2.64,2.63,2.64-2.63,2.64Z" transform="translate(-77.01 -0.02)"/><path d="M461.17,156.48a5.59,5.59,0,0,1,1.27-3.79,4.52,4.52,0,0,1,3.58-1.48,5.34,5.34,0,0,1,3.77,1.56,8.42,8.42,0,0,1,1.23,1.62,11.1,11.1,0,0,1,.87,1.86,16.49,16.49,0,0,1,.54,1.91,17.05,17.05,0,0,1,.31,1.7c.05.49.08.93.08,1.3v2.54a14.11,14.11,0,0,1-1.9,7.47,11.43,11.43,0,0,1-5.11,4.61l-7.29-7.58a19.39,19.39,0,0,0,4.64-2.15,5.32,5.32,0,0,1-1.43-2,6.34,6.34,0,0,1-.56-2.68Zm4.49.52c0,.21.3.31.89.31H467a1.65,1.65,0,0,0-.3-.58.71.71,0,0,0-.53-.2.53.53,0,0,0-.38.13A.48.48,0,0,0,465.66,157Z" transform="translate(-77.01 -0.02)"/><path d="M478.6,167.58a4.64,4.64,0,0,1-3.41-1.21,4.43,4.43,0,0,1-1.23-3.32v-6.66h3.31l.05.82a1.08,1.08,0,0,0,.52,1,2.26,2.26,0,0,0,1.28.34,4.89,4.89,0,0,0,3.39-1.17l-1.85-6.73,5.63-3.36,2.06,8.75a2.75,2.75,0,0,0,.31.85c.16.29.34.43.54.43h1.18l-.05,9.43H487.4a2.49,2.49,0,0,1-1.61-.63,4.79,4.79,0,0,1-1.19-1.5,7.59,7.59,0,0,1-2.48,2.26A7.33,7.33,0,0,1,478.6,167.58Z" transform="translate(-77.01 -0.02)"/><path d="M490.38,166.71c-.95,0-1.42-1.08-1.42-3.25V161c0-2.44.47-3.67,1.42-3.67h3.78l-.53-3.54,5.91-2.31v15.28Zm1.39,4.35,2.64-2.65,2.63,2.65-2.63,2.63Z" transform="translate(-77.01 -0.02)"/><path d="M519.14,165.56a3.92,3.92,0,0,1-5.55,0,3.81,3.81,0,0,1-1.16-2.77,3.71,3.71,0,0,1,1.16-2.74,3.92,3.92,0,0,1,5.55,0,3.7,3.7,0,0,1,1.15,2.74A3.75,3.75,0,0,1,519.14,165.56Z" transform="translate(-77.01 -0.02)"/><path d="M106.08,156.81a.41.41,0,0,0,.47.46h2.71v9.44h-2.89a3.13,3.13,0,0,1-2.35-1,3.19,3.19,0,0,1-2.36,1H93.15a9.09,9.09,0,0,1-6.3-2.08,7.66,7.66,0,0,1-2.32-6,12.39,12.39,0,0,1,3.55-8.84l.62-.62,2.65,2.51-.6.68a3.59,3.59,0,0,0-1,2.41,2.79,2.79,0,0,0,.23,1.18,2.15,2.15,0,0,0,.6.77,2.86,2.86,0,0,0,1,.43,4.49,4.49,0,0,0,1.12.15h8.81a.42.42,0,0,0,.46-.44v-2.89h4.11Zm-6.49-9.65,2.65,2.63-2.65,2.65L97.12,150l-2.48,2.48L92,149.79l2.64-2.63,2.48,2.48Z" transform="translate(-77.01 -0.02)"/><path d="M119.14,157.28a7.09,7.09,0,0,1-1.6-.63,6.64,6.64,0,0,0-2.89-.88,4.43,4.43,0,0,0-.8.08l-.34,1.1-3.08-.82,1.54-6.19a11.67,11.67,0,0,1,2.24-.25,10.66,10.66,0,0,1,4.42.84c1.1.5,2,.88,2.64,1.15a17.88,17.88,0,0,0,2.54.81,11.1,11.1,0,0,0,2.8.4h2.12l-1.88,5.36a6.24,6.24,0,0,0-2.89.61c-.75,1.24-1.47,2.5-2.15,3.76a10.65,10.65,0,0,1-1.14,1.9,5.34,5.34,0,0,1-1.41,1.23,5.78,5.78,0,0,1-2.11.75,19,19,0,0,1-3.11.21h-4.78c-1,0-1.42-1.08-1.42-3.25V161c0-2.44.47-3.67,1.42-3.67ZM113,144.77l2.63-2.65,2.64,2.65-2.64,2.63Z" transform="translate(-77.01 -0.02)"/><path d="M137.69,145.43l1.86,6.72-1.64,1v10.44l-7,3.16-1.06-18.08Z" transform="translate(-77.01 -0.02)"/><path d="M142.7,166.71a3.77,3.77,0,0,1-2.78-.88,4.53,4.53,0,0,1-.87-3.19v-6.82h3.36v.56c0,.58.26.87.79.87h3.19a11.46,11.46,0,0,0-3.56-4.05l3.32-5.89a7.9,7.9,0,0,1,4.41,3.86,14.41,14.41,0,0,1,1.58,7.05V163c0,2.5-1.27,3.75-3.83,3.75Z" transform="translate(-77.01 -0.02)"/><path d="M162.53,157.28h2.57v9.43h-.95a3.27,3.27,0,0,1-1.67-.45q-1.18,7-6.84,9.52l-7.27-7.58a17.26,17.26,0,0,0,2.63-.95,18.92,18.92,0,0,0,2.5-1.36,10.24,10.24,0,0,0,2.11-1.81,6.16,6.16,0,0,0,1.27-2.15,26.75,26.75,0,0,0-1.69-3.8l4.72-6.1a14.2,14.2,0,0,1,2.12,4.85A.47.47,0,0,0,162.53,157.28Z" transform="translate(-77.01 -0.02)"/><path d="M165.1,166.71c-.95,0-1.42-1.08-1.42-3.25V161c0-2.44.47-3.67,1.42-3.67h3.78l-.53-3.54,5.91-2.31v15.28Zm6.51,7-2.47-2.46-2.48,2.46L164,171.06l2.62-2.65,2.48,2.48,2.47-2.48,2.65,2.65Zm-2.45,3.85-2.65-2.65,2.65-2.65,2.63,2.65Z" transform="translate(-77.01 -0.02)"/><path d="M214.11,156.81a.46.46,0,0,0,.14.34.48.48,0,0,0,.35.13H217v9.43h-2.58a3,3,0,0,1-2.35-1,3.29,3.29,0,0,1-2.51,1,3.39,3.39,0,0,1-2.58-1,3.05,3.05,0,0,1-2.34,1h-.76a8.82,8.82,0,0,1-9.46,8.71,9.19,9.19,0,0,1-5.11-1.38,8.31,8.31,0,0,1-3.16-3.74,13.54,13.54,0,0,1-1-5.49,20.87,20.87,0,0,1,1.45-7.53h4.21a13.22,13.22,0,0,0-.21,2.37,8.68,8.68,0,0,0,.22,2,5.58,5.58,0,0,0,.68,1.66,3.16,3.16,0,0,0,1.26,1.14,4,4,0,0,0,1.85.41,4.82,4.82,0,0,0,2.32-.51,2.17,2.17,0,0,0,1.15-1.51,12.34,12.34,0,0,0-2.5-4.78l5.24-6,2.21,3.66c.62,1,1.12,1.57,1.48,1.57a.48.48,0,0,0,.33-.12.51.51,0,0,0,.12-.35v-2.92H209v2.91a.48.48,0,0,0,.15.34.45.45,0,0,0,.32.14.48.48,0,0,0,.35-.13.5.5,0,0,0,.15-.32v-2.94h4.1Zm-4.86-10.12,2.65,2.63L209.25,152l-2.48-2.47L204.3,152l-2.63-2.64,2.63-2.63,2.47,2.48Zm-2.46,1.45-2.64-2.65,2.64-2.65,2.63,2.65Z" transform="translate(-77.01 -0.02)"/><path d="M222.2,168.41l2.64,2.63-2.64,2.65-2.47-2.48-2.48,2.48L214.61,171l2.64-2.63,2.48,2.48Zm-5.2-1.7c-.94,0-1.42-1.08-1.42-3.25V161c0-2.44.48-3.67,1.42-3.67h2.36a.52.52,0,0,0,.33-.13.42.42,0,0,0,.13-.34v-2.87h4.12v2.86a.46.46,0,0,0,.13.35.45.45,0,0,0,.34.13h2.34v9.43h-2.51a3.19,3.19,0,0,1-2.36-1,3.22,3.22,0,0,1-2.36,1Z" transform="translate(-77.01 -0.02)"/><path d="M226.75,166.71c-.95,0-1.42-1.08-1.42-3.25V161c0-2.44.47-3.67,1.42-3.67h3.79l-.53-3.54,5.9-2.31v15.28Zm6.51,7-2.47-2.46-2.48,2.46-2.62-2.63,2.62-2.65,2.48,2.48,2.47-2.48,2.65,2.65Zm-2.45,3.85-2.65-2.65,2.65-2.65,2.63,2.65Z" transform="translate(-77.01 -0.02)"/><path d="M251.94,159.63a8.64,8.64,0,0,0,.38,2.69,3.85,3.85,0,0,0,1.33,1.88,3.68,3.68,0,0,0,2.35.73c1.86,0,3-.68,3.46-2a11.75,11.75,0,0,0-2.06-4.18l-.44-.59,5.24-6,.65,1.07a18.17,18.17,0,0,1,1.76,4.09,16.13,16.13,0,0,1,.71,4.66v3.88a9.61,9.61,0,0,1-2.58,7,9.2,9.2,0,0,1-6.9,2.63,9.93,9.93,0,0,1-4.08-.79,7.6,7.6,0,0,1-2.92-2.24,10.4,10.4,0,0,1-1.71-3.39,14.93,14.93,0,0,1-.58-4.31,19.07,19.07,0,0,1,1.24-6.9l.2-.52h4.18l-.14,1A10.21,10.21,0,0,0,251.94,159.63Zm.2-5.06,2.63-2.64,2.63,2.64-2.63,2.64Z" transform="translate(-77.01 -0.02)"/><path d="M268.17,156.48a5.59,5.59,0,0,1,1.27-3.79,4.52,4.52,0,0,1,3.58-1.48,5.34,5.34,0,0,1,3.77,1.56,8.42,8.42,0,0,1,1.23,1.62,11.1,11.1,0,0,1,.87,1.86,16.49,16.49,0,0,1,.54,1.91,17.05,17.05,0,0,1,.31,1.7c.05.49.08.93.08,1.3v2.54a14.11,14.11,0,0,1-1.9,7.47,11.43,11.43,0,0,1-5.11,4.61l-7.29-7.58a19.39,19.39,0,0,0,4.64-2.15,5.32,5.32,0,0,1-1.43-2,6.34,6.34,0,0,1-.56-2.68Zm4.49.52c0,.21.3.31.89.31H274a1.65,1.65,0,0,0-.3-.58.71.71,0,0,0-.53-.2.53.53,0,0,0-.38.13A.48.48,0,0,0,272.66,157Z" transform="translate(-77.01 -0.02)"/><path d="M285.6,167.58a4.64,4.64,0,0,1-3.41-1.21,4.43,4.43,0,0,1-1.23-3.32v-6.66h3.31l.05.82a1.08,1.08,0,0,0,.52,1,2.26,2.26,0,0,0,1.28.34,4.89,4.89,0,0,0,3.39-1.17l-1.85-6.73,5.63-3.36,2.06,8.75a2.75,2.75,0,0,0,.31.85c.16.29.34.43.54.43h1.18l-.05,9.43H294.4a2.49,2.49,0,0,1-1.61-.63,4.79,4.79,0,0,1-1.19-1.5,7.59,7.59,0,0,1-2.48,2.26A7.33,7.33,0,0,1,285.6,167.58Z" transform="translate(-77.01 -0.02)"/><path d="M297.38,166.71c-.95,0-1.42-1.08-1.42-3.25V161c0-2.44.47-3.67,1.42-3.67h3.78l-.53-3.54,5.91-2.31v15.28Zm1.39,4.35,2.64-2.65,2.63,2.65-2.63,2.63Z" transform="translate(-77.01 -0.02)"/><path d="M326.14,165.56a3.92,3.92,0,0,1-5.55,0,3.81,3.81,0,0,1-1.16-2.77,3.71,3.71,0,0,1,1.16-2.74,3.92,3.92,0,0,1,5.55,0,3.7,3.7,0,0,1,1.15,2.74A3.75,3.75,0,0,1,326.14,165.56Z" transform="translate(-77.01 -0.02)"/></g></g></svg>