<svg id="Layer_1" data-name="Layer 1" xmlns="http://www.w3.org/2000/svg" viewBox="0 0 25 6"><defs><style>.cls-1,.cls-2,.cls-3,.cls-6,.cls-7{fill:none;stroke-linecap:round;stroke-linejoin:round;}.cls-1,.cls-2,.cls-3,.cls-6{stroke:#939393;}.cls-1{stroke-width:0.46px;}.cls-1,.cls-2,.cls-3,.cls-4,.cls-7{opacity:0.29;}.cls-2{stroke-width:0.25px;}.cls-3{stroke-width:0.15px;}.cls-5{fill:#939393;}.cls-6{stroke-width:0.17px;}.cls-7{stroke:#236fad;stroke-width:0.07px;}</style></defs><polygon class="cls-1" points="19.52 5.55 19.12 5.41 18.71 5.27 19.04 4.99 19.36 4.71 19.45 5.13 19.52 5.55"/><circle class="cls-1" cx="19.82" cy="2.25" r="0.87"/><polygon class="cls-2" points="2.21 5.33 1.37 5.03 0.52 4.73 1.2 4.15 1.88 3.57 2.05 4.45 2.21 5.33"/><line class="cls-2" x1="12.81" y1="3.51" x2="14.01" y2="3.5"/><line class="cls-2" x1="9.65" y1="3.77" x2="10.78" y2="4.17"/><line class="cls-2" x1="21.97" y1="4.92" x2="24.48" y2="4.9"/><line class="cls-2" x1="2.92" y1="0.35" x2="3.8" y2="0.34"/><circle class="cls-3" cx="7.18" cy="3.12" r="0.28"/><g class="cls-4"><path class="cls-5" d="M15.17.84l0-.1s0-.06.06-.07.06,0,.07.07a.85.85,0,0,0,.19.3.24.24,0,0,0,.16.07A.2.2,0,0,0,15.82,1a3.18,3.18,0,0,0,.09-.33s0-.11.08-.1.06.05.07.07l.06.12a.06.06,0,1,0,.1-.06c-.06-.11-.15-.33-.32-.23s-.11.21-.14.31a.84.84,0,0,1,0,.17s0,0-.05,0a.24.24,0,0,1-.09-.08c-.09-.09-.1-.23-.19-.32a.14.14,0,0,0-.18,0,.42.42,0,0,0-.13.21c0,.07.07.13.1.06Z"/></g><path class="cls-6" d="M6.17,4.94a.24.24,0,0,1,.31-.08.22.22,0,0,1,.08.31"/><path class="cls-3" d="M16.81,3.51a.22.22,0,0,1,.31-.08.24.24,0,0,1,.08.31"/><polygon class="cls-7" points="15.37 5.18 15.35 5.36 15.42 5.52 15.24 5.56 15.1 5.67 15.01 5.52 14.85 5.43 14.98 5.3 15.02 5.13 15.19 5.2 15.37 5.18"/><polygon class="cls-7" points="1.48 1.32 1.46 1.5 1.53 1.66 1.35 1.7 1.21 1.82 1.12 1.66 0.97 1.57 1.09 1.44 1.13 1.27 1.3 1.34 1.48 1.32"/></svg>