<svg id="Layer_1" data-name="Layer 1" xmlns="http://www.w3.org/2000/svg" viewBox="0 0 15 15"><defs><style>.cls-1{opacity:0.5;}.cls-2{fill:none;stroke:#515151;stroke-miterlimit:10;stroke-width:0.79px;}</style></defs><g class="cls-1"><rect class="cls-2" x="0.39" y="0.39" width="14.21" height="14.21" rx="1.97"/><path d="M3.34,9.68a1.25,1.25,0,0,1-.61-.15,1.23,1.23,0,0,1-.44-.41,1.54,1.54,0,0,1-.2-.77,2,2,0,0,1,0-.21,1.55,1.55,0,0,1,.09-.44,2.68,2.68,0,0,1,.22-.57l.36.17a4.32,4.32,0,0,0-.19.48,2.47,2.47,0,0,0-.08.43.66.66,0,0,0,0,.14,1.39,1.39,0,0,0,0,.27.77.77,0,0,0,.12.28.69.69,0,0,0,.29.27.8.8,0,0,0,.41.1h.5a1.53,1.53,0,0,0,.41,0,.7.7,0,0,0,.24-.15.46.46,0,0,0,.12-.23,1.39,1.39,0,0,0,0-.3V7h.41V8.54a1.11,1.11,0,0,1-.3.85,1.27,1.27,0,0,1-.91.29Zm0-2.82.36-.37.38.37-.37.37Z"/><path d="M6.68,8.48a1.9,1.9,0,0,1-.37,0,1.23,1.23,0,0,1-.25-.08.44.44,0,0,1-.16-.14A.57.57,0,0,1,5.8,8a1,1,0,0,1,0-.25,3,3,0,0,1,0-.31V5.41h.4V7.48c0,.13,0,.23,0,.31A.36.36,0,0,0,6.23,8a.22.22,0,0,0,.15.08,1.15,1.15,0,0,0,.3,0Z"/><path d="M8,6.69a.68.68,0,0,1,.36.08A.67.67,0,0,1,8.62,7a1.14,1.14,0,0,1,.16.31,1.5,1.5,0,0,1,.05.37,1.79,1.79,0,0,1,0,.36.73.73,0,0,1-.09.25.59.59,0,0,1-.13.17.6.6,0,0,1-.15.09l-.14.05H8.16l-.2,0-.2-.07-.21-.09L7.3,8.27a.55.55,0,0,1-.45.21H6.6v-.4h.25A.16.16,0,0,0,7,8a.42.42,0,0,0,.09-.16c0-.07,0-.14.08-.22a2.5,2.5,0,0,1,.07-.26,1.86,1.86,0,0,1,.1-.25.91.91,0,0,1,.15-.23.8.8,0,0,1,.21-.15A.76.76,0,0,1,8,6.69Zm.16,1.49h0l.06,0,.06-.05L8.38,8a1.55,1.55,0,0,0,0-.15,1.27,1.27,0,0,0,0-.22.56.56,0,0,1,0-.07.5.5,0,0,0,0-.12.65.65,0,0,0,0-.13.5.5,0,0,0-.08-.12.27.27,0,0,0-.12-.09.33.33,0,0,0-.17,0,.35.35,0,0,0-.16,0,.4.4,0,0,0-.19.23l-.06.17a1.33,1.33,0,0,1,0,.19l-.06.2L7.69,8l.17.08L8,8.16Z"/><path d="M9.55,9.27a2.79,2.79,0,0,0,.55,0,1,1,0,0,0,.35-.16.58.58,0,0,0,.17-.23,1.13,1.13,0,0,0,.05-.35h-.4a1,1,0,0,1-.3,0,.69.69,0,0,1-.28-.15A.71.71,0,0,1,9.48,8a1,1,0,0,1-.08-.41,2.11,2.11,0,0,1,0-.26,1.18,1.18,0,0,1,.07-.2A.8.8,0,0,1,9.57,7l.09-.11a1,1,0,0,1,.27-.19.88.88,0,0,1,.33-.06.87.87,0,0,1,.28,0,.72.72,0,0,1,.24.14,1.08,1.08,0,0,1,.29.85v.41h.33v.4h-.33A1.4,1.4,0,0,1,11,9a.91.91,0,0,1-.27.37,1.36,1.36,0,0,1-.47.22,2.77,2.77,0,0,1-.69.07ZM10.23,7a.4.4,0,0,0-.33.15.66.66,0,0,0-.11.42A.44.44,0,0,0,10,8L10,8l.08,0h.53V7.67a1.06,1.06,0,0,0,0-.27.48.48,0,0,0-.06-.18.27.27,0,0,0-.08-.1l-.09-.06L10.3,7Z"/><path d="M12.81,6.73a.26.26,0,0,0,0,.07s0,.08,0,.14,0,.11,0,.18l0,.2,0,.2a1,1,0,0,1,0,.17.78.78,0,0,1-.07.35.58.58,0,0,1-.18.25.75.75,0,0,1-.24.15.84.84,0,0,1-.27,0h-.89v-.4h1L12.41,8a.4.4,0,0,0,.1-.12.41.41,0,0,0,0-.21V7.57c0-.05,0-.1,0-.16l0-.17,0-.16,0-.14a.64.64,0,0,0,0-.09Zm-.87-.46-.34-.34.34-.35.35.35Zm.83,0-.34-.34.33-.35.35.35Z"/></g></svg>