<svg id="Layer_1" data-name="Layer 1" xmlns="http://www.w3.org/2000/svg" viewBox="0 0 512 512"><defs><style>.cls-1{fill:#efefef;}.cls-2{fill:#f3f3f1;}.cls-3{fill:#d5dbe1;}.cls-4{fill:#3399ff;}.cls-5{fill:#00a4ff;}.cls-6{fill:#a4afc1;}</style></defs><path class="cls-1" d="M389.93,55.67C291.58,57.5,223.08,7.81,175.69,8.7s-146.43,30-142.35,248S171.92,504.26,224.06,503.3C468.15,498.73,564.12,52.41,389.93,55.67Z"/><path class="cls-2" d="M398.22,96h-160a28.44,28.44,0,0,0-28.44,28.44V344.89a28.44,28.44,0,0,0,28.44,28.44h160Z"/><path class="cls-3" d="M241.78,344.89V124.44A28.44,28.44,0,0,1,270.22,96h-32a28.44,28.44,0,0,0-28.44,28.44V344.89a28.44,28.44,0,0,0,28.44,28.44h32A28.44,28.44,0,0,1,241.78,344.89Z"/><path class="cls-4" d="M295.11,142.22v256A17.79,17.79,0,0,0,312.89,416a19,19,0,0,0,5.69-.85l85.33-28.45A18,18,0,0,0,416,369.78v-256A17.78,17.78,0,0,0,398.22,96a19,19,0,0,0-5.69.85L307.2,125.3A18,18,0,0,0,295.11,142.22Z"/><path class="cls-5" d="M327.11,394.67v-256a18,18,0,0,1,12.09-16.93L407.48,99a17.11,17.11,0,0,0-9.26-3,19,19,0,0,0-5.69.85L307.2,125.3a18,18,0,0,0-12.09,16.92v256A17.79,17.79,0,0,0,312.89,416a19,19,0,0,0,5.69-.85l17.05-5.69A17.48,17.48,0,0,1,327.11,394.67Z"/><path class="cls-6" d="M150.49,51.4l10.06-10.06,20.11,20.11L170.6,71.51Z"/><path class="cls-6" d="M148,119.28l20.11-20.11,10,10L158,129.33Z"/><path class="cls-6" d="M205.81,61.47l20.11-20.11L236,51.42,215.86,71.53Z"/><path class="cls-6" d="M421.26,458.67a21.34,21.34,0,1,1,21.34-21.34A21.36,21.36,0,0,1,421.26,458.67Zm0-28.45a7.11,7.11,0,1,0,7.11,7.11A7.13,7.13,0,0,0,421.26,430.22Z"/><path d="M96,224H231.11v21.33H96Z"/><path d="M185.32,295.54l-15.08-15.08L216,234.67l-45.8-45.8,15.09-15.09,53.33,53.33a10.66,10.66,0,0,1,0,15.09Z"/><path d="M312.89,426.67a28.48,28.48,0,0,1-28.45-28.45v-256a28.61,28.61,0,0,1,19.26-27l85.46-28.5c19.29-5.89,37.51,8.33,37.51,27.05v256a28.64,28.64,0,0,1-19.25,27L322,425.27A29.81,29.81,0,0,1,312.89,426.67Zm85.33-320a8.59,8.59,0,0,0-2.57.37l-85.08,28.37a7.36,7.36,0,0,0-4.79,6.81v256c0,4.84,5.1,8.09,9.68,6.74l85.08-28.37a7.36,7.36,0,0,0,4.79-6.81v-256A7.13,7.13,0,0,0,398.22,106.67Z"/><path d="M220.44,145.78H199.11V124.44a39.15,39.15,0,0,1,39.11-39.11h160v21.34h-160a17.8,17.8,0,0,0-17.78,17.77Z"/><path d="M295.11,384H238.22a39.15,39.15,0,0,1-39.11-39.11V323.56h21.33v21.33a17.81,17.81,0,0,0,17.78,17.78h56.89Z"/></svg>