<svg id="Layer_1" data-name="Layer 1" xmlns="http://www.w3.org/2000/svg" viewBox="0 0 15 15"><defs><style>.cls-1{fill:none;stroke:#515151;stroke-linecap:round;stroke-linejoin:round;stroke-width:0.81px;}.cls-2{fill:#bfbfbf;}</style></defs><line class="cls-1" x1="12.36" y1="2.64" x2="13.99" y2="2.64"/><line class="cls-1" x1="12.36" y1="4.26" x2="13.99" y2="4.26"/><line class="cls-1" x1="12.36" y1="5.88" x2="13.99" y2="5.88"/><line class="cls-1" x1="12.36" y1="7.5" x2="13.99" y2="7.5"/><line class="cls-1" x1="12.36" y1="9.12" x2="13.99" y2="9.12"/><line class="cls-1" x1="12.36" y1="10.74" x2="13.99" y2="10.74"/><line class="cls-1" x1="12.36" y1="12.36" x2="13.99" y2="12.36"/><line class="cls-1" x1="1.01" y1="2.64" x2="2.64" y2="2.64"/><line class="cls-1" x1="1.01" y1="4.26" x2="2.64" y2="4.26"/><line class="cls-1" x1="1.01" y1="5.88" x2="2.64" y2="5.88"/><line class="cls-1" x1="1.01" y1="7.5" x2="2.64" y2="7.5"/><line class="cls-1" x1="1.01" y1="9.12" x2="2.64" y2="9.12"/><line class="cls-1" x1="1.01" y1="10.74" x2="2.64" y2="10.74"/><line class="cls-1" x1="1.01" y1="12.36" x2="2.64" y2="12.36"/><rect class="cls-2" x="2.64" width="9.73" height="15" rx="2.03"/></svg>