<svg xmlns="http://www.w3.org/2000/svg" xmlns:xlink="http://www.w3.org/1999/xlink" viewBox="0 0 384.79 171.93"><defs><style>.a{fill:none;}.b{isolation:isolate;}.c{clip-path:url(#a);}.d{clip-path:url(#b);}.e{fill:#ffe5d1;}.f{fill:#ffe4d0;}.g{fill:#ffe4ce;}.h{fill:#ffe3cd;}.i{fill:#ffe2cc;}.j{fill:#ffe1ca;}.k{fill:#ffe0c9;}.l{fill:#ffdfc7;}.m{fill:#ffdec5;}.n{fill:#ffddc3;}.o{fill:#ffdcc2;}.p{fill:#ffdbc0;}.q{fill:#ffdabd;}.r{fill:#ffd9bb;}.s{fill:#ffd7b9;}.t{fill:#ffd6b6;}.u{fill:#ffd4b3;}.v{fill:#ffd2af;}.w{fill:#ffcfab;}.x{fill:#ffc99f;}.y{fill:#fac59c;}.z{fill:#f5c199;}.aa{fill:#f0bd95;}.ab{fill:#ebb992;}.ac{fill:#e6b58f;}.ad{fill:#e0b18c;}.ae{fill:#dbad89;}.af{fill:#d6a986;}.ag{fill:#d1a582;}.ah{fill:#cca17f;}.ai{fill:#c79d7c;}.aj{fill:#c29979;}.ak{fill:#bd9576;}.al{fill:#b89172;}.am{fill:#b38d6f;}.an{fill:#ad896c;}.ao{fill:#a88569;}.ap{fill:#a38166;}.aq{fill:#9e7d63;}.ar{fill:#99795f;}.as{fill:#94755c;}.at{fill:#8f7159;}.au{fill:#8a6d56;}.av{fill:#856953;}.aw{clip-path:url(#c);}.ax{fill:url(#f);}.ay{fill:#d1816d;}.az{fill:url(#g);}.ba{fill:url(#h);}.bb{fill:url(#i);}.bc{fill:#eff6fd;}.bc,.bx{opacity:0.8;}.bc,.bx,.ca,.cf,.ck,.cm{mix-blend-mode:overlay;}.bd{fill:url(#j);}.be{fill:url(#k);}.bf{fill:url(#l);}.bg{fill:url(#m);}.bh{fill:url(#n);}.bi{fill:#edd3be;}.bi,.bj,.bm,.cd{mix-blend-mode:multiply;}.bk{fill:url(#o);}.bl,.bm{fill:#ddf2ff;}.bn{fill:#a85e5d;}.bo{fill:url(#p);}.bp{fill:url(#q);}.bq{fill:url(#r);}.br{fill:url(#s);}.bs{fill:url(#t);}.bt{fill:url(#u);}.bu{fill:url(#v);}.bv{fill:url(#w);}.bw{fill:url(#x);}.bx{fill:url(#y);}.by{fill:#5c322f;}.bz{fill:url(#z);}.ca,.cf,.cm{opacity:0.4;}.cb{fill:#fff;}.cc{fill:url(#aa);}.cd{fill:#b1e06c;}.ce{fill:#e7a68f;}.cf{fill:url(#ab);}.cg{fill:url(#ac);}.ch{fill:#fff159;}.ci{fill:#ffcc26;}.cj{fill:url(#ad);}.ck{opacity:0.5;}.cl{fill:url(#ae);}.cm{fill:url(#af);}</style><clipPath id="a" transform="translate(-8.64 -20.22)"><rect class="a" x="-284" y="-179.57" width="750" height="500"/></clipPath><clipPath id="b" transform="translate(-8.64 -20.22)"><path class="a" d="M216.36,150.44h0Z"/></clipPath><clipPath id="c" transform="translate(-8.64 -20.22)"><path class="a" d="M216.36,150.44Z"/></clipPath><linearGradient id="f" x1="293.93" y1="2492.05" x2="337.45" y2="2492.05" gradientTransform="matrix(0.57, 0.82, -0.82, 0.57, 2091.47, -1549.24)" gradientUnits="userSpaceOnUse"><stop offset="0" stop-color="#ffc99f"/><stop offset="1" stop-color="#e7a68f"/></linearGradient><linearGradient id="g" x1="309.36" y1="2472.06" x2="324.23" y2="2478.93" xlink:href="#f"/><linearGradient id="h" x1="303.76" y1="2457.84" x2="317.64" y2="2485.47" xlink:href="#f"/><linearGradient id="i" x1="271.47" y1="2450.56" x2="328.78" y2="2450.56" xlink:href="#f"/><linearGradient id="j" x1="277.26" y1="2446.29" x2="336.13" y2="2443.79" gradientTransform="matrix(0.57, 0.82, -0.82, 0.57, 2091.47, -1549.24)" gradientUnits="userSpaceOnUse"><stop offset="0" stop-color="#fff"/><stop offset="1" stop-color="#d1edff"/></linearGradient><linearGradient id="k" x1="309.31" y1="2419.46" x2="309.93" y2="2419.46" gradientTransform="matrix(0.57, 0.82, -0.82, 0.57, 2091.47, -1549.24)" gradientUnits="userSpaceOnUse"><stop offset="0" stop-color="#ffc9db"/><stop offset="1" stop-color="#ff9cbe"/></linearGradient><linearGradient id="l" x1="278.66" y1="2432.69" x2="318.16" y2="2440.44" xlink:href="#j"/><linearGradient id="m" x1="270.92" y1="2435.91" x2="271.32" y2="2435.91" xlink:href="#k"/><linearGradient id="n" x1="277.85" y1="2418.55" x2="303.35" y2="2436.55" xlink:href="#j"/><linearGradient id="o" x1="271.3" y1="2437.46" x2="271.33" y2="2437.46" gradientTransform="matrix(0.57, 0.82, -0.82, 0.57, 2091.47, -1549.24)" gradientUnits="userSpaceOnUse"><stop offset="0" stop-color="#ffc9db"/><stop offset="1" stop-color="#ffc9db"/></linearGradient><linearGradient id="p" x1="82.36" y1="79.45" x2="96.45" y2="79.45" gradientUnits="userSpaceOnUse"><stop offset="0" stop-color="#6cb553"/><stop offset="1" stop-color="#278c40"/></linearGradient><linearGradient id="q" x1="148.59" y1="157.54" x2="215.65" y2="112.84" xlink:href="#p"/><linearGradient id="r" x1="91" y1="130.94" x2="224.73" y2="130.94" xlink:href="#p"/><linearGradient id="s" x1="101.59" y1="81.18" x2="153.37" y2="141.29" gradientUnits="userSpaceOnUse"><stop offset="0" stop-color="#d8f7b2"/><stop offset="1" stop-color="#83e074"/></linearGradient><linearGradient id="t" x1="148.31" y1="131.94" x2="212.72" y2="105.04" xlink:href="#s"/><linearGradient id="u" x1="120.16" y1="93.38" x2="215.13" y2="165.11" xlink:href="#s"/><linearGradient id="v" x1="166.37" y1="67.47" x2="213.02" y2="67.47" gradientUnits="userSpaceOnUse"><stop offset="0" stop-color="#e6574a"/><stop offset="1" stop-color="#c9080d"/></linearGradient><linearGradient id="w" x1="148.68" y1="34.53" x2="105.87" y2="88.71" gradientUnits="userSpaceOnUse"><stop offset="0" stop-color="#ff8d6b"/><stop offset="1" stop-color="#ff4045"/></linearGradient><linearGradient id="x" x1="145.32" y1="89.62" x2="192.3" y2="146.45" gradientUnits="userSpaceOnUse"><stop offset="0" stop-color="#f05e46"/><stop offset="1" stop-color="#e0282d"/></linearGradient><linearGradient id="y" x1="105.17" y1="83.4" x2="175.33" y2="83.4" gradientUnits="userSpaceOnUse"><stop offset="0" stop-color="#fff"/><stop offset="1" stop-color="#e0282d"/></linearGradient><linearGradient id="z" x1="-68.42" y1="1746.07" x2="-25.22" y2="1864.19" gradientTransform="matrix(0.81, 0.58, -0.58, 0.81, 1150.06, -1353.35)" gradientUnits="userSpaceOnUse"><stop offset="0" stop-color="#b1e06c"/><stop offset="1" stop-color="#87d930"/></linearGradient><linearGradient id="aa" x1="-28.56" y1="1722.23" x2="-28.78" y2="1840.12" gradientTransform="matrix(0.81, 0.58, -0.58, 0.81, 1150.06, -1353.35)" gradientUnits="userSpaceOnUse"><stop offset="0" stop-color="#82de5b"/><stop offset="1" stop-color="#6db028"/></linearGradient><linearGradient id="ab" x1="-24.57" y1="1799.57" x2="-66.87" y2="1749.77" gradientTransform="matrix(0.81, 0.58, -0.58, 0.81, 1150.06, -1353.35)" gradientUnits="userSpaceOnUse"><stop offset="0" stop-color="#fff"/><stop offset="1" stop-color="#eff6fd" stop-opacity="0.1"/></linearGradient><linearGradient id="ac" x1="312.19" y1="147.61" x2="273.03" y2="183.11" gradientUnits="userSpaceOnUse"><stop offset="0" stop-color="#ffff29"/><stop offset="1" stop-color="#ffc926"/></linearGradient><linearGradient id="ad" x1="332.49" y1="38.92" x2="347.54" y2="145.07" gradientUnits="userSpaceOnUse"><stop offset="0" stop-color="#40e2ff"/><stop offset="1" stop-color="#40a9ff"/></linearGradient><linearGradient id="ae" x1="310.49" y1="41.67" x2="346.81" y2="119.93" gradientUnits="userSpaceOnUse"><stop offset="0" stop-color="#45caff"/><stop offset="1" stop-color="#2a8dde"/></linearGradient><linearGradient id="af" x1="345.06" y1="91.43" x2="301.85" y2="49.96" gradientTransform="matrix(1, 0, 0, 1, 0, 0)" xlink:href="#ab"/></defs><title>element</title><g class="b"><g class="c"><g class="b"><g class="d"><g class="b"><path class="e" d="M216.36,150.44h0" transform="translate(-8.64 -20.22)"/><path class="e" d="M216.36,150.44h0" transform="translate(-8.64 -20.22)"/><path class="f" d="M216.36,150.44h0" transform="translate(-8.64 -20.22)"/><path class="g" d="M216.36,150.44h0" transform="translate(-8.64 -20.22)"/><path class="h" d="M216.36,150.44h0" transform="translate(-8.64 -20.22)"/><path class="i" d="M216.36,150.44h0" transform="translate(-8.64 -20.22)"/><path class="j" d="M216.36,150.44h0" transform="translate(-8.64 -20.22)"/><path class="k" d="M216.36,150.44h0" transform="translate(-8.64 -20.22)"/><path class="l" d="M216.36,150.44h0" transform="translate(-8.64 -20.22)"/><path class="m" d="M216.36,150.44h0" transform="translate(-8.64 -20.22)"/><path class="n" d="M216.36,150.44h0" transform="translate(-8.64 -20.22)"/><path class="o" d="M216.36,150.44h0" transform="translate(-8.64 -20.22)"/><path class="p" d="M216.36,150.44h0" transform="translate(-8.64 -20.22)"/><path class="q" d="M216.36,150.44h0" transform="translate(-8.64 -20.22)"/><path class="r" d="M216.36,150.44h0" transform="translate(-8.64 -20.22)"/><path class="s" d="M216.36,150.44h0" transform="translate(-8.64 -20.22)"/><path class="t" d="M216.36,150.44h0" transform="translate(-8.64 -20.22)"/><path class="u" d="M216.36,150.44h0" transform="translate(-8.64 -20.22)"/><path class="v" d="M216.36,150.44h0" transform="translate(-8.64 -20.22)"/><path class="w" d="M216.36,150.44h0" transform="translate(-8.64 -20.22)"/><path class="x" d="M216.36,150.44h0" transform="translate(-8.64 -20.22)"/><path class="y" d="M216.36,150.44h0" transform="translate(-8.64 -20.22)"/><path class="z" d="M216.36,150.44h0" transform="translate(-8.64 -20.22)"/><path class="aa" d="M216.36,150.44h0" transform="translate(-8.64 -20.22)"/><path class="ab" d="M216.36,150.44h0" transform="translate(-8.64 -20.22)"/><path class="ac" d="M216.36,150.44h0" transform="translate(-8.64 -20.22)"/><path class="ad" d="M216.36,150.44h0" transform="translate(-8.64 -20.22)"/><path class="ae" d="M216.36,150.44h0" transform="translate(-8.64 -20.22)"/><path class="af" d="M216.36,150.44h0" transform="translate(-8.64 -20.22)"/><path class="ag" d="M216.36,150.44h0" transform="translate(-8.64 -20.22)"/><path class="ah" d="M216.36,150.44h0" transform="translate(-8.64 -20.22)"/><path class="ai" d="M216.36,150.44h0" transform="translate(-8.64 -20.22)"/><path class="aj" d="M216.36,150.44h0" transform="translate(-8.64 -20.22)"/><path class="ak" d="M216.36,150.44h0" transform="translate(-8.64 -20.22)"/><path class="al" d="M216.36,150.44h0" transform="translate(-8.64 -20.22)"/><path class="am" d="M216.36,150.44h0" transform="translate(-8.64 -20.22)"/><path class="an" d="M216.36,150.44h0" transform="translate(-8.64 -20.22)"/><path class="ao" d="M216.36,150.44h0" transform="translate(-8.64 -20.22)"/><path class="ap" d="M216.36,150.44h0" transform="translate(-8.64 -20.22)"/><path class="aq" d="M216.36,150.44h0" transform="translate(-8.64 -20.22)"/><path class="ar" d="M216.36,150.44h0" transform="translate(-8.64 -20.22)"/><path class="as" d="M216.36,150.44h0" transform="translate(-8.64 -20.22)"/><path class="at" d="M216.36,150.44h0" transform="translate(-8.64 -20.22)"/><path class="au" d="M216.36,150.44h0" transform="translate(-8.64 -20.22)"/><path class="av" d="M216.36,150.44h0" transform="translate(-8.64 -20.22)"/></g></g></g><g class="b"><g class="aw"><g class="b"><path class="e" d="M216.36,150.44h0" transform="translate(-8.64 -20.22)"/><path class="e" d="M216.36,150.44h0" transform="translate(-8.64 -20.22)"/><path class="f" d="M216.36,150.44h0" transform="translate(-8.64 -20.22)"/><path class="g" d="M216.36,150.44h0" transform="translate(-8.64 -20.22)"/><path class="h" d="M216.36,150.44h0" transform="translate(-8.64 -20.22)"/><path class="i" d="M216.36,150.44h0" transform="translate(-8.64 -20.22)"/><path class="j" d="M216.36,150.44h0" transform="translate(-8.64 -20.22)"/><path class="k" d="M216.36,150.44h0" transform="translate(-8.64 -20.22)"/><path class="l" d="M216.36,150.44h0" transform="translate(-8.64 -20.22)"/><path class="m" d="M216.36,150.44h0" transform="translate(-8.64 -20.22)"/><path class="n" d="M216.36,150.44h0" transform="translate(-8.64 -20.22)"/><path class="o" d="M216.36,150.44h0" transform="translate(-8.64 -20.22)"/><path class="p" d="M216.36,150.44h0" transform="translate(-8.64 -20.22)"/><path class="q" d="M216.36,150.44h0" transform="translate(-8.64 -20.22)"/><path class="r" d="M216.36,150.44h0" transform="translate(-8.64 -20.22)"/><path class="s" d="M216.36,150.44h0" transform="translate(-8.64 -20.22)"/><path class="t" d="M216.36,150.44h0" transform="translate(-8.64 -20.22)"/><path class="u" d="M216.36,150.44h0" transform="translate(-8.64 -20.22)"/><path class="v" d="M216.36,150.44h0" transform="translate(-8.64 -20.22)"/><path class="w" d="M216.36,150.44h0" transform="translate(-8.64 -20.22)"/><path class="x" d="M216.36,150.44h0" transform="translate(-8.64 -20.22)"/><path class="y" d="M216.36,150.44h0" transform="translate(-8.64 -20.22)"/><path class="z" d="M216.36,150.44h0" transform="translate(-8.64 -20.22)"/><path class="aa" d="M216.36,150.44h0" transform="translate(-8.64 -20.22)"/><path class="ab" d="M216.36,150.44h0" transform="translate(-8.64 -20.22)"/><path class="ac" d="M216.36,150.44h0" transform="translate(-8.64 -20.22)"/><path class="ad" d="M216.36,150.44h0" transform="translate(-8.64 -20.22)"/><path class="ae" d="M216.36,150.44h0" transform="translate(-8.64 -20.22)"/><path class="af" d="M216.36,150.44h0" transform="translate(-8.64 -20.22)"/><path class="ag" d="M216.36,150.44h0" transform="translate(-8.64 -20.22)"/><path class="ah" d="M216.36,150.44h0" transform="translate(-8.64 -20.22)"/><path class="ai" d="M216.36,150.44h0" transform="translate(-8.64 -20.22)"/><path class="aj" d="M216.36,150.44h0" transform="translate(-8.64 -20.22)"/><path class="ak" d="M216.36,150.44h0" transform="translate(-8.64 -20.22)"/><path class="al" d="M216.36,150.44h0" transform="translate(-8.64 -20.22)"/><path class="am" d="M216.36,150.44h0" transform="translate(-8.64 -20.22)"/><path class="an" d="M216.36,150.44h0" transform="translate(-8.64 -20.22)"/><path class="ao" d="M216.36,150.44h0" transform="translate(-8.64 -20.22)"/><path class="ap" d="M216.36,150.44h0" transform="translate(-8.64 -20.22)"/><path class="aq" d="M216.36,150.44h0" transform="translate(-8.64 -20.22)"/><path class="ar" d="M216.36,150.44h0" transform="translate(-8.64 -20.22)"/><path class="as" d="M216.36,150.44h0" transform="translate(-8.64 -20.22)"/><path class="at" d="M216.36,150.44h0" transform="translate(-8.64 -20.22)"/><path class="au" d="M216.36,150.44h0" transform="translate(-8.64 -20.22)"/><path class="av" d="M216.36,150.44h0" transform="translate(-8.64 -20.22)"/></g></g></g><g class="b"><g class="d"><g class="b"><path class="e" d="M216.36,150.44h0" transform="translate(-8.64 -20.22)"/><path class="e" d="M216.36,150.44h0" transform="translate(-8.64 -20.22)"/><path class="f" d="M216.36,150.44h0" transform="translate(-8.64 -20.22)"/><path class="g" d="M216.36,150.44h0" transform="translate(-8.64 -20.22)"/><path class="h" d="M216.36,150.44h0" transform="translate(-8.64 -20.22)"/><path class="i" d="M216.36,150.44h0" transform="translate(-8.64 -20.22)"/><path class="j" d="M216.36,150.44h0" transform="translate(-8.64 -20.22)"/><path class="k" d="M216.36,150.44h0" transform="translate(-8.64 -20.22)"/><path class="l" d="M216.36,150.44h0" transform="translate(-8.64 -20.22)"/><path class="m" d="M216.36,150.44h0" transform="translate(-8.64 -20.22)"/><path class="n" d="M216.36,150.44h0" transform="translate(-8.64 -20.22)"/><path class="o" d="M216.36,150.44h0" transform="translate(-8.64 -20.22)"/><path class="p" d="M216.36,150.44h0" transform="translate(-8.64 -20.22)"/><path class="q" d="M216.36,150.44h0" transform="translate(-8.64 -20.22)"/><path class="r" d="M216.36,150.44h0" transform="translate(-8.64 -20.22)"/><path class="s" d="M216.36,150.44h0" transform="translate(-8.64 -20.22)"/><path class="t" d="M216.36,150.44h0" transform="translate(-8.64 -20.22)"/><path class="u" d="M216.36,150.44h0" transform="translate(-8.64 -20.22)"/><path class="v" d="M216.36,150.44h0" transform="translate(-8.64 -20.22)"/><path class="w" d="M216.36,150.44h0" transform="translate(-8.64 -20.22)"/><path class="x" d="M216.36,150.44h0" transform="translate(-8.64 -20.22)"/><path class="y" d="M216.36,150.44h0" transform="translate(-8.64 -20.22)"/><path class="z" d="M216.36,150.44h0" transform="translate(-8.64 -20.22)"/><path class="aa" d="M216.36,150.44h0" transform="translate(-8.64 -20.22)"/><path class="ab" d="M216.36,150.44h0" transform="translate(-8.64 -20.22)"/><path class="ac" d="M216.36,150.44h0" transform="translate(-8.64 -20.22)"/><path class="ad" d="M216.36,150.44h0" transform="translate(-8.64 -20.22)"/><path class="ae" d="M216.36,150.44h0" transform="translate(-8.64 -20.22)"/><path class="af" d="M216.36,150.44h0" transform="translate(-8.64 -20.22)"/><path class="ag" d="M216.36,150.44h0" transform="translate(-8.64 -20.22)"/><path class="ah" d="M216.36,150.44h0" transform="translate(-8.64 -20.22)"/><path class="ai" d="M216.36,150.44h0" transform="translate(-8.64 -20.22)"/><path class="aj" d="M216.36,150.44h0" transform="translate(-8.64 -20.22)"/><path class="ak" d="M216.36,150.44h0" transform="translate(-8.64 -20.22)"/><path class="al" d="M216.36,150.44h0" transform="translate(-8.64 -20.22)"/><path class="am" d="M216.36,150.44h0" transform="translate(-8.64 -20.22)"/><path class="an" d="M216.36,150.44h0" transform="translate(-8.64 -20.22)"/><path class="ao" d="M216.36,150.44h0" transform="translate(-8.64 -20.22)"/><path class="ap" d="M216.36,150.44h0" transform="translate(-8.64 -20.22)"/><path class="aq" d="M216.36,150.44h0" transform="translate(-8.64 -20.22)"/><path class="ar" d="M216.36,150.44h0" transform="translate(-8.64 -20.22)"/><path class="as" d="M216.36,150.44h0" transform="translate(-8.64 -20.22)"/><path class="at" d="M216.36,150.44h0" transform="translate(-8.64 -20.22)"/><path class="au" d="M216.36,150.44h0" transform="translate(-8.64 -20.22)"/><path class="av" d="M216.36,150.44h0" transform="translate(-8.64 -20.22)"/></g></g></g><g class="b"><g class="aw"><g class="b"><path class="e" d="M216.36,150.44h0" transform="translate(-8.64 -20.22)"/><path class="e" d="M216.36,150.44h0" transform="translate(-8.64 -20.22)"/><path class="f" d="M216.36,150.44h0" transform="translate(-8.64 -20.22)"/><path class="g" d="M216.36,150.44h0" transform="translate(-8.64 -20.22)"/><path class="h" d="M216.36,150.44h0" transform="translate(-8.64 -20.22)"/><path class="i" d="M216.36,150.44h0" transform="translate(-8.64 -20.22)"/><path class="j" d="M216.36,150.44h0" transform="translate(-8.64 -20.22)"/><path class="k" d="M216.36,150.44h0" transform="translate(-8.64 -20.22)"/><path class="l" d="M216.36,150.44h0" transform="translate(-8.64 -20.22)"/><path class="m" d="M216.36,150.44h0" transform="translate(-8.64 -20.22)"/><path class="n" d="M216.36,150.44h0" transform="translate(-8.64 -20.22)"/><path class="o" d="M216.36,150.44h0" transform="translate(-8.64 -20.22)"/><path class="p" d="M216.36,150.44h0" transform="translate(-8.64 -20.22)"/><path class="q" d="M216.36,150.44h0" transform="translate(-8.64 -20.22)"/><path class="r" d="M216.36,150.44h0" transform="translate(-8.64 -20.22)"/><path class="s" d="M216.36,150.44h0" transform="translate(-8.64 -20.22)"/><path class="t" d="M216.36,150.44h0" transform="translate(-8.64 -20.22)"/><path class="u" d="M216.36,150.44h0" transform="translate(-8.64 -20.22)"/><path class="v" d="M216.36,150.44h0" transform="translate(-8.64 -20.22)"/><path class="w" d="M216.36,150.44h0" transform="translate(-8.64 -20.22)"/><path class="x" d="M216.36,150.44h0" transform="translate(-8.64 -20.22)"/><path class="y" d="M216.36,150.44h0" transform="translate(-8.64 -20.22)"/><path class="z" d="M216.36,150.44h0" transform="translate(-8.64 -20.22)"/><path class="aa" d="M216.36,150.44h0" transform="translate(-8.64 -20.22)"/><path class="ab" d="M216.36,150.44h0" transform="translate(-8.64 -20.22)"/><path class="ac" d="M216.36,150.44h0" transform="translate(-8.64 -20.22)"/><path class="ad" d="M216.36,150.44h0" transform="translate(-8.64 -20.22)"/><path class="ae" d="M216.36,150.44h0" transform="translate(-8.64 -20.22)"/><path class="af" d="M216.36,150.44h0" transform="translate(-8.64 -20.22)"/><path class="ag" d="M216.36,150.44h0" transform="translate(-8.64 -20.22)"/><path class="ah" d="M216.36,150.44h0" transform="translate(-8.64 -20.22)"/><path class="ai" d="M216.36,150.44h0" transform="translate(-8.64 -20.22)"/><path class="aj" d="M216.36,150.44h0" transform="translate(-8.64 -20.22)"/><path class="ak" d="M216.36,150.44h0" transform="translate(-8.64 -20.22)"/><path class="al" d="M216.36,150.44h0" transform="translate(-8.64 -20.22)"/><path class="am" d="M216.36,150.44h0" transform="translate(-8.64 -20.22)"/><path class="an" d="M216.36,150.44h0" transform="translate(-8.64 -20.22)"/><path class="ao" d="M216.36,150.44h0" transform="translate(-8.64 -20.22)"/><path class="ap" d="M216.36,150.44h0" transform="translate(-8.64 -20.22)"/><path class="aq" d="M216.36,150.44h0" transform="translate(-8.64 -20.22)"/><path class="ar" d="M216.36,150.44h0" transform="translate(-8.64 -20.22)"/><path class="as" d="M216.36,150.44h0" transform="translate(-8.64 -20.22)"/><path class="at" d="M216.36,150.44h0" transform="translate(-8.64 -20.22)"/><path class="au" d="M216.36,150.44h0" transform="translate(-8.64 -20.22)"/><path class="av" d="M216.36,150.44h0" transform="translate(-8.64 -20.22)"/></g></g></g><path class="ax" d="M214.2,150.65a6.34,6.34,0,0,0-.79-.52,45.09,45.09,0,0,1-6.68-5.16,3.94,3.94,0,0,1-1.11-3.61,7.84,7.84,0,0,1,.81-2.39h0l2.6-5.79q1.89-4.16,3.79-8.31c1.19-2.62,5.57-12.19,7-15.29-.43,1,4.73,5.25,12.46,10.27,8.59,5.59,17.1,10,19,9.75-1,1.24-20.29,24.73-21.33,25.81a5,5,0,0,1-2.78,1.52c-.57,0-1.35.07-3.58-1a73.38,73.38,0,0,1-7.78-4.29h0C214.32,150.74,214.2,150.65,214.2,150.65Z" transform="translate(-8.64 -20.22)"/><path class="ay" d="M209.6,147.44h0l-.64-.5Z" transform="translate(-8.64 -20.22)"/><path class="ay" d="M206.63,144.86l0-.05-.2-.21Z" transform="translate(-8.64 -20.22)"/><path class="ay" d="M207.8,146c.4.35.7.59,1,.84-.39-.31-.75-.62-1.08-.92A.27.27,0,0,0,207.8,146Z" transform="translate(-8.64 -20.22)"/><path class="ay" d="M205.74,143.38c0-.12-.05-.19-.06-.24S205.71,143.28,205.74,143.38Z" transform="translate(-8.64 -20.22)"/><path class="ay" d="M206.4,144.6l-.25-.35Z" transform="translate(-8.64 -20.22)"/><path class="ay" d="M212.17,149.29c.89.61,1.18.8,2,1.36-.65-.42-1.34-.88-2-1.37Z" transform="translate(-8.64 -20.22)"/><path class="ay" d="M206,143.9l-.12-.26A2.78,2.78,0,0,0,206,143.9Z" transform="translate(-8.64 -20.22)"/><path class="ay" d="M206.15,144.25l-.2-.35C206,144.06,206.09,144.15,206.15,144.25Z" transform="translate(-8.64 -20.22)"/><path class="ay" d="M205.83,143.64c0-.06-.05-.13-.09-.26A2.56,2.56,0,0,0,205.83,143.64Z" transform="translate(-8.64 -20.22)"/><polygon class="ay" points="217.37 136.63 217.37 136.63 217.37 136.63 217.37 136.63"/><path class="ay" d="M214.45,150.81a2.66,2.66,0,0,0,.65.3c-.3-.16-.62-.28-.9-.46Z" transform="translate(-8.64 -20.22)"/><path class="ay" d="M224.12,156.2l-.51-.22Z" transform="translate(-8.64 -20.22)"/><path class="ay" d="M226.51,156.92a4.2,4.2,0,0,1-.5-.07Z" transform="translate(-8.64 -20.22)"/><path class="ay" d="M224.42,156.33h0l-.34-.14Z" transform="translate(-8.64 -20.22)"/><path class="ay" d="M217.78,152.87l1.14.67c-.39-.26-.8-.49-1.21-.72Z" transform="translate(-8.64 -20.22)"/><path class="ay" d="M219.92,154.1l.06,0-1.06-.59Z" transform="translate(-8.64 -20.22)"/><path class="ay" d="M222.66,155.53l.34.17-.35-.18Z" transform="translate(-8.64 -20.22)"/><path class="ay" d="M223.61,156l-.61-.28Z" transform="translate(-8.64 -20.22)"/><path class="ay" d="M209,146.94l-.15-.12Z" transform="translate(-8.64 -20.22)"/><path class="ay" d="M237,147l6.47-7.85h0L237,147Z" transform="translate(-8.64 -20.22)"/><path class="ay" d="M231.36,153.76l0,0Z" transform="translate(-8.64 -20.22)"/><polygon class="ay" points="221.31 135.19 221.31 135.19 221.31 135.19 221.31 135.19"/><path class="ay" d="M216.82,116.11l-2,4.44-1,2.11a1.34,1.34,0,0,0,.06-.12c1-2.12,2-4.25,2.92-6.38Z" transform="translate(-8.64 -20.22)"/><path class="ay" d="M245.61,136.51l2.33-2.85h0l-2.33,2.85Z" transform="translate(-8.64 -20.22)"/><path class="ay" d="M226.61,156.93h0Z" transform="translate(-8.64 -20.22)"/><path class="ay" d="M230,155.37l0,0c.15-.15.65-.73,1.39-1.61l-.75.88,0,0c.27-.6.45-1,.9-2.22a28.3,28.3,0,0,0,3.41-2.95l0,0-3.49,4.2c1.28-1.53,3.31-4,5.6-6.75l0,.05a35.63,35.63,0,0,0,2.3-4.09c1.56-1.32,2.5-2.12,4.24-3.86l0,0c.75-.92,1.48-1.81,2.18-2.65l-.05,0a15.35,15.35,0,0,0,1.52-3,2.68,2.68,0,0,0,.86.1l1.12-1.35c-1.86.19-10.17-4.07-18.55-9.52-7.55-4.9-12.58-9.09-12.16-10l-.19.41-1.36,3c-.69,1.59-.8,1.86-1.37,3.48a28.91,28.91,0,0,0-1.55,2.9c-.36.78-.71,1.55-1.06,2.33-.48,1-1.08,2.35-1.6,3.5-.77,1.78-.9,2.07-1.46,3.65a27.18,27.18,0,0,0-1.4,2.64l.13-.29c-1.9,4.19-2.06,4.6-2.06,4.6l.24-.55a6.91,6.91,0,0,0-.55,1.66,3,3,0,0,0-.46,1.09c0,.06,0,.12,0,.19s0,.34,0,.51a4.34,4.34,0,0,0,0,.51c0,.16,0,.25,0,.32a3.31,3.31,0,0,1,.5-2.1,6,6,0,0,0,.47,4.05.57.57,0,0,0,0,.16,15,15,0,0,0,1.13,1.09,4.56,4.56,0,0,1-.54-.66,1.85,1.85,0,0,1,.53-1.05,7.86,7.86,0,0,1,1.15-.95,9.56,9.56,0,0,0,1.12,4.24,1.17,1.17,0,0,1-.39,0c.82.62,1.69,1.25,2.56,1.84a4.35,4.35,0,0,1-.93-.91l.26-.09c.46-.16.91-.35,1.36-.53s1.05-.31,1.55-.53a15.9,15.9,0,0,0,1.12,4l-.42-.12a1.76,1.76,0,0,1,.71.57c.43.26,1.56,1,1.58,1l.32.18a2.81,2.81,0,0,1-.67-.65,14.34,14.34,0,0,0,4.1-.78,31.29,31.29,0,0,1,.1,3.18,5,5,0,0,1-1.26-.44l.4.22c.46.25.91.5,1.37.73l.9.44c-.05,0-.09-.09-.15-.29a9.37,9.37,0,0,0,4.28-.89c-.32,1.82-1.11,2.2-1.26,2.26a4,4,0,0,1-1.06-.26l.65.25a8.72,8.72,0,0,0,.9.26.47.47,0,0,0,.24,0A5.87,5.87,0,0,0,230,155.37Zm5.65-7.06a35.79,35.79,0,0,1-3.79,3.09c.44-1.35.68-2.09,1.17-3.93,1.62-1.06,2.59-1.69,4.66-3.27A34.64,34.64,0,0,1,235.63,148.31ZM245.9,134a18.67,18.67,0,0,1-1.64,3.82c-1.42,1.26-2.27,2-4.39,3.66a31,31,0,0,0,1.47-4.61C243,135.83,244.06,135.2,245.9,134Zm-7.63,8.67c-1.68,1.19-2.7,1.91-4.89,3.26.38-1.73.61-2.78.93-5,1.85-1,3-1.62,5.31-3A34,34,0,0,1,238.27,142.66Zm-6.54,4.23a45.54,45.54,0,0,1-4.69,2.34c0-1.6,0-1.6.09-4.75,1.76-.82,2.82-1.32,5.34-2.63C232.26,143.6,232.13,144.65,231.73,146.89Zm13.87-13.81c-1.61.91-2.09,1.17-4,2.2a19.34,19.34,0,0,0,.24-3.88C243.32,132.12,244.58,132.69,245.6,133.08Zm-5.45-1.69a25,25,0,0,1-.24,4.83c-1.95,1.05-3,1.62-5.38,2.83a49.94,49.94,0,0,0,.26-5.51C236.84,132.68,238,132.22,240.15,131.39Zm-13,5.47c3.15-1.4,3.85-1.71,5.7-2.51,0,1.93,0,3.09-.21,5.66-2.08,1-3.23,1.61-5.5,2.66C227.19,140.27,227.21,139.2,227.17,136.86Zm-1.81,6.61c-1.92.82-3,1.27-5,1.94-.19-1.58-.32-2.62-.53-5.36,1.82-.76,2.58-1.08,5.41-2.33C225.3,139.68,225.32,140.34,225.36,143.47Zm13.94-13.42c-1.8.6-2.23.74-4.59,1.62a32,32,0,0,0-.59-4.58C235.94,128.18,237.69,129.18,239.3,130.05Zm-7.13-3.23a41.17,41.17,0,0,1,.64,5.59c-1.9.77-2.95,1.2-5.7,2.39-.11-2.25-.17-3.49-.45-6.2C228.63,127.9,229.82,127.47,232.17,126.82Zm-12.62,5.07c1.81-1,2.9-1.53,5.24-2.54.27,3.65.3,4.12.39,6.28-4,1.75-4,1.78-5.46,2.43C219.64,136.14,219.58,134.88,219.55,131.89Zm-1.54,7c-3.19,1.49-3.31,1.55-4.43,2a45.64,45.64,0,0,1-.07-5.29c1.68-1.12,2.51-1.66,4.4-2.77C217.9,135.11,217.9,136.37,218,138.84Zm-4.39-5.17c.17-2,.27-3.2.65-5.88a36.41,36.41,0,0,1,3.91-3.2c-.11,2.17-.18,3.48-.24,6.13C216.42,131.69,215.51,132.28,213.62,133.67Zm9.59-13.84a20.67,20.67,0,0,0-3.56,1.83c0-1.53.07-3.06.11-4.59C220.66,117.87,221.83,118.8,223.21,119.83Zm-5.61-5.37c0,.29.29.76.89,1.4a15.38,15.38,0,0,0-2.24,2.56A37.07,37.07,0,0,1,217.6,114.46Zm1.12,2.69c-.16,1.8-.26,2.89-.42,5.43a30.81,30.81,0,0,0-3.71,3.23c.37-2,.59-3.25,1.18-5.63A19,19,0,0,1,218.72,117.15Zm-6.21,8.39a30.74,30.74,0,0,1,2.35-4.12c-.53,1.88-.86,3-1.4,5.6a35.38,35.38,0,0,0-2.9,3.73A48.66,48.66,0,0,1,212.51,125.54Zm.57,3.43c-.32,2-.52,3.23-.75,5.68-1.06.85-1.83,1.47-3.21,2.68a37.73,37.73,0,0,1,.95-4.84A40,40,0,0,1,213.08,129Zm-5.67,7.8a22.34,22.34,0,0,1,1.82-3.11,28.94,28.94,0,0,0-1,4.44l-1.8,1.67A12.93,12.93,0,0,1,207.41,136.77Zm12.14-7c0-2,0-3.21.06-6.13a26.22,26.22,0,0,1,4.44-2.23c.2,1.78.34,3,.57,5.84A50.13,50.13,0,0,0,219.55,129.77Zm6.17-8.13c1.2.84,2.51,1.72,3.9,2.63l1.42.91a38.29,38.29,0,0,0-4.61,1.36C226.14,124.23,226.05,123.64,225.72,121.64Zm-19.31,18.88a11.71,11.71,0,0,0,1.73-1.1,8.15,8.15,0,0,0,.35,3.09c-.58.48-1.35.7-1.82,1.32A6.42,6.42,0,0,1,206.41,140.52Zm2.85,1.92a11.9,11.9,0,0,1-.26-3.64c1.68-1.22,2-1.48,3.21-2.3a34.28,34.28,0,0,0,.09,4.94A15.57,15.57,0,0,1,209.26,142.44ZM213,146.6c-.89.1-2,.34-2.34.42a11.88,11.88,0,0,1-1.08-3.64,8.59,8.59,0,0,0,2.92-.47,10.08,10.08,0,0,0,1.23,3.46A2.7,2.7,0,0,1,213,146.6Zm1.83-.14a14.27,14.27,0,0,1-1.07-4c1.3-.48,2-.72,4.38-1.72.16,1.66.29,3,.68,5.09A15.81,15.81,0,0,1,214.83,146.46Zm1.91,4.6c-1.33-2.95-1.32-3.37-1.32-3.57a10,10,0,0,0,3.73-.17,10.83,10.83,0,0,0,1.36,3.32C220.23,150.76,219.58,151,216.74,151.06Zm4.91-.39a16,16,0,0,1-1-3.7,43,43,0,0,0,4.77-1.72c.05,2.37.08,3.13.18,4.55A14.11,14.11,0,0,1,221.65,150.67Zm1.06,3.82a16.92,16.92,0,0,0-.45-2,1.49,1.49,0,0,1-.12-.87,9.75,9.75,0,0,0,3.54-.51,8.31,8.31,0,0,0,.71,2.73A10.42,10.42,0,0,1,222.71,154.49Zm4.63-.84a15,15,0,0,1-.29-3.07,34.35,34.35,0,0,0,4.39-2.16c-.25,1.2-.41,2-.83,3.77A12.16,12.16,0,0,1,227.34,153.65Zm.11,1.37a1.67,1.67,0,0,1,.11-.69,7.7,7.7,0,0,0,2.82-1.14,18.31,18.31,0,0,0-.4,1.92,6.49,6.49,0,0,1-3,1.32A2.69,2.69,0,0,0,227.45,155Z" transform="translate(-8.64 -20.22)"/><path class="ay" d="M226.65,156.93h0Z" transform="translate(-8.64 -20.22)"/><path class="ay" d="M226.51,156.92h0Z" transform="translate(-8.64 -20.22)"/><path class="ay" d="M205.63,142.88l0-.18A1.35,1.35,0,0,0,205.63,142.88Z" transform="translate(-8.64 -20.22)"/><path class="ay" d="M206.43,139c-.1.21-.21.47-.31.71C206.19,139.52,206.28,139.3,206.43,139Z" transform="translate(-8.64 -20.22)"/><polygon class="ay" points="196.96 122.48 196.96 122.49 196.96 122.48 196.96 122.48"/><path class="ay" d="M211.23,128.34l-.22.48q.11-.21.21-.45Z" transform="translate(-8.64 -20.22)"/><path class="ay" d="M205.68,143.14c0-.06,0-.13-.05-.26A1.09,1.09,0,0,0,205.68,143.14Z" transform="translate(-8.64 -20.22)"/><path class="ay" d="M205.63,141.3l0-.13a2.84,2.84,0,0,1,.06-.31C205.69,141,205.66,141.17,205.63,141.3Z" transform="translate(-8.64 -20.22)"/><path class="ay" d="M210.85,129.18c-.54,1.17-1,2.2-1.42,3.11.53-1.15,1-2.31,1.58-3.47Z" transform="translate(-8.64 -20.22)"/><path class="ay" d="M209,133.18l-.54,1.19.94-2.08C209.3,132.59,209.17,132.88,209,133.18Z" transform="translate(-8.64 -20.22)"/><path class="ay" d="M206.12,139.68c-.14.31-.16.37-.2.46C206,140,206,139.86,206.12,139.68Z" transform="translate(-8.64 -20.22)"/><path class="az" d="M256.18,128.37a5.23,5.23,0,0,0,1-1.2,4.66,4.66,0,0,0,.65-2,4.91,4.91,0,0,0,0-1.12,7.18,7.18,0,0,0-.28-1.13c.13.34,0,.54-.37.58-2.08.22-11.39-4.55-20.79-10.66S221,101.63,223.11,101.42a5.09,5.09,0,0,0-2.65,1,4.83,4.83,0,0,0-1.67,2.57,5.47,5.47,0,0,0,0,2.77,6.2,6.2,0,0,0,.47,1.26,9,9,0,0,0,1,1.5c1.38,1.76,5.9,5.29,12,9.28,7.73,5,15.4,9.07,18.25,9.68a8,8,0,0,0,2.52.17,4.27,4.27,0,0,0,.64-.11,5.47,5.47,0,0,0,1.63-.6A7.23,7.23,0,0,0,256.18,128.37Z" transform="translate(-8.64 -20.22)"/><path class="ba" d="M268.94,119.94a27.6,27.6,0,0,0,3.14-2.22c.55-.44.92-.79,1.91-1.74a21.77,21.77,0,0,0,1.72-1.93c.41-.52.91-1.26,1.28-1.81a.72.72,0,0,1-.57.27c-3.17.33-17.3-6.92-31.56-16.18-13-8.43-21.58-15.63-20.65-17.11a23.24,23.24,0,0,0-2.55,5.92c-.22.78-.5,2.1-.56,2.51a29.48,29.48,0,0,0-.4,3.78,26.84,26.84,0,0,0,.43,5.92,18.86,18.86,0,0,0,.86,3.07,12.79,12.79,0,0,0,.88,1.84c1,1.72,6.19,5.87,13.47,10.6,9,5.86,17.94,10.48,20.5,10.66a13.48,13.48,0,0,0,2.34,0c.35,0,.69-.09,1-.15h.08A26,26,0,0,0,268.94,119.94Z" transform="translate(-8.64 -20.22)"/><path class="bb" d="M276.42,112.51c-3.17.33-17.3-6.92-31.56-16.18s-23.25-17-20.08-17.38,17.29,6.92,31.55,16.19S279.59,112.18,276.42,112.51Z" transform="translate(-8.64 -20.22)"/><path class="bc" d="M275.69,112.48c-4.22-.56-17.46-7.47-30.83-16.15-13-8.43-21.58-15.63-20.65-17.11-.17.27-.32.54-.47.8,1.23,2.5,9.22,8.91,20.55,16.27C258.34,105.43,272.26,112.59,275.69,112.48Z" transform="translate(-8.64 -20.22)"/><path class="bd" d="M278.5,106.3a7.76,7.76,0,0,0,1.14-3.19,7.26,7.26,0,0,0,0-2,11,11,0,0,0-.16-1.11c.07.35-.1.55-.53.6-2.74.28-15-6-27.28-14-12-7.81-19.71-14.4-17.54-15-7.26,2-6.7,8.8-6.51,10.15.26,1.8,7.47,7.69,18,14.52,12.38,8,24.64,14.33,27.39,14l.22,0A10.22,10.22,0,0,0,278.5,106.3Z" transform="translate(-8.64 -20.22)"/><path class="be" d="M281.75,86c-.11-.15-.24-.31-.39-.49Z" transform="translate(-8.64 -20.22)"/><path class="bf" d="M281.67,97.74A15.78,15.78,0,0,0,283.3,93a11.73,11.73,0,0,0,.15-2.6,8.35,8.35,0,0,0-.31-1.77,6.29,6.29,0,0,0-.74-1.66,7.1,7.1,0,0,0-.65-.92c.55.74.57,1.19,0,1.26-2.25.23-12.3-4.92-22.44-11.51S242.74,63.65,245,63.41a2.94,2.94,0,0,1,.82.08,8,8,0,0,0-2.6-.2,11,11,0,0,0-5.81,2.94,14.71,14.71,0,0,0-2.62,3.06A7.84,7.84,0,0,0,234,71a2.91,2.91,0,0,0-.16,1c.09,1.72,7.32,7.65,17.91,14.53,12.33,8,24.54,14.27,27.28,14a1,1,0,0,0,.28-.07A6.22,6.22,0,0,0,281.67,97.74Z" transform="translate(-8.64 -20.22)"/><path class="bg" d="M245.82,63.49l.52.12Z" transform="translate(-8.64 -20.22)"/><path class="bh" d="M282.15,87a19.67,19.67,0,0,0,1.46-7.1,14.16,14.16,0,0,0-.47-3.42,19.06,19.06,0,0,0-1.32-3.58.51.51,0,0,1,.07.22c-2.26-4.8-4-12-4.55-20.15-7.55,3.06-14.8,4.65-20.11,4.72l.14,0h.1c-.94,0-1.33,0-2.06.11-5.34.53-8.37,3.25-10.78,5.77-.88.94,5.29,6.12,14.65,12.21,10.14,6.59,20.19,11.74,22.44,11.51A.48.48,0,0,0,282.15,87Z" transform="translate(-8.64 -20.22)"/><path class="bi" d="M251.28,129.6c-1.91.2-10.42-4.16-19-9.75-7.73-5-12.89-9.32-12.46-10.27l-.68,1.5A85.76,85.76,0,0,0,246,136Z" transform="translate(-8.64 -20.22)"/><path class="bi" d="M221.84,101.72c1,1.89,3.9,5.8,12,12.39a91.67,91.67,0,0,0,23.05,13.39,3.76,3.76,0,0,0,.22-.33,4.66,4.66,0,0,0,.65-2,4.91,4.91,0,0,0,0-1.12,7.18,7.18,0,0,0-.28-1.13c.13.34,0,.54-.37.58-2.08.22-11.39-4.55-20.79-10.66S221,101.63,223.11,101.42A6,6,0,0,0,221.84,101.72Z" transform="translate(-8.64 -20.22)"/><g class="bj"><path class="bk" d="M244.91,64.59h0l0,0A0,0,0,0,0,244.91,64.59Z" transform="translate(-8.64 -20.22)"/><path class="bl" d="M259.28,75.77a118.67,118.67,0,0,1-11.49-8.31c5.76,5.47,19.53,17.31,35.62,22.45a8.3,8.3,0,0,0-.27-1.31,6.29,6.29,0,0,0-.74-1.66,7.1,7.1,0,0,0-.65-.92c.55.74.57,1.19,0,1.26C279.47,87.51,269.42,82.36,259.28,75.77Z" transform="translate(-8.64 -20.22)"/></g><path class="bm" d="M279.67,101.06a11,11,0,0,0-.16-1.11c.07.35-.1.55-.53.6-2.74.28-15-6-27.28-14a156.88,156.88,0,0,1-12.84-9.16h0s21,20.26,40.82,25.46A9.94,9.94,0,0,0,279.67,101.06Z" transform="translate(-8.64 -20.22)"/><path class="bn" d="M267.63,65.57a1.22,1.22,0,0,1-1.7-.31h0a1.22,1.22,0,0,1,.3-1.7L268.51,62a1.22,1.22,0,0,1,1.7.3h0a1.23,1.23,0,0,1-.3,1.71Z" transform="translate(-8.64 -20.22)"/><path class="bn" d="M271.36,86.73a1.22,1.22,0,0,1-.48,1.66h0a1.22,1.22,0,0,1-1.66-.48l-1.33-2.44a1.22,1.22,0,0,1,.48-1.66h0a1.22,1.22,0,0,1,1.66.49Z" transform="translate(-8.64 -20.22)"/><path class="bn" d="M250.71,92.11a1.22,1.22,0,0,1-.48,1.66h0a1.22,1.22,0,0,1-1.66-.48l-1.34-2.43a1.22,1.22,0,0,1,.49-1.66h0a1.22,1.22,0,0,1,1.66.48Z" transform="translate(-8.64 -20.22)"/><path class="bn" d="M235.46,83.69a1.24,1.24,0,0,1-1.72-.25h0a1.23,1.23,0,0,1,.25-1.71l2.22-1.66a1.21,1.21,0,0,1,1.71.25h0a1.22,1.22,0,0,1-.24,1.71Z" transform="translate(-8.64 -20.22)"/><path class="bn" d="M243.47,72.94a1.22,1.22,0,0,1-.61-1.62h0a1.23,1.23,0,0,1,1.62-.6L247,71.86a1.22,1.22,0,0,1,.6,1.62h0a1.21,1.21,0,0,1-1.61.61Z" transform="translate(-8.64 -20.22)"/><path class="bn" d="M274.8,95.21a1.23,1.23,0,0,1-.6-1.63h0a1.22,1.22,0,0,1,1.62-.6l2.52,1.14a1.22,1.22,0,0,1,.61,1.62h0a1.22,1.22,0,0,1-1.62.61Z" transform="translate(-8.64 -20.22)"/><path class="bn" d="M276.14,77.29a1.24,1.24,0,0,1-.61-1.62h0a1.22,1.22,0,0,1,1.62-.61l2.53,1.15a1.22,1.22,0,0,1,.61,1.62h0a1.23,1.23,0,0,1-1.62.6Z" transform="translate(-8.64 -20.22)"/><path class="bn" d="M259,97.41a1.22,1.22,0,0,1,1.09-1.34h0a1.23,1.23,0,0,1,1.34,1.1l.28,2.76a1.24,1.24,0,0,1-1.1,1.34h0a1.23,1.23,0,0,1-1.34-1.1Z" transform="translate(-8.64 -20.22)"/><path class="bn" d="M269.34,104.94a1.22,1.22,0,0,1-.6-1.62h0a1.21,1.21,0,0,1,1.61-.6l2.53,1.14a1.22,1.22,0,0,1,.61,1.62h0a1.22,1.22,0,0,1-1.62.61Z" transform="translate(-8.64 -20.22)"/><path class="bn" d="M254.47,82.07a1.24,1.24,0,0,1-1.52-.84h0a1.21,1.21,0,0,1,.83-1.51l2.66-.78a1.22,1.22,0,0,1,1.52.83h0a1.22,1.22,0,0,1-.83,1.52Z" transform="translate(-8.64 -20.22)"/><path class="bn" d="M253.91,66.11a1.23,1.23,0,0,1-1.52-.84h0a1.23,1.23,0,0,1,.84-1.51l2.66-.78a1.23,1.23,0,0,1,1.52.83h0a1.23,1.23,0,0,1-.83,1.52Z" transform="translate(-8.64 -20.22)"/><path class="bn" d="M265.05,74a1.23,1.23,0,0,1,.61-1.62h0a1.22,1.22,0,0,1,1.62.61l1.14,2.52a1.22,1.22,0,0,1-.6,1.62h0a1.22,1.22,0,0,1-1.62-.61Z" transform="translate(-8.64 -20.22)"/><polygon class="bo" points="82.36 92 87.68 72.1 96.45 66.9 91.13 86.81 82.36 92"/><polygon class="bp" points="210.9 118.03 216.22 98.13 221.41 106.97 216.09 126.87 210.9 118.03"/><path class="bq" d="M219.54,138.25l5.19,8.83c-20.11,8.57-45.91,10.46-72.23,3.6s-48-21.13-61.5-38.46l8.77-5.2c11.7,15.84,31.14,28.94,54.91,35.14S201.73,146.39,219.54,138.25Z" transform="translate(-8.64 -20.22)"/><polygon class="br" points="91.13 86.81 96.45 66.9 101.85 63.71 96.53 83.61 91.13 86.81"/><polygon class="bs" points="207.71 112.59 213.02 92.69 216.22 98.13 210.9 118.03 207.71 112.59"/><path class="bt" d="M216.35,132.81l3.19,5.44c-17.81,8.14-41.09,10.1-64.86,3.91S111.47,122.86,99.77,107l5.4-3.19c10.57,14.92,28.63,27.32,50.84,33.11S200,140.7,216.35,132.81Z" transform="translate(-8.64 -20.22)"/><polygon class="bu" points="166.37 42.24 171.68 22.34 213.02 92.69 207.71 112.59 166.37 42.24"/><polygon class="bv" points="96.53 83.61 101.85 63.71 171.68 22.34 166.37 42.24 96.53 83.61"/><path class="bw" d="M175,62.46l41.34,70.35c-16.39,7.89-38.14,9.92-60.34,4.13s-40.27-18.19-50.84-33.11Z" transform="translate(-8.64 -20.22)"/><path class="bx" d="M175.33,63l-.32-.55-69.84,41.37.38.52Z" transform="translate(-8.64 -20.22)"/><path class="by" d="M161.36,117.74c-2-.52-4.74,3.58-5.11,5s.93,3.06,2.91,3.58,3.88-.25,4.25-1.71-.08-6.4-2-6.91" transform="translate(-8.64 -20.22)"/><path class="by" d="M139.1,95.45c-2-.52-4.73,3.58-5.1,5s.93,3.06,2.91,3.57,3.88-.25,4.25-1.7-.08-6.4-2.06-6.91" transform="translate(-8.64 -20.22)"/><path class="by" d="M192.58,109.39c-2-.52-4.74,3.58-5.11,5s.93,3.06,2.91,3.58,3.88-.26,4.25-1.71-.08-6.4-2-6.91" transform="translate(-8.64 -20.22)"/><path class="by" d="M169.4,86.2c-2-.51-4.73,3.58-5.1,5s.92,3.06,2.9,3.58,3.89-.25,4.26-1.71-.08-6.39-2.06-6.91" transform="translate(-8.64 -20.22)"/><path class="bz" d="M69.47,134.7l43.67-76.08c9.54-16.62,3.9-31.3-12.6-32.78S62.92,36.64,53.38,53.26L9.71,129.34c-2.19,3.82-.9,7.19,2.88,7.53L27,138.16l17.25,1.54,14.4,1.3C62.43,141.34,67.28,138.52,69.47,134.7Z" transform="translate(-8.64 -20.22)"/><g class="ca"><path class="cb" d="M73,53c3.79.34,5.09,3.71,2.89,7.53L44.45,115.26c-2.19,3.81-7,6.63-10.82,6.29s-5.09-3.71-2.9-7.53L62.18,59.25C64.37,55.43,69.21,52.61,73,53Z" transform="translate(-8.64 -20.22)"/></g><g class="ca"><path class="cb" d="M95.78,55c3.79.34,5.09,3.71,2.89,7.53L67.23,117.3c-2.19,3.81-7,6.63-10.83,6.29s-5.08-3.71-2.89-7.52L85,61.29C87.15,57.47,92,54.65,95.78,55Z" transform="translate(-8.64 -20.22)"/></g><path class="cc" d="M82.72,152.78,126.39,76.7c5.82-10.14,6-19.55,1.49-25.69L114.64,32.93c4.49,6.14,4.32,15.55-1.5,25.69L69.47,134.7c-2.19,3.82-7,6.64-10.82,6.3l-14.4-1.3L27,138.16l-14.41-1.29a4.35,4.35,0,0,1-3.23-1.63l13.25,18.08A4.35,4.35,0,0,0,25.84,155l14.4,1.29,17.26,1.54,14.4,1.3C75.68,159.42,80.53,156.6,82.72,152.78Z" transform="translate(-8.64 -20.22)"/><path class="bc" d="M12.91,137.46l14.4,1.29,17.25,1.55L59,141.59c3.79.34,8.63-2.48,10.82-6.29l43.68-76.08c4.44-7.74,5.61-16.23,3.92-22.55l-2.74-3.74c4.49,6.14,4.32,15.55-1.5,25.69L69.47,134.7c-2.19,3.82-7,6.64-10.82,6.3l-14.4-1.3L27,138.16l-14.41-1.29a4.35,4.35,0,0,1-3.23-1.63l.88,1.19A4.68,4.68,0,0,0,12.91,137.46Z" transform="translate(-8.64 -20.22)"/><polygon class="cd" points="48.86 137.57 59.85 138.55 40.16 125.51 30.21 135.9 31.6 136.02 48.86 137.57"/><path class="ce" d="M40.68,174.19l12.7-22.13-4.58-6.33L36.09,167.86c-2.75,4.8-8.85,8.35-13.61,7.92a5.45,5.45,0,0,1-4.07-2c4.42,6,.17.3,4.58,6.32a5.48,5.48,0,0,0,4.07,2.05C31.83,182.53,37.92,179,40.68,174.19Z" transform="translate(-8.64 -20.22)"/><path class="x" d="M36.09,167.86,48.8,145.73l-17.25-1.55L18.84,166.31c-2.75,4.81-1.12,9,3.64,9.47S33.34,172.66,36.09,167.86Z" transform="translate(-8.64 -20.22)"/><path class="bc" d="M36.09,167.86c-2.75,4.8-8.85,8.35-13.61,7.92a5.45,5.45,0,0,1-4.07-2l.69.94a5.71,5.71,0,0,0,3.56,1.47c4.76.43,10.86-3.11,13.62-7.92L49,146.05l-.23-.32Z" transform="translate(-8.64 -20.22)"/><path class="cf" d="M114.21,97.93,126.39,76.7c5.82-10.14,6-19.55,1.49-25.69L114.64,32.93l.14.21c-2.86-4-7.69-6.71-14.24-7.3C84,24.36,62.92,36.64,53.38,53.26L34.32,86.47a25.68,25.68,0,0,0,17.87-7c13.16-12,20.31-15.18,24.86-7.14s11.73,8,20,.28,15.14.48,13.8,9.85C110.18,87.27,111.26,93.74,114.21,97.93Z" transform="translate(-8.64 -20.22)"/><path class="cg" d="M311.68,156.74a36.83,36.83,0,0,0-3.78-11.81l-.2-.38c5,9.67-3.21,24.25-18.42,32.55-15,8.2-31.21,7.23-36.47-2.11a37.8,37.8,0,0,0,7.59,9.26,29.48,29.48,0,0,0,4.22,3.14c.7.41,1.62,1,2.35,1.32.47.22,1.1.53,1.58.74s1.44.59,2.08.78c1,.31,2.42.7,3.47.91.9.19,2.12.33,3,.43a35.42,35.42,0,0,0,6,0,31,31,0,0,0,6.84-1.33,32.55,32.55,0,0,0,5.64-2.39,31.62,31.62,0,0,0,2.77-1.71c.77-.53,1.76-1.31,2.49-1.91a33.3,33.3,0,0,0,3.77-3.82,29.71,29.71,0,0,0,2.45-3.36c.56-.85,1.2-2.05,1.68-3a28.53,28.53,0,0,0,2.18-5.52,28.12,28.12,0,0,0,1-6.23A30.1,30.1,0,0,0,311.68,156.74Z" transform="translate(-8.64 -20.22)"/><path class="cb" d="M260.4,184.25l1.12.77,1.28.9c.48.36,1.09.66,1.69,1.05s1.36.72,2.1,1.11l.55.28.6.26c.4.16.85.39,1.23.51l1.33.48.33.12s.16.05.13.05l.17,0,.71.18c.92.22,1.93.53,2.81.69s2,.3,2.87.41,1.94.2,2.83.14,1.79,0,2.63,0,1.63-.14,2.36-.19,1.42-.1,2-.24l1.52-.3,1.34-.24-1.29.43-1.5.47a11.63,11.63,0,0,1-2,.43c-.74.11-1.5.3-2.39.37s-1.77.11-2.71.15a11.21,11.21,0,0,1-1.42,0l-1.44-.07c-1.05-.11-2-.26-3-.38s-1.94-.5-2.9-.75l-.7-.19-.17,0-.21-.08-.34-.14-1.31-.52c-.49-.19-.84-.39-1.26-.59l-.59-.3-.57-.35c-.73-.45-1.41-.82-2.05-1.27a15,15,0,0,1-1.63-1.24l-1.17-1Z" transform="translate(-8.64 -20.22)"/><path class="cb" d="M289.28,177.73C301.67,171,309.44,160,309.17,151c-.09,8.92-7.78,19.51-19.89,26.12-15,8.2-31.21,7.23-36.47-2.11a31.55,31.55,0,0,0,2.49,3.75C262.13,185.05,276.15,184.9,289.28,177.73Z" transform="translate(-8.64 -20.22)"/><path class="ch" d="M307.7,144.55c5,9.67-3.21,24.25-18.42,32.55s-31.62,7.2-36.66-2.47,3.2-24.24,18.41-32.55S302.66,134.88,307.7,144.55Z" transform="translate(-8.64 -20.22)"/><path class="ci" d="M262.94,151.48a.56.56,0,0,0,.28.24l14.09,6.46a4.91,4.91,0,0,1,.51-.39l-6.37-12.23c-.15-.29-.47-.38-1-.29a7.69,7.69,0,0,0-2.18.87c-3,1.64-5.8,4.44-5.33,5.34" transform="translate(-8.64 -20.22)"/><path class="ci" d="M258.81,177.28c.77,1.49,3.81,2.67,5.8,2.26a1.9,1.9,0,0,0,1.28-.75l.18-.26L277,162.94a2,2,0,0,1-.44-.19L259.21,175.7a1.14,1.14,0,0,0-.4,1.58" transform="translate(-8.64 -20.22)"/><path class="ci" d="M254.84,173.45a3.43,3.43,0,0,0,2.74,2.07,1.72,1.72,0,0,0,1-.39l17.34-13a1.26,1.26,0,0,1-.13-.17,1.39,1.39,0,0,1-.06-.19l-20.17,7.51a1.81,1.81,0,0,0-.87.65,3.54,3.54,0,0,0,.15,3.48" transform="translate(-8.64 -20.22)"/><path class="ci" d="M253.94,168a1.08,1.08,0,0,0,1.5.53h0L275.6,161a2.77,2.77,0,0,1,.09-.47l-19,.59a1.9,1.9,0,0,0-1.34.66c-1.44,1.46-2.17,4.71-1.4,6.21" transform="translate(-8.64 -20.22)"/><path class="ci" d="M256.4,159.78a.68.68,0,0,0,.7.34l19-.58a5.14,5.14,0,0,1,.32-.49l-14.06-6.45c-.18-.08-.72-.33-2,.64-2.33,1.75-4.53,5.41-3.94,6.54" transform="translate(-8.64 -20.22)"/><path class="ci" d="M281.49,162l6.37,12.22c.14.28.45.38.94.3,1.7-.25,4.93-2.35,6.68-4.31.76-.87,1.08-1.55.9-1.91a.59.59,0,0,0-.29-.24l-.95-.43-13.13-6-.52.4" transform="translate(-8.64 -20.22)"/><path class="ci" d="M295.67,159.87l3.72-.11-3.72.11m-12.79.87L296.54,167l.49.23c.24.09.8.18,1.94-.68,2.33-1.74,4.53-5.41,3.94-6.54a.68.68,0,0,0-.7-.34h0l-2.82.09-16.18.5a4.58,4.58,0,0,1-.33.48" transform="translate(-8.64 -20.22)"/><path class="ci" d="M272.6,144.94,279,157.17a6.37,6.37,0,0,1,.61-.23l2.29-13.74.31-1.83a.59.59,0,0,0,0-.38c-.48-.9-4.29-.08-7.3,1.56-.82.45-2.67,1.57-2.24,2.39" transform="translate(-8.64 -20.22)"/><path class="ci" d="M290.67,143.32l.24-.34-.24.34m-9.9,13.36a3.64,3.64,0,0,1,.57,0L290.91,143l1.49-2.14h0a.72.72,0,0,0,.11-.78c-.59-1.13-4.79-1.3-7.5-.29-1.52.57-1.61,1.16-1.65,1.36l-.42,2.51-2.18,13.05" transform="translate(-8.64 -20.22)"/><path class="ci" d="M283.39,157.62a1.77,1.77,0,0,1,.12.17.68.68,0,0,1,.07.2l20.17-7.52h0a1.73,1.73,0,0,0,.85-.64,3.56,3.56,0,0,0-.15-3.48,3.4,3.4,0,0,0-2.74-2.06,1.69,1.69,0,0,0-1,.38l-1.22.91L297,147.42l2.47-1.85-16.11,12.05" transform="translate(-8.64 -20.22)"/><path class="ci" d="M303.75,150.47h0m-20.12,8.83,15.46-.48,3.6-.11a1.88,1.88,0,0,0,1.28-.66c1.44-1.46,2.17-4.71,1.4-6.2a1.09,1.09,0,0,0-1.5-.54l-.12-.84.12.84-20.16,7.51a4,4,0,0,1-.08.48" transform="translate(-8.64 -20.22)"/><path class="ci" d="M282.34,156.85a2.55,2.55,0,0,1,.44.2l16.81-12.58L296.23,147l3.36-2.51.51-.38.1-.07a1.12,1.12,0,0,0,.3-1.5c-.77-1.49-3.82-2.68-5.81-2.27a1.87,1.87,0,0,0-1.28.77l-.79,1.12-10.28,14.71" transform="translate(-8.64 -20.22)"/><path class="ci" d="M277.17,178.8c.47.9,4.29.09,7.3-1.56a7.91,7.91,0,0,0,1.93-1.37c.37-.41.46-.73.31-1l-6.37-12.23a6.32,6.32,0,0,1-.61.22l-2.6,15.58a.63.63,0,0,0,0,.37" transform="translate(-8.64 -20.22)"/><path class="ci" d="M266.79,179.74c.59,1.13,4.79,1.3,7.5.29,1.45-.54,1.61-1.1,1.64-1.32h0v0l2.6-15.56a3.66,3.66,0,0,1-.57,0l-8,11.47-3,4.36a.75.75,0,0,0-.12.79" transform="translate(-8.64 -20.22)"/><path class="cj" d="M392.2,111.39l-46-73.68c-10.06-16.1-30.86-22.19-46.46-13.6s-20.09,28.61-10,44.71l46,73.68a8.19,8.19,0,0,0,10.66,3.12l13.61-7.5,16.31-9,13.61-7.49C393.48,119.68,394.51,115.08,392.2,111.39Z" transform="translate(-8.64 -20.22)"/><g class="ck"><path class="cb" d="M371.3,101.6l-33.14-53a8.18,8.18,0,0,0-10.66-3.13,7.18,7.18,0,0,0-2.31,10.27l33.15,53.05A8.18,8.18,0,0,0,369,111.86C372.58,109.89,373.61,105.29,371.3,101.6Z" transform="translate(-8.64 -20.22)"/><path class="cb" d="M316.63,60.4A8.2,8.2,0,0,0,306,57.28c-3.58,2-4.61,6.57-2.3,10.26l33.15,53.06a8.18,8.18,0,0,0,10.66,3.12,7.17,7.17,0,0,0,2.3-10.26Z" transform="translate(-8.64 -20.22)"/></g><path class="cl" d="M389.9,121.65l-13.61,7.49-16.31,9-13.61,7.5a8.19,8.19,0,0,1-10.66-3.12l-46-73.68c-7.83-12.54-6.85-27.44,1.34-37.49l-7.23,8.87c-8.18,10-9.17,25-1.34,37.48l46,73.68a8.18,8.18,0,0,0,10.66,3.12L352.75,147l16.31-9,13.61-7.5a6.75,6.75,0,0,0,2-1.65l7.22-8.87A6.73,6.73,0,0,1,389.9,121.65Z" transform="translate(-8.64 -20.22)"/><path class="bc" d="M389.9,121.65l-13.61,7.49-16.31,9-13.61,7.5a8.19,8.19,0,0,1-10.66-3.12l-46-73.68a34.49,34.49,0,0,1-5.36-17.77,34.4,34.4,0,0,0,5.36,18.37l46,73.68a8.18,8.18,0,0,0,10.66,3.12L360,138.73l16.31-9,13.61-7.49.31-.19,1.68-2.07A6.73,6.73,0,0,1,389.9,121.65Z" transform="translate(-8.64 -20.22)"/><path class="x" d="M374.43,131.57,387.82,153c2.91,4.65,1.61,10.43-2.89,12.91s-10.51.72-13.41-3.93l-13.4-21.43Z" transform="translate(-8.64 -20.22)"/><path class="ce" d="M384.93,165.91c-4.51,2.48-10.51.72-13.41-3.93l-13.4-21.43-3.05,3.77,13.39,21.44c2.9,4.64,8.91,6.4,13.41,3.92a8.54,8.54,0,0,0,2.51-2.08c2.41-3,.65-.82,3.06-3.77A8.54,8.54,0,0,1,384.93,165.91Z" transform="translate(-8.64 -20.22)"/><path class="bc" d="M384.93,165.91c-4.51,2.48-10.51.72-13.41-3.93l-13.39-21.43-.25.31,13.38,21.43c2.91,4.65,8.92,6.41,13.42,3.93a8.36,8.36,0,0,0,2.45-2l.31-.37A8.54,8.54,0,0,1,384.93,165.91Z" transform="translate(-8.64 -20.22)"/><path class="cm" d="M346.17,37.71c-10.06-16.1-30.86-22.19-46.46-13.6a29.56,29.56,0,0,0-9.51,8.29c.26-.36.54-.72.82-1.07l-7.23,8.87c-8.18,10-9.17,25-1.34,37.48l15.64,25a14.37,14.37,0,0,0,6.15-10.59c.67-8.54,5.08-18,15.92-18.58s23.42.57,27-10.65a35,35,0,0,1,7-12.48Z" transform="translate(-8.64 -20.22)"/></g></g></svg>