<svg xmlns="http://www.w3.org/2000/svg" width="1367.667" height="662.912" viewBox="0 0 1367.667 662.912"><defs><style>.a{opacity:0.8;}.b,.c{fill:#89F5B1;fill-rule:evenodd;}.b{opacity:0.6;}</style></defs><g class="a" transform="translate(-0.032)"><path class="b" d="M672.892,140.761c1.84.238,3.49.428,5.14.492.508,0,1.206-.111,1.4.524s-.333,1.079-.793,1.444A43.939,43.939,0,0,1,674,146.266a2.952,2.952,0,0,0-1.586,2.253c-.19,1.269-.317,2.538-.444,3.807a16.212,16.212,0,0,1-.238,1.761c-.27,1.253-1.031,1.507-1.872.571a27.842,27.842,0,0,1-2.6-3.316,3.062,3.062,0,0,0-3.332-1.444c-1.38.222-2.76.349-4.14.524-.444,0-.888.127-1.333.159s-1.158.159-1.428-.444.254-.9.6-1.237c1.587-1.586,3.094-3.173,4.759-4.759a1.587,1.587,0,0,0,.476-2.046q-1-2.38-1.951-4.759a12.591,12.591,0,0,1-.444-1.3c-.111-.349-.19-.746.19-.984s.6,0,.857.19l2.094,1.475c.92.65,1.84,1.3,2.745,1.983s.825.635,1.586-.1a52.911,52.911,0,0,1,6.06-5.41l.428-.317c.333-.238.666-.619,1.063-.3s.159.746.079,1.142a35.4,35.4,0,0,1-2.031,5.664A12.485,12.485,0,0,1,672.892,140.761Z" transform="translate(624.587 192.637)"/><path class="b" d="M710.639,271.557c1.079.143,2.062.254,3.03.3.3,0,.714-.079.841.3s-.206.635-.476.857a26.433,26.433,0,0,1-2.745,1.809,1.744,1.744,0,0,0-.9,1.333c-.111.746-.19,1.507-.27,2.253a2.919,2.919,0,0,1-.127,1.047c-.174.746-.619.9-1.11.349a18.206,18.206,0,0,1-1.586-1.967,1.825,1.825,0,0,0-1.983-.857c-.809.127-1.586.206-2.443.3l-.793.1c-.318,0-.7.1-.857-.254s.159-.539.365-.746c.92-.936,1.824-1.888,2.776-2.792a.968.968,0,0,0,.286-1.221c-.4-.936-.793-1.888-1.174-2.84-.1-.254-.175-.523-.254-.777s-.111-.444.111-.587.349,0,.508.111l1.237.872,1.587,1.174c.476.365.476.381.92,0a29.9,29.9,0,0,1,3.585-3.173l.254-.19c.19-.143.4-.381.619-.19s.1.444,0,.682a20.647,20.647,0,0,1-1.19,3.363C710.893,270.986,710.782,271.224,710.639,271.557Z" transform="translate(650.519 382.773)"/><path class="b" d="M14.182,26.125c1.095.143,2.062.254,3.03.3.3,0,.714-.079.841.3s-.206.65-.476.857a24.1,24.1,0,0,1-2.745,1.809,1.745,1.745,0,0,0-.9,1.333c-.111.746-.19,1.507-.27,2.253a7.552,7.552,0,0,1-.127,1.047c-.159.746-.619.9-1.111.349a18.244,18.244,0,0,1-1.586-1.967,1.84,1.84,0,0,0-1.983-.857c-.809.127-1.586.206-2.443.3a2.269,2.269,0,0,0-.793.1.672.672,0,0,1-.857-.254c-.175-.349.159-.539.365-.746.92-.936,1.824-1.888,2.776-2.776a.968.968,0,0,0,.286-1.222L7.011,24.094c-.1-.254-.175-.524-.254-.777s-.111-.444.111-.587.365,0,.508.111l1.237.888L10.2,24.887c.476.365.492.381.92,0a31.173,31.173,0,0,1,3.585-3.173l.254-.19c.19-.143.4-.365.619-.19s.111.444,0,.682a20.623,20.623,0,0,1-1.206,3.363C14.435,25.6,14.324,25.792,14.182,26.125Z" transform="translate(2.743 12.473)"/><path class="b" d="M46.86,220.228a26.461,26.461,0,0,0,2.729-3.871c.222-.365.381-.968.92-.793s.349.762.365,1.19a13.215,13.215,0,0,1-.6,3.855,1.586,1.586,0,0,0,.714,2l2.808,1.9c.333.222.73.444.635.936s-.524.571-.92.666a19.773,19.773,0,0,1-3.474.412c-1.047,0-1.079,0-1.4,1.111-.4,1.333-.761,2.681-1.126,4.014a4.041,4.041,0,0,1-.238.825c-.063.27-.254.841-.73.857s-.666-.412-.841-.777a27.1,27.1,0,0,1-1.38-3.792c-.761-2.3-.761-2.3-3.173-2.665a12.42,12.42,0,0,1-2.11-.524c-.317-.111-.6-.286-.619-.666a.761.761,0,0,1,.65-.761l3.078-1.047c.92-.317.9-.317.777-1.253a66.041,66.041,0,0,1-.539-7.71.4.4,0,0,1,0-.127c0-.428,0-1.015.476-1.142s.65.412.841.746a48.978,48.978,0,0,1,2.332,4.981,6.012,6.012,0,0,0,.825,1.634Z" transform="translate(22.512 308.547)"/><path class="c" d="M486.936,105.785a3.665,3.665,0,1,1-3.712-3.855,3.728,3.728,0,0,1,3.712,3.855Z" transform="translate(443.69 145.135)"/><path class="b" d="M621.331,190.774a8.043,8.043,0,0,1-7.694,7.758,6.473,6.473,0,0,1-6.092-6.869c.143-4.632,3.316-8.027,7.361-7.932a6.7,6.7,0,0,1,6.425,7.044Z" transform="translate(595.604 264.199)"/><path class="b" d="M260.664,74.21a6.631,6.631,0,0,1,6.6,6.822,6.98,6.98,0,0,1-7.044,6.885,6.52,6.52,0,0,1-6.568-6.806A6.964,6.964,0,0,1,260.664,74.21Z" transform="translate(235.118 106.549)"/><path class="b" d="M413.082,60.173a6.425,6.425,0,1,1-6.552,6.346,6.235,6.235,0,0,1,6.552-6.346Z" transform="translate(376.756 86.281)"/><path class="c" d="M211.571,139.688a2.491,2.491,0,1,1-2.522-2.538,2.522,2.522,0,0,1,2.522,2.538Z" transform="translate(190.953 194.561)"/><path class="c" d="M643.969,40.729a5.5,5.5,0,1,1,4-1.611A5.521,5.521,0,0,1,643.969,40.729Z" transform="translate(613.753 17.335)"/><path class="c" d="M70.746,38.595a5.2,5.2,0,1,1-10.391-.159,5.2,5.2,0,1,1,10.391.159Z" transform="translate(35.369 19.374)"/><path class="b" d="M598.7,116.636a5.362,5.362,0,0,1-5.235,5.426,5.124,5.124,0,0,1-4.759-5.441,5.22,5.22,0,0,1,5.219-5.41,5.156,5.156,0,0,1,4.775,5.426Z" transform="translate(584.556 159.039)"/><path class="b" d="M180.611,95.548a4.172,4.172,0,0,1-4.22,4.061,3.966,3.966,0,0,1-4-4.22,4.11,4.11,0,0,1,8.218.159Z" transform="translate(159.501 130.183)"/><path class="c" d="M124.075,123.69a3.173,3.173,0,0,1,0,6.346,3.03,3.03,0,0,1-3.173-2.982,3.173,3.173,0,0,1,3.173-3.363Z" transform="translate(70.88 175.794)"/><path class="b" d="M532.736,186.163a4.426,4.426,0,0,1-8.836-.349,4.537,4.537,0,0,1,4.759-4.442,4.442,4.442,0,0,1,4.077,4.791Z" transform="translate(484.902 258.652)"/><path class="b" d="M364.806,31.282a2.491,2.491,0,0,1-2.634,2.618A3.173,3.173,0,0,1,359,31a3.9,3.9,0,0,1,4.315-3.427C365.235,28.093,363.6,30.472,364.806,31.282Z" transform="translate(331.938 16.153)"/><path class="c" d="M478.9,45.586a2.708,2.708,0,1,1-2.792-2.776A2.808,2.808,0,0,1,478.9,45.586Z" transform="translate(437.749 25.105)"/><path class="c" d="M677.267,79.459a2.443,2.443,0,0,1-2.4,2.633,2.316,2.316,0,0,1-2.348-2.253,2.427,2.427,0,0,1,2.348-2.649A2.38,2.38,0,0,1,677.267,79.459Z" transform="translate(633.712 109.49)"/><path class="c" d="M556.371,41c1.079.666,1.174,1.888,1.348,3.03.111.7-.238,1.317-.936,1.206-1.317-.206-1.459-1.475-1.586-2.507C554.927,42,555.435,41.365,556.371,41Z" transform="translate(512.761 24.044)"/><path class="c" d="M440.048,13.39c1.079.65,1.158,1.872,1.348,3.03.111.682-.238,1.317-.936,1.206-1.317-.222-1.475-1.491-1.682-2.522C438.636,14.358,439.144,13.723,440.048,13.39Z" transform="translate(405.272 7.852)"/><path class="c" d="M613.179,237.43c1.063.666,1.158,1.888,1.333,3.03.111.7-.238,1.317-.92,1.206-1.317-.206-1.475-1.475-1.681-2.507C611.766,238.414,612.227,237.779,613.179,237.43Z" transform="translate(598.156 365.611)"/><path class="c" d="M308.09,164.69c1.063.666,1.158,1.888,1.333,3.03.111.7-.238,1.317-.92,1.206-1.317-.206-1.475-1.475-1.682-2.507C306.663,165.674,307.123,165.039,308.09,164.69Z" transform="translate(283.369 233.397)"/><path class="c" d="M83.859,162c1.079.666,1.158,1.888,1.348,3.03.111.7-.238,1.317-.936,1.206-1.317-.206-1.46-1.491-1.682-2.507C82.447,162.936,82.907,162.3,83.859,162Z" transform="translate(48.4 229.585)"/><path class="c" d="M121.485,75.85c1.063.666,1.158,1.888,1.348,3.03.111.7-.238,1.317-.936,1.206-1.317-.206-1.475-1.491-1.682-2.507C120.025,76.834,120.485,76.2,121.485,75.85Z" transform="translate(70.456 107.494)"/><path class="c" d="M2.106,74.51c1.079.666,1.174,1.888,1.348,3.03.111.7-.238,1.317-.936,1.222C1.2,78.54,1.059,77.27.932,76.239.694,75.494,1.17,74.859,2.106,74.51Z" transform="translate(0.493 105.597)"/><path class="c" d="M512.986,14.73c1.079.65,1.174,1.872,1.348,3.014.111.7-.238,1.317-.936,1.222-1.317-.222-1.46-1.491-1.586-2.522C511.575,15.714,512.05,15.063,512.986,14.73Z" transform="translate(472.694 8.638)"/><path class="c" d="M139.075,28.19c1.079.666,1.174,1.888,1.349,3.03.111.682-.238,1.317-.936,1.206-1.317-.206-1.46-1.475-1.666-2.507C137.663,29.174,138.123,28.539,139.075,28.19Z" transform="translate(80.787 16.532)"/><path class="c" d="M33.064,112c1.079.65,1.174,1.872,1.348,3.03.111.682-.238,1.317-.936,1.206-1.317-.222-1.46-1.491-1.666-2.522C31.652,112.9,32.128,112.27,33.064,112Z" transform="translate(18.619 158.725)"/><path class="c" d="M624.29,89.34c1.063.65,1.158,1.872,1.333,3.03.111.682-.238,1.317-.92,1.206-1.333-.206-1.475-1.491-1.682-2.507C622.862,90.387,623.338,89.689,624.29,89.34Z" transform="translate(604.67 126.612)"/><path class="c" d="M533.936,137.39c1.079.666,1.158,1.888,1.348,3.03.111.7-.238,1.317-.936,1.206-1.317-.206-1.459-1.491-1.586-2.507C532.525,138.358,533,137.739,533.936,137.39Z" transform="translate(492.046 194.708)"/><path class="c" d="M710.856,166c1.079.666,1.174,1.888,1.348,3.03.111.7-.238,1.317-.936,1.206-1.317-.206-1.459-1.491-1.586-2.507C709.445,167.047,709.92,166.412,710.856,166Z" transform="translate(655.473 235.254)"/><path class="c" d="M308.09,0c1.063.65,1.158,1.888,1.333,3.03.111.682-.238,1.317-.92,1.206-1.333-.206-1.475-1.491-1.682-2.507C306.663.984,307.123.349,308.09,0Z" transform="translate(283.369)"/><path class="c" d="M1.266,265.16c1.079.666,1.174,1.888,1.348,3.03.111.7-.238,1.317-.936,1.206C.362,269.19.219,267.92.092,266.889-.146,266.144.33,265.509,1.266,265.16Z" transform="translate(0 381.873)"/><path class="b" d="M687.629,26.85c1.079.666,1.158,1.888,1.348,3.03.111.7-.238,1.317-.936,1.206-1.317-.206-1.475-1.491-1.682-2.507C686.217,27.834,686.677,27.2,687.629,26.85Z" transform="translate(641.817 15.746)"/><path class="c" d="M82.994,265.55c1.079.666,1.174,1.888,1.348,3.03.111.7-.238,1.317-.936,1.206-1.317-.206-1.46-1.491-1.586-2.507C81.582,266.534,82.138,265.9,82.994,265.55Z" transform="translate(47.932 382.101)"/><path class="b" d="M72.478,93.93c1.063.65,1.158,1.888,1.333,3.03.111.682-.238,1.317-.936,1.206-1.317-.206-1.46-1.491-1.666-2.507C71.066,94.914,71.542,94.279,72.478,93.93Z" transform="translate(41.727 133.117)"/><path class="c" d="M180.489,47.61c1.063.65,1.158,1.872,1.333,3.03.111.682-.238,1.317-.936,1.206-1.317-.206-1.46-1.491-1.666-2.507C179,48.594,179.474,47.959,180.489,47.61Z" transform="translate(165.477 27.92)"/><path class="c" d="M134.416,171.29c1.079.666,1.158,1.888,1.348,3.03.111.7-.238,1.317-.936,1.206-1.317-.206-1.475-1.475-1.682-2.507C132.94,172.274,133.464,171.639,134.416,171.29Z" transform="translate(78.038 242.751)"/><path class="c" d="M267.388,141.86c1.079.666,1.174,1.888,1.349,3.03.111.7-.238,1.317-.936,1.206-1.317-.206-1.46-1.491-1.666-2.507C265.944,142.844,266.452,142.209,267.388,141.86Z" transform="translate(245.777 201.043)"/><path class="c" d="M235.959,204.54c1.063.65,1.158,1.888,1.349,3.03.1.682-.238,1.317-.936,1.206-1.317-.206-1.475-1.491-1.682-2.507C234.547,205.524,235.007,204.889,235.959,204.54Z" transform="translate(216.742 289.872)"/><path class="c" d="M485.53,196.44c1.063.65,1.158,1.872,1.333,3.03.111.682-.238,1.317-.92,1.206-1.317-.206-1.476-1.491-1.682-2.522C484.1,197.424,484.578,196.789,485.53,196.44Z" transform="translate(447.279 278.393)"/><path class="c" d="M421.075,106c1.079.65,1.158,1.872,1.349,3.03.111.682-.238,1.317-.936,1.206-1.317-.222-1.46-1.491-1.666-2.522C419.663,107.015,420.123,106.381,421.075,106Z" transform="translate(387.752 150.222)"/><path class="c" d="M430.259,196.44c1.079.65,1.158,1.872,1.349,3.03.111.682-.238,1.317-.936,1.206-1.317-.222-1.475-1.491-1.682-2.522C428.847,197.424,429.307,196.789,430.259,196.44Z" transform="translate(396.228 278.393)"/><path class="b" d="M675.946,201.21c1.079.65,1.174,1.888,1.348,3.03.111.682-.238,1.317-.936,1.206-1.317-.206-1.459-1.491-1.586-2.507C674.535,202.194,675.01,201.559,675.946,201.21Z" transform="translate(635.001 285.153)"/><path class="c" d="M596.067,145.8c1.079.666,1.174,1.888,1.348,3.03.111.7-.238,1.317-.936,1.206-1.317-.206-1.459-1.475-1.587-2.507C594.655,146.784,595.1,146.117,596.067,145.8Z" transform="translate(588.155 206.627)"/><path class="c" d="M312.544,78.94c1.079.666,1.174,1.888,1.349,3.03.111.7-.238,1.317-.936,1.206-1.317-.206-1.46-1.475-1.666-2.507C311.133,79.924,311.608,79.289,312.544,78.94Z" transform="translate(287.498 111.873)"/><path class="c" d="M600.819,47.34c1.079.65,1.158,1.888,1.348,3.03.111.682-.238,1.317-.936,1.206-1.317-.206-1.475-1.491-1.682-2.507C599.407,48.387,599.867,47.689,600.819,47.34Z" transform="translate(590.908 27.762)"/><path class="c" d="M440.89,160.63c1.063.666,1.158,1.888,1.333,3.03.111.7-.238,1.317-.92,1.206-1.333-.206-1.475-1.475-1.682-2.507C439.462,161.614,439.938,160.979,440.89,160.63Z" transform="translate(406.043 227.643)"/><path class="c" d="M243.274,29.53c1.079.666,1.174,1.888,1.348,3.03.111.682-.238,1.317-.936,1.206-1.317-.206-1.46-1.491-1.666-2.507C241.862,30.514,242.338,29.879,243.274,29.53Z" transform="translate(223.51 17.318)"/><path class="c" d="M134.416,246.54c1.079.65,1.158,1.872,1.348,3.03.111.682-.238,1.317-.936,1.206-1.317-.222-1.475-1.491-1.682-2.522C132.94,247.524,133.464,246.889,134.416,246.54Z" transform="translate(78.038 370.953)"/><path class="c" d="M13.566,162c1.079.666,1.174,1.888,1.348,3.03.111.7-.238,1.317-.936,1.206-1.317-.206-1.46-1.475-1.586-2.507C12.154,162.936,12.63,162.3,13.566,162Z" transform="translate(7.213 229.585)"/><path class="c" d="M101.3,205.88c1.079.65,1.174,1.872,1.348,3.03.111.682-.238,1.317-.936,1.206-1.317-.206-1.46-1.491-1.586-2.507C99.95,206.864,100.362,206.229,101.3,205.88Z" transform="translate(58.675 291.771)"/><path class="c" d="M43.1,269.57c1.063.65,1.158,1.872,1.348,3.03.1.682-.254,1.317-.936,1.206-1.317-.222-1.475-1.491-1.682-2.522C41.687,270.554,42.115,269.919,43.1,269.57Z" transform="translate(24.496 384.459)"/><path class="c" d="M651.737,249c1.079.65,1.174,1.872,1.348,3.03.111.682-.238,1.317-.936,1.206-1.317-.222-1.459-1.491-1.586-2.522C650.325,250,650.8,249.365,651.737,249Z" transform="translate(620.803 372.396)"/><path class="c" d="M555.56,89.34c1.063.65,1.158,1.872,1.333,3.03.111.682-.238,1.317-.92,1.206-1.333-.206-1.475-1.491-1.682-2.507C554.133,90.387,554.609,89.689,555.56,89.34Z" transform="translate(511.969 126.612)"/></g></svg>