<svg id="Layer_1" data-name="Layer 1" xmlns="http://www.w3.org/2000/svg" viewBox="0 0 25 6"><defs><style>.cls-1{fill:#bfbfbf;}</style></defs><path class="cls-1" d="M.86,4.16a.09.09,0,0,1-.07,0,.11.11,0,0,1,0-.08v-2A.1.1,0,0,1,.86,2H4A.11.11,0,0,1,4.1,2a.09.09,0,0,1,0,.07v.79A.1.1,0,0,1,4,3H1.75v.2H4.33V2.08a.1.1,0,0,1,.1-.1h.79a.11.11,0,0,1,.07,0,.09.09,0,0,1,0,.07v2a.11.11,0,0,1,0,.08.11.11,0,0,1-.07,0ZM2.05,5.35a.09.09,0,0,1-.07,0,.11.11,0,0,1,0-.07V4.46a.1.1,0,0,1,.1-.1h.79a.11.11,0,0,1,.07,0,.09.09,0,0,1,0,.07v.79a.1.1,0,0,1-.1.1Zm1.19,0a.09.09,0,0,1-.07,0,.11.11,0,0,1,0-.07V4.46a.1.1,0,0,1,.1-.1H4a.11.11,0,0,1,.07,0,.09.09,0,0,1,0,.07v.79a.1.1,0,0,1-.1.1Zm1.19,0a.09.09,0,0,1-.07,0,.11.11,0,0,1,0-.07V4.46a.1.1,0,0,1,.1-.1h.79a.11.11,0,0,1,.07,0,.09.09,0,0,1,0,.07v.79a.1.1,0,0,1-.1.1Z"/><path class="cls-1" d="M5.62,4.16a.09.09,0,0,1-.07,0,.11.11,0,0,1,0-.08V.89a.1.1,0,0,1,.1-.1h.79a.1.1,0,0,1,.1.1V4.05a.11.11,0,0,1,0,.08.09.09,0,0,1-.07,0Z"/><path class="cls-1" d="M6.81,1.8a.09.09,0,0,1-.07,0,.11.11,0,0,1,0-.07V.91a.1.1,0,0,1,.1-.1H7.6a.1.1,0,0,1,.1.1V1.7a.11.11,0,0,1,0,.07.09.09,0,0,1-.07,0Zm0,2.36a.09.09,0,0,1-.07,0,.11.11,0,0,1,0-.08v-2a.1.1,0,0,1,.1-.1H7.6a.1.1,0,0,1,.1.1V3.17h.2V2.08a.09.09,0,0,1,0-.07A.11.11,0,0,1,8,2h.79a.11.11,0,0,1,.07,0,.09.09,0,0,1,0,.07V3.17h.2V2.08a.09.09,0,0,1,0-.07.11.11,0,0,1,.07,0H10a.11.11,0,0,1,.07,0,.09.09,0,0,1,0,.07v2a.11.11,0,0,1,0,.08.11.11,0,0,1-.07,0ZM8,1.8a.1.1,0,0,1-.1-.1V.91a.09.09,0,0,1,0-.07A.11.11,0,0,1,8,.81h.79a.11.11,0,0,1,.07,0,.09.09,0,0,1,0,.07V1.7a.1.1,0,0,1-.1.1Zm1.19,0a.1.1,0,0,1-.1-.1V.91a.09.09,0,0,1,0-.07.11.11,0,0,1,.07,0H10a.11.11,0,0,1,.07,0,.09.09,0,0,1,0,.07V1.7a.1.1,0,0,1-.1.1Z"/><path class="cls-1" d="M11.38,4.16a.1.1,0,0,1-.11-.11V3.76a1.86,1.86,0,0,1,.46-1.28A1.58,1.58,0,0,1,13,2h1A.11.11,0,0,1,14,2a.09.09,0,0,1,0,.07v.79A.1.1,0,0,1,14,3H13a.64.64,0,0,0-.5.2h1.78V2.08a.1.1,0,0,1,.1-.1h2a.11.11,0,0,1,.07,0,.09.09,0,0,1,0,.07v2a.11.11,0,0,1,0,.08.11.11,0,0,1-.07,0h-.79a.09.09,0,0,1-.07,0,.11.11,0,0,1,0-.08V3h-.2V4.05a.11.11,0,0,1,0,.08.11.11,0,0,1-.07,0Z"/><path class="cls-1" d="M16.73,4.16a.09.09,0,0,1-.07,0,.11.11,0,0,1,0-.08v-2a.1.1,0,0,1,.1-.1h.79a.11.11,0,0,1,.07,0,.09.09,0,0,1,0,.07v2a.11.11,0,0,1,0,.08.11.11,0,0,1-.07,0Zm0,1.19a.09.09,0,0,1-.07,0,.11.11,0,0,1,0-.07V4.46a.1.1,0,0,1,.1-.1h.79a.11.11,0,0,1,.07,0,.09.09,0,0,1,0,.07v.79a.1.1,0,0,1-.1.1Z"/><path class="cls-1" d="M19.9,5.35a.09.09,0,0,1-.07,0,.11.11,0,0,1,0-.07V4.16H17.92a.09.09,0,0,1-.07,0,.11.11,0,0,1,0-.08V3.76a1.81,1.81,0,0,1,.46-1.28A1.58,1.58,0,0,1,19.51,2h1.18a.11.11,0,0,1,.07,0,.09.09,0,0,1,0,.07V5.25a.1.1,0,0,1-.1.1ZM19,3.17h.79V3h-.29A.65.65,0,0,0,19,3.17Z"/><path class="cls-1" d="M21.09,4.16a.09.09,0,0,1-.07,0,.11.11,0,0,1,0-.08v-2a.1.1,0,0,1,.1-.1h1.18a1.58,1.58,0,0,1,1.23.5A1.81,1.81,0,0,1,24,3.76v.29a.11.11,0,0,1,0,.08.09.09,0,0,1-.07,0Zm.89-1h.79a.65.65,0,0,0-.5-.2H22Z"/></svg>