<svg id="Layer_1" data-name="Layer 1" xmlns="http://www.w3.org/2000/svg" viewBox="0 0 35 10"><defs><style>.cls-1{fill:#fff;}</style></defs><path class="cls-1" d="M2.85,6.67a.18.18,0,0,1-.09,0,.13.13,0,0,1,0-.1V4a.11.11,0,0,1,0-.09.12.12,0,0,1,.09,0H6.92a.13.13,0,0,1,.1,0,.15.15,0,0,1,0,.09V5a.13.13,0,0,1,0,.09.14.14,0,0,1-.1,0H4v.25H7.31V4a.11.11,0,0,1,0-.09.12.12,0,0,1,.09,0h1a.13.13,0,0,1,.1,0,.15.15,0,0,1,0,.09V6.53a.14.14,0,0,1-.14.14ZM4.38,8.2a.14.14,0,0,1-.09,0,.1.1,0,0,1,0-.09v-1a.11.11,0,0,1,0-.09.12.12,0,0,1,.09,0h1a.13.13,0,0,1,.1,0,.15.15,0,0,1,0,.09v1a.13.13,0,0,1,0,.09.14.14,0,0,1-.1,0Zm1.53,0a.14.14,0,0,1-.09,0,.1.1,0,0,1,0-.09v-1a.11.11,0,0,1,0-.09.12.12,0,0,1,.09,0h1A.13.13,0,0,1,7,7a.15.15,0,0,1,0,.09v1a.13.13,0,0,1,0,.09.14.14,0,0,1-.1,0Zm1.53,0a.14.14,0,0,1-.09,0,.1.1,0,0,1,0-.09v-1a.11.11,0,0,1,0-.09.12.12,0,0,1,.09,0h1a.13.13,0,0,1,.1,0,.15.15,0,0,1,0,.09v1a.13.13,0,0,1,0,.09.14.14,0,0,1-.1,0Z"/><path class="cls-1" d="M9,6.67a.18.18,0,0,1-.09,0,.13.13,0,0,1,0-.1V2.46a.11.11,0,0,1,0-.09.12.12,0,0,1,.09,0h1a.13.13,0,0,1,.1,0,.15.15,0,0,1,0,.09V6.53a.14.14,0,0,1-.14.14Z"/><path class="cls-1" d="M10.5,3.63a.14.14,0,0,1-.13-.13v-1a.13.13,0,0,1,0-.1.18.18,0,0,1,.09,0h1a.14.14,0,0,1,.14.14v1a.18.18,0,0,1,0,.09.13.13,0,0,1-.1,0Zm0,3a.18.18,0,0,1-.09,0,.13.13,0,0,1,0-.1V4a.11.11,0,0,1,0-.09.12.12,0,0,1,.09,0h1a.13.13,0,0,1,.1,0,.15.15,0,0,1,0,.09v1.4h.25V4a.11.11,0,0,1,0-.09.12.12,0,0,1,.09,0h1a.13.13,0,0,1,.1,0,.15.15,0,0,1,0,.09v1.4h.25V4a.11.11,0,0,1,0-.09.12.12,0,0,1,.09,0h1a.13.13,0,0,1,.1,0,.15.15,0,0,1,0,.09V6.53a.14.14,0,0,1-.14.14Zm1.53-3a.14.14,0,0,1-.13-.13v-1a.13.13,0,0,1,0-.1.18.18,0,0,1,.09,0h1a.14.14,0,0,1,.14.14v1a.18.18,0,0,1,0,.09.13.13,0,0,1-.1,0Zm1.53,0a.14.14,0,0,1-.13-.13v-1a.13.13,0,0,1,0-.1.18.18,0,0,1,.09,0h1a.14.14,0,0,1,.14.14v1a.18.18,0,0,1,0,.09.13.13,0,0,1-.1,0Z"/><path class="cls-1" d="M16.37,6.67a.15.15,0,0,1-.09,0,.13.13,0,0,1,0-.1V6.15a2.4,2.4,0,0,1,.59-1.65,2.05,2.05,0,0,1,1.59-.64h1.25a.13.13,0,0,1,.1,0,.11.11,0,0,1,0,.09V5a.1.1,0,0,1,0,.09.14.14,0,0,1-.1,0H18.42a.8.8,0,0,0-.64.25h2.28V4a.15.15,0,0,1,0-.09.13.13,0,0,1,.1,0h2.53a.13.13,0,0,1,.1,0,.11.11,0,0,1,0,.09V6.53a.13.13,0,0,1,0,.1.18.18,0,0,1-.1,0h-1a.14.14,0,0,1-.14-.14V5.14h-.25V6.53a.13.13,0,0,1,0,.1.18.18,0,0,1-.09,0Z"/><path class="cls-1" d="M23.26,6.67a.14.14,0,0,1-.14-.14V4a.15.15,0,0,1,0-.09.13.13,0,0,1,.1,0h1a.13.13,0,0,1,.1,0,.11.11,0,0,1,0,.09V6.53a.13.13,0,0,1,0,.1.18.18,0,0,1-.1,0Zm0,1.53a.14.14,0,0,1-.1,0,.13.13,0,0,1,0-.09v-1a.15.15,0,0,1,0-.09.13.13,0,0,1,.1,0h1a.13.13,0,0,1,.1,0,.11.11,0,0,1,0,.09v1a.1.1,0,0,1,0,.09.14.14,0,0,1-.1,0Z"/><path class="cls-1" d="M27.33,8.2a.14.14,0,0,1-.09,0,.1.1,0,0,1,0-.09V6.67H24.79a.14.14,0,0,1-.14-.14V6.15a2.36,2.36,0,0,1,.6-1.65,2,2,0,0,1,1.58-.64h1.51a.13.13,0,0,1,.1,0,.15.15,0,0,1,0,.09V8.06a.13.13,0,0,1,0,.09.14.14,0,0,1-.1,0ZM26.19,5.39h1V5.14h-.37A.8.8,0,0,0,26.19,5.39Z"/><path class="cls-1" d="M28.86,6.67a.18.18,0,0,1-.09,0,.13.13,0,0,1,0-.1V4a.11.11,0,0,1,0-.09.12.12,0,0,1,.09,0h1.52A2,2,0,0,1,32,4.5a2.35,2.35,0,0,1,.59,1.65v.38a.13.13,0,0,1,0,.1.15.15,0,0,1-.09,0ZM30,5.39h1a.79.79,0,0,0-.63-.25H30Z"/></svg>