<svg id="Layer_1" data-name="Layer 1" xmlns="http://www.w3.org/2000/svg" viewBox="0 0 9 3.5"><defs><style>.cls-1,.cls-2,.cls-4{fill:#fff;}.cls-1{opacity:0.11;}.cls-2{font-size:0.81px;font-family:DimaYekanBlack, Dima Yekan Black;}.cls-3{opacity:0.72;}.cls-5{fill:none;stroke:#fff;stroke-linecap:round;stroke-miterlimit:10;stroke-width:0.01px;}</style></defs><rect class="cls-1" x="0.31" y="0.45" width="8.38" height="2.6" rx="0.53"/><text class="cls-2" transform="translate(0.71 1.64)">یکیزیف تلوصحم شورف بلاق</text><g class="cls-3"><path class="cls-4" d="M6.44,2.59h0l0,0,0,0s0,0,0,0,0,0,0,0v0l0,0,0,0v0l0,0h0l0,0,0,0,0,0v0h0a0,0,0,0,1,0,0l0,0s0,0,0,0Zm0-.16,0,0v.08h.07s0,0,0,0v0s0,0,0,0v0Z"/><path class="cls-4" d="M6.67,2.59h-.1l0,0h.12l0,0,0,0v0h0l0,0,0,0v0h0l0,0,0,0,0,0h0s0,0,0,0,0,0,0,0H6.67Z"/><path class="cls-4" d="M6.92,2.59H6.84s0,0,0,0V2.29h0v.25h0Z"/><path class="cls-4" d="M7.07,2.59H7l0,0,0,0H6.91v0H7V2.45H7v.09H7.1V2.45h.05v.06a0,0,0,0,0,0,0h.06v0h0v0h0v0h0v.06h0v0s0,0,0,0,0,0,0,0l0,0H7.15s0,0,0,0l0,0Z"/></g><g class="cls-3"><path class="cls-4" d="M3.53,2.59H3.45V2.29h0v.25h0Z"/><path class="cls-4" d="M3.7,2.55v0H3.65l0,0,0,0H3.53v0h.08V2.45h0v.07H3.7Zm-.13.12,0,0,0,0,0,0Z"/><path class="cls-4" d="M3.85,2.42h0V2.5h0v0s0,0,0,0l0,0H3.69v0h.13v0h0v0h0Zm-.11.28,0,0,0,0,0,0Zm.08,0,0,0,0,0,0,0Z"/><path class="cls-4" d="M4,2.58a.07.07,0,0,1,0,0,.05.05,0,0,1,0,0l0,0H3.89v0H4l0,0v0a.06.06,0,0,0,0,0V2.45H4ZM4,2.36l0,0,0,0,0,0Z"/><path class="cls-4" d="M4.25,2.66h0l0,0h0v0H4.29l0,0a0,0,0,0,1,0,0,.06.06,0,0,1,0,0v0h0v0h.09l0,0,0,0a.09.09,0,0,1,0,0v.13s0,0,0,0l0,0H4.25Zm.07-.21s0,0,0,0a.05.05,0,0,0,0,0s0,0,0,0a0,0,0,0,0,0,0h.06V2.47h0Z"/><path class="cls-4" d="M4.83,2.55h.06v0s0,0,0,0l0,0,0,0,0,0v0L5,2.25l0,0-.17.08v0l0,0v0l0,0,0,0,0,0H5v0H5l0,0,0,0,0,0H4.63l0,0h0V2.44h0v0h0v0h.2Z"/><path class="cls-4" d="M5.26,2.55v0H5.19s0,0,0,0l0,0H5v0h.11V2.45h.05v.07h.07Zm-.17.16,0,0,0,0,0,0Zm.08,0,0,0,0,0,0,0Z"/><path class="cls-4" d="M5.41,2.59h0l0,0,0,0H5.25v0h.07a0,0,0,0,0,0,0V2.45h0v.06a0,0,0,0,0,0,0h.06V2.45h0v.06a0,0,0,0,0,0,0h0s0,0,0,0h0v0h0v0h0v.06h0v0a.06.06,0,0,1,0,0,0,0,0,0,1,0,0l0,0H5.49l0,0s0,0,0,0Zm0-.24,0,0,0,0,0,0Zm0-.06,0,0,0,0,0,0Zm0,.06,0,0,0,0,0,0Z"/></g><g class="cls-3"><path class="cls-4" d="M2.1,2.58a.43.43,0,0,1,0,0l0,0,0,0H1.94v0H2l0,0s0,0,0,0V2.45H2.1ZM2,2.36l0,0,0,0,0,0Z"/><path class="cls-4" d="M2.17,2.66h.05l0,0h0v0H2.2a0,0,0,0,1,0,0,0,0,0,0,1,0,0,.06.06,0,0,1,0,0v0h0v0h.09l0,0,0,0s0,0,0,0v.08a0,0,0,0,1,0,0v0s0,0,0,0l0,0H2.17Zm.06-.21,0,0s0,0,0,0,0,0,0,0a0,0,0,0,0,0,0h.06V2.47h0Z"/><path class="cls-4" d="M2.54,2.59h0a.07.07,0,0,1,0,0l0,0,0,0H2.34v0h.07l0,0,0,0V2.45h0v.08h0Z"/><path class="cls-4" d="M2.65,2.42h0V2.5h0v0l0,0,0,0H2.53v0h.09v0h0v0h0Zm-.08.25,0,0,0,0,0,0Z"/></g><line class="cls-5" x1="5.95" y1="2.22" x2="5.95" y2="2.72"/><line class="cls-5" x1="2.98" y1="2.22" x2="2.98" y2="2.72"/></svg>