<svg id="Layer_1" data-name="Layer 1" xmlns="http://www.w3.org/2000/svg" viewBox="0 0 15 15"><defs><style>.cls-1{fill:#39f;}.cls-2{opacity:0.29;}</style></defs><path class="cls-1" d="M1.84,8.71c0-.54.07-.81.07-1.29,0-.27-.16-.54-.68-.56V6.21c.52,0,.68-.29.68-.56,0-.48-.07-.75-.07-1.29,0-.81.31-1.07,1-1.07h.5v.59H3.2c-.33,0-.43.11-.43.53s0,.77,0,1.23-.19.79-.59.88v0c.4.09.59.31.59.88s0,.83,0,1.24.1.52.43.52h.15v.59h-.5C2.15,9.78,1.84,9.53,1.84,8.71Z"/><path class="cls-1" d="M5.9,3.71H7.66c1.07,0,1.9.28,1.9,1.22A1.12,1.12,0,0,1,8.88,6V6a1.14,1.14,0,0,1,.94,1.16c0,1-.89,1.45-2,1.45H5.9Zm1.71,2c.56,0,.81-.22.81-.58s-.26-.53-.8-.53H7.07V5.68Zm.11,2.1c.63,0,1-.22,1-.67s-.32-.6-1-.6H7.07V7.78Z"/><path class="cls-1" d="M12,9.19h.15c.33,0,.43-.11.43-.52s0-.78,0-1.24.19-.79.59-.88v0c-.4-.09-.59-.31-.59-.88s0-.83,0-1.23-.1-.53-.43-.53H12V3.29h.5c.7,0,1,.26,1,1.07,0,.54-.08.81-.08,1.29,0,.27.17.55.68.56v.65c-.51,0-.68.29-.68.56,0,.48.08.75.08,1.29,0,.82-.31,1.07-1,1.07H12Z"/><g class="cls-2"><path class="cls-1" d="M1.47,9.2c0-.53.07-.8.07-1.28,0-.27-.16-.55-.68-.56V6.71c.52,0,.68-.29.68-.56,0-.48-.07-.76-.07-1.29,0-.82.31-1.08,1-1.08H3v.59H2.83c-.33,0-.43.11-.43.53s0,.77,0,1.23-.19.8-.59.89v0c.4.09.59.31.59.88s0,.83,0,1.23.1.53.43.53H3v.59h-.5C1.78,10.28,1.47,10,1.47,9.2Z"/><path class="cls-1" d="M5.53,4.21H7.29c1.07,0,1.9.28,1.9,1.22a1.12,1.12,0,0,1-.68,1.06v0a1.14,1.14,0,0,1,.94,1.16c0,1-.89,1.45-2,1.45H5.53Zm1.71,2c.56,0,.81-.23.81-.59s-.26-.52-.8-.52H6.7V6.18Zm.11,2.09c.63,0,1-.21,1-.66S8,7,7.35,7H6.7V8.27Z"/><path class="cls-1" d="M11.65,9.69h.15c.33,0,.43-.11.43-.53s0-.77,0-1.23.19-.79.59-.88V7c-.4-.09-.59-.31-.59-.89s0-.82,0-1.23-.1-.53-.43-.53h-.15V3.78h.5c.7,0,1,.26,1,1.08,0,.53-.08.81-.08,1.29,0,.27.17.54.68.56v.65c-.51,0-.68.29-.68.56,0,.48.08.75.08,1.28,0,.82-.31,1.08-1,1.08h-.5Z"/></g></svg>