<?xml version="1.0" encoding="utf-8"?>
<!-- Generator: Adobe Illustrator 24.1.1, SVG Export Plug-In . SVG Version: 6.00 Build 0)  -->
<svg version="1.1" id="Layer_1" xmlns="http://www.w3.org/2000/svg" xmlns:xlink="http://www.w3.org/1999/xlink" x="0px" y="0px"
	 viewBox="0 0 24 24" style="enable-background:new 0 0 24 24;" xml:space="preserve">
<style type="text/css">
	.st0{fill:#C4C4C4;}
	.st1{fill:#474747;}
</style>
<g>
	<path class="st0" d="M18.3,21.7c0.3,0.3,0.9,0.3,1.2,0c2.4-2.7,3.7-6.1,3.7-9.7c0-3.6-1.3-7-3.7-9.7c-0.3-0.4-0.9-0.4-1.2,0l0,0
		c-0.3,0.3-0.3,0.8,0,1.2c2.1,2.3,3.2,5.4,3.2,8.5c0,3.3-1.2,6.3-3.2,8.5C18,20.9,18,21.4,18.3,21.7L18.3,21.7z"/>
	<path class="st1" d="M15.9,19.3c0.4,0.4,1,0.3,1.3-0.1c1.7-2,2.6-4.6,2.6-7.2c0-2.6-0.9-5.2-2.6-7.2c-0.3-0.4-0.9-0.4-1.3-0.1l0,0
		c-0.3,0.3-0.3,0.8,0,1.2c1.4,1.7,2.2,3.9,2.2,6.1c0,2.2-0.8,4.4-2.2,6.1C15.5,18.4,15.5,19,15.9,19.3L15.9,19.3z"/>
	<path class="st1" d="M16.3,12c0,1.7-0.6,3.4-1.6,4.7c-0.3,0.4-0.9,0.4-1.3,0.1l0,0c-0.3-0.3-0.3-0.8-0.1-1.1
		c0.8-1.1,1.3-2.4,1.3-3.7c0-1.4-0.5-2.7-1.3-3.7c-0.3-0.3-0.2-0.8,0.1-1.1l0,0c0.4-0.4,1-0.3,1.3,0.1C15.8,8.6,16.3,10.3,16.3,12z
		 M11.1,5.1c0-0.5-0.4-0.9-0.9-0.9c-0.2,0-0.4,0.1-0.5,0.2L5.9,7.5C5.7,7.6,5.5,7.7,5.3,7.7H2.5c-1,0-1.7,0.8-1.7,1.7v5.2
		c0,1,0.8,1.7,1.7,1.7h2.8c0.2,0,0.4,0.1,0.5,0.2l3.8,3.1c0.4,0.3,0.9,0.2,1.2-0.1c0.1-0.2,0.2-0.3,0.2-0.5V5.1z M6.7,9l1.7-1.4
		c0.4-0.3,0.9,0,0.9,0.5v7.8c0,0.5-0.6,0.8-1,0.5L6.7,15c-0.3-0.2-0.7-0.4-1.1-0.4H3.4c-0.5,0-0.9-0.4-0.9-0.9v-3.4
		c0-0.5,0.4-0.9,0.9-0.9h2.3C6,9.4,6.4,9.3,6.7,9z"/>
</g>
</svg>
