<?xml version="1.0" encoding="utf-8"?>
<!-- Generator: Adobe Illustrator 24.1.1, SVG Export Plug-In . SVG Version: 6.00 Build 0)  -->
<svg version="1.1" id="Layer_1" xmlns="http://www.w3.org/2000/svg" xmlns:xlink="http://www.w3.org/1999/xlink" x="0px" y="0px"
	 viewBox="0 0 24 24" style="enable-background:new 0 0 24 24;" xml:space="preserve">
<style type="text/css">
	.st0{fill:#C4C4C4;}
	.st1{fill:#474747;}
	.st2{fill:#A0A0A0;}
</style>
<path class="st0" d="M29,26.2c0.3,0.3,0.9,0.3,1.2,0c2.4-2.7,3.7-6.1,3.7-9.7c0-3.6-1.3-7-3.7-9.7c-0.3-0.4-0.9-0.4-1.2,0l0,0
	c-0.3,0.3-0.3,0.8,0,1.2c2.1,2.3,3.2,5.4,3.2,8.5c0,3.3-1.2,6.3-3.2,8.5C28.6,25.3,28.6,25.9,29,26.2L29,26.2z"/>
<path class="st0" d="M26.5,23.7c0.4,0.4,1,0.3,1.3-0.1c1.7-2,2.6-4.6,2.6-7.2c0-2.6-0.9-5.2-2.6-7.2c-0.3-0.4-0.9-0.4-1.3-0.1l0,0
	c-0.3,0.3-0.3,0.8,0,1.2c1.4,1.7,2.2,3.9,2.2,6.1c0,2.2-0.8,4.4-2.2,6.1C26.2,22.9,26.2,23.4,26.5,23.7L26.5,23.7z"/>
<path class="st1" d="M11.1,5.1c0-0.5-0.4-0.9-0.9-0.9c-0.2,0-0.4,0.1-0.5,0.2L5.9,7.5C5.7,7.6,5.5,7.7,5.3,7.7H2.5
	c-1,0-1.7,0.8-1.7,1.7v5.2c0,1,0.8,1.7,1.7,1.7h2.8c0.2,0,0.4,0.1,0.5,0.2l3.8,3.1c0.4,0.3,0.9,0.2,1.2-0.1c0.1-0.2,0.2-0.3,0.2-0.5
	V5.1z M6.7,9l1.7-1.4c0.4-0.3,0.9,0,0.9,0.5v7.8c0,0.5-0.6,0.8-1,0.5L6.7,15c-0.3-0.2-0.7-0.4-1.1-0.4H3.4c-0.5,0-0.9-0.4-0.9-0.9
	v-3.4c0-0.5,0.4-0.9,0.9-0.9h2.3C6,9.4,6.4,9.3,6.7,9z"/>
<path class="st2" d="M21.4,8.3c0.3,0.3,0.3,0.8,0,1.1c0,0,0,0,0,0L18.8,12l2.6,2.6c0.3,0.3,0.3,0.8,0,1.1c-0.3,0.3-0.8,0.3-1.1,0
	l-2.6-2.6l-2.6,2.6c-0.3,0.3-0.8,0.3-1.1,0c-0.3-0.3-0.3-0.8,0-1.1l2.6-2.6L14,9.4c-0.3-0.3-0.3-0.8,0-1.1c0.3-0.3,0.8-0.3,1.1,0
	l0,0l2.6,2.6l2.6-2.6C20.6,8,21.1,8,21.4,8.3C21.4,8.3,21.4,8.3,21.4,8.3z"/>
</svg>
