<svg id="Layer_1" data-name="Layer 1" xmlns="http://www.w3.org/2000/svg" viewBox="0 0 90 30"><defs><style>.cls-1{fill:#39f;}</style></defs><path class="cls-1" d="M2.3,19.81A.38.38,0,0,1,2,19.69a.35.35,0,0,1-.11-.27V12.09A.37.37,0,0,1,2,11.81a.41.41,0,0,1,.28-.11H14.05a.4.4,0,0,1,.27.11.38.38,0,0,1,.12.28V15a.41.41,0,0,1-.39.39H5.6v.73h9.57v-4a.37.37,0,0,1,.11-.28.41.41,0,0,1,.28-.11h2.91a.4.4,0,0,1,.27.11.38.38,0,0,1,.12.28v7.33a.36.36,0,0,1-.12.27.37.37,0,0,1-.27.12Zm4.42,4.42a.38.38,0,0,1-.28-.12.35.35,0,0,1-.11-.27V20.93a.33.33,0,0,1,.11-.27.38.38,0,0,1,.28-.12H9.63a.37.37,0,0,1,.27.12.34.34,0,0,1,.12.27v2.91a.36.36,0,0,1-.12.27.37.37,0,0,1-.27.12Zm4.42,0a.38.38,0,0,1-.28-.12.35.35,0,0,1-.11-.27V20.93a.33.33,0,0,1,.11-.27.38.38,0,0,1,.28-.12h2.91a.37.37,0,0,1,.27.12.34.34,0,0,1,.12.27v2.91a.36.36,0,0,1-.12.27.37.37,0,0,1-.27.12Zm4.42,0a.38.38,0,0,1-.28-.12.35.35,0,0,1-.11-.27V20.93a.33.33,0,0,1,.11-.27.38.38,0,0,1,.28-.12h2.91a.37.37,0,0,1,.27.12.34.34,0,0,1,.12.27v2.91a.36.36,0,0,1-.12.27.37.37,0,0,1-.27.12Z"/><path class="cls-1" d="M20,19.81a.38.38,0,0,1-.28-.12.36.36,0,0,1-.12-.27V7.67a.34.34,0,0,1,.12-.27A.38.38,0,0,1,20,7.28h2.91a.37.37,0,0,1,.27.12.34.34,0,0,1,.12.27V19.42a.36.36,0,0,1-.12.27.37.37,0,0,1-.27.12Z"/><path class="cls-1" d="M24.4,11.05a.38.38,0,0,1-.28-.12.37.37,0,0,1-.12-.27V7.75a.38.38,0,0,1,.12-.28.41.41,0,0,1,.28-.11h2.91a.4.4,0,0,1,.27.11.38.38,0,0,1,.12.28v2.91a.41.41,0,0,1-.39.39Zm0,8.76a.38.38,0,0,1-.28-.12.36.36,0,0,1-.12-.27V12.09a.38.38,0,0,1,.12-.28.41.41,0,0,1,.28-.11h2.91a.4.4,0,0,1,.27.11.38.38,0,0,1,.12.28v4h.73v-4a.37.37,0,0,1,.11-.28.4.4,0,0,1,.27-.11h2.92a.4.4,0,0,1,.27.11.38.38,0,0,1,.12.28v4h.73v-4a.37.37,0,0,1,.11-.28.41.41,0,0,1,.28-.11h2.91a.4.4,0,0,1,.27.11.38.38,0,0,1,.12.28v7.33a.36.36,0,0,1-.12.27.37.37,0,0,1-.27.12Zm4.41-8.76a.37.37,0,0,1-.27-.12.36.36,0,0,1-.11-.27V7.75a.37.37,0,0,1,.11-.28.4.4,0,0,1,.27-.11h2.92a.4.4,0,0,1,.27.11.38.38,0,0,1,.12.28v2.91a.41.41,0,0,1-.39.39Zm4.43,0a.38.38,0,0,1-.28-.12.36.36,0,0,1-.11-.27V7.75A.37.37,0,0,1,33,7.47a.41.41,0,0,1,.28-.11h2.91a.4.4,0,0,1,.27.11.38.38,0,0,1,.12.28v2.91a.41.41,0,0,1-.39.39Z"/><path class="cls-1" d="M41.35,19.81a.38.38,0,0,1-.28-.12.39.39,0,0,1-.11-.27V18.33a6.78,6.78,0,0,1,1.71-4.76,5.91,5.91,0,0,1,4.58-1.87h3.64a.4.4,0,0,1,.27.11.38.38,0,0,1,.12.28V15a.41.41,0,0,1-.39.39H47.25a2.35,2.35,0,0,0-1.85.73H52v-4a.38.38,0,0,1,.39-.39h7.33a.4.4,0,0,1,.27.11.38.38,0,0,1,.12.28v7.33a.36.36,0,0,1-.12.27.37.37,0,0,1-.27.12H56.82a.38.38,0,0,1-.28-.12.39.39,0,0,1-.11-.27v-4H55.7v4a.36.36,0,0,1-.12.27.37.37,0,0,1-.27.12Z"/><path class="cls-1" d="M61.24,19.81a.38.38,0,0,1-.28-.12.39.39,0,0,1-.11-.27V12.09a.38.38,0,0,1,.39-.39h2.91a.4.4,0,0,1,.27.11.38.38,0,0,1,.12.28v7.33a.36.36,0,0,1-.12.27.37.37,0,0,1-.27.12Zm0,4.42a.38.38,0,0,1-.28-.12.39.39,0,0,1-.11-.27V20.93a.37.37,0,0,1,.11-.27.38.38,0,0,1,.28-.12h2.91a.37.37,0,0,1,.27.12.34.34,0,0,1,.12.27v2.91a.36.36,0,0,1-.12.27.37.37,0,0,1-.27.12Z"/><path class="cls-1" d="M73,24.23a.38.38,0,0,1-.28-.12.39.39,0,0,1-.11-.27v-4h-7a.38.38,0,0,1-.28-.12.39.39,0,0,1-.11-.27V18.33A6.78,6.78,0,0,1,67,13.57a5.91,5.91,0,0,1,4.58-1.87h4.37a.4.4,0,0,1,.27.11.38.38,0,0,1,.12.28V23.84a.36.36,0,0,1-.12.27.37.37,0,0,1-.27.12Zm-3.31-8.11h2.92v-.73H71.56A2.35,2.35,0,0,0,69.71,16.12Z"/><path class="cls-1" d="M77.43,19.81a.37.37,0,0,1-.27-.12.36.36,0,0,1-.12-.27V12.09a.38.38,0,0,1,.12-.28.4.4,0,0,1,.27-.11H81.8a5.9,5.9,0,0,1,4.58,1.87,6.78,6.78,0,0,1,1.71,4.76v1.09a.35.35,0,0,1-.11.27.37.37,0,0,1-.27.12Zm3.31-3.69h2.91a2.33,2.33,0,0,0-1.85-.73H80.74Z"/></svg>